<svg width="24" height="24" xmlns="http://www.w3.org/2000/svg" fill="none">
  <g>
    <circle cx="12.00001" cy="12.03126" r="11.09376" fill="#161616" id="svg_7" stroke="null" />
    <path stroke="null" id="Path_10559" fill="#e7ac83" data-name="Path 10559"
      d="m23.10341,12.04881a11.12529,11.12529 0 1 0 -11.12529,11.12529l0.05617,0l0.0073,0l0.00948,0a11.13806,11.13806 0 0 0 11.05234,-11.12529zm-7.77275,5.59l-2.93416,0l0,-2.75725a0.36878,0.36878 0 0 0 -0.14591,-0.29582l-3.51851,-2.65803l3.2464,-5.65384l6.52526,11.36603l-3.17308,-0.00109zm-7.69651,0l-2.18238,0l0.67117,-1.16724l1.51122,1.16724zm-2.58982,-2.93927l0,-4.61535l2.8882,2.23308a0.3706,0.3706 0 0 0 0.09849,0.08353a0.18238,0.18238 0 0 0 0.02444,0.01094l3.59839,2.78169l0,4.61535l-6.60952,-5.10924zm7.35108,5.10888l0,-1.42805l1.84753,0l-1.84753,1.42805zm3.85008,-7.59146l2.75944,-2.13277l0,4.61535l-0.92358,0.71421l-1.83586,-3.19679zm-0.39577,-0.68977l-3.55061,-6.1842a0.37206,0.37206 0 0 0 -0.64381,0l-3.52143,6.13459l-2.84953,-2.15211l6.74047,-5.21101l6.74047,5.21101l-2.91556,2.20171zm-14.25642,0.52161a10.39576,10.39576 0 0 1 10.01276,-10.37607l0,1.8271l-7.15849,5.53492l-0.00657,0.00657a0.36695,0.36695 0 0 0 -0.05326,0.05253l-0.00365,0.00438a0.3954,0.3954 0 0 0 -0.03648,0.05982l-0.00657,0.0124a0.36695,0.36695 0 0 0 -0.02444,0.06821l-0.00292,0.01423a0.37169,0.37169 0 0 0 -0.00875,0.07551l0,5.55353a0.37133,0.37133 0 0 0 0.14408,0.29181l1.08335,0.83896l-1.04104,1.81288a0.3706,0.3706 0 0 0 0.32245,0.55554l3.78041,0l3.07605,2.37826l0,1.66879a10.39576,10.39576 0 0 1 -10.07587,-10.37935l-0.00109,0zm10.8178,10.37388l0,-1.68995l3.04505,-2.35382l3.6874,0a0.3706,0.3706 0 0 0 0.32172,-0.55554l-1.0104,-1.75962l1.14864,-0.88856a0.36987,0.36987 0 0 0 0.14591,-0.29181l0,-5.55535a0.37571,0.37571 0 0 0 -0.00875,-0.07551l-0.00365,-0.01423a0.32355,0.32355 0 0 0 -0.02444,-0.06821l-0.00584,-0.0124a0.40562,0.40562 0 0 0 -0.03903,-0.05982l-0.00292,-0.00438a0.37461,0.37461 0 0 0 -0.05399,-0.05253l-0.00657,-0.00657l-7.25478,-5.60824l0,-1.75378a10.383,10.383 0 0 1 0.0631,20.74994l-0.00146,0.00036z" />
  </g>
  <g id="svg_2">
    <circle id="svg_3" stroke-width="0.67708" stroke="#596AEC" fill="white" r="3.66146" cy="17.50002" cx="18.00003" />
    <path id="svg_4" fill="#596AEC"
      d="m18.08613,16.02252c-0.0429,0 -0.0809,0.0276 -0.0941,0.0685l-0.6518,2.0132c-0.0074,0.0228 -0.0397,0.0228 -0.0471,0l-0.6523,-2.0133c-0.0132,-0.0408 -0.0512,-0.0684 -0.0941,-0.0684l-1.1097,0c-0.0683,0 -0.1161,0.0675 -0.0934,0.1319l0.1359,0.385c0.0139,0.0396 0.0514,0.066 0.0933,0.066l0.5252,0c0.0105,0 0.0198,0.0066 0.0233,0.0165l0.8552,2.4214c0.014,0.0396 0.0514,0.066 0.0934,0.066l0.4935,0c0.0419,0 0.0794,-0.0264 0.0933,-0.066l1.0202,-2.8889c0.0228,-0.0644 -0.025,-0.1319 -0.0933,-0.1319l-0.4975,0z" />
    <path id="svg_5" fill="#596AEC"
      d="m19.13233,19.14552c0.3566,0 0.5697,-0.1672 0.6674,-0.3581l0.0177,0l0,0.3122l0.5149,0l0,-1.5211c0,-0.6007 -0.4897,-0.7812 -0.9233,-0.7812c-0.4779,0 -0.8448,0.2131 -0.9632,0.6274l0.5001,0.071c0.0533,-0.1554 0.2042,-0.2886 0.4661,-0.2886c0.2486,0 0.3847,0.1273 0.3847,0.3507l0,0.0089c0,0.1539 -0.1613,0.1613 -0.5623,0.2042c-0.4409,0.0473 -0.8626,0.179 -0.8626,0.691c0,0.4468 0.327,0.6836 0.7605,0.6836zm0.1391,-0.3936c-0.2234,0 -0.3832,-0.1021 -0.3832,-0.2989c0,-0.2057 0.179,-0.2915 0.4187,-0.3255c0.1406,-0.0192 0.4217,-0.0548 0.4913,-0.111l0,0.2678c0,0.253 -0.2042,0.4676 -0.5268,0.4676z" />
  </g>
</svg>