<svg width="24" height="24" viewBox="0 0 24 24" fill="none" xmlns="http://www.w3.org/2000/svg">
<mask id="mask0_5234_343111" style="mask-type:alpha" maskUnits="userSpaceOnUse" x="0" y="0" width="24" height="24">
<path d="M24 12C24 5.37258 18.6274 0 12 0C5.37258 0 0 5.37258 0 12C0 18.6274 5.37258 24 12 24C18.6274 24 24 18.6274 24 12Z" fill="url(#paint0_radial_5234_343111)"/>
</mask>
<g mask="url(#mask0_5234_343111)">
<path d="M24 12C24 5.37258 18.6274 0 12 0C5.37258 0 0 5.37258 0 12C0 18.6274 5.37258 24 12 24C18.6274 24 24 18.6274 24 12Z" fill="url(#paint1_radial_5234_343111)"/>
<path d="M20.1596 8.25395C20.1093 8.54771 20.0506 8.69014 19.9817 8.85499L19.9815 8.85535C19.9072 9.03406 19.823 9.23687 19.7466 9.63924C19.7162 9.80028 19.701 9.91842 19.6878 10.0226L19.687 10.029L19.6862 10.0351C19.6649 10.2019 19.6507 10.3142 19.583 10.5141C19.528 10.6774 19.436 10.9499 19.2145 11.2433C19.0357 11.4808 18.7363 11.8783 18.3368 11.9259C18.3022 11.9282 18.2295 11.9319 18.2 11.9168C17.0666 11.338 16.0928 10.9103 15.7557 10.8144C15.3636 10.7033 15.4138 9.84848 15.4581 9.09434C15.4781 8.75728 15.4969 8.43855 15.481 8.16564C15.426 7.21355 15.2574 6.17145 14.4283 5.66342C13.9333 5.36022 13.2947 5.27128 12.6846 5.27003C12.7977 5.21623 12.9238 5.14314 13.0612 5.06314L13.0654 5.06072C13.4246 4.85267 13.8705 4.59445 14.3136 4.549C14.4585 4.53471 14.601 4.51793 14.7413 4.5024C15.6346 4.40124 16.4063 4.31434 17.2204 4.59306C17.5893 4.71964 18.3462 5.14188 18.5417 5.53401C18.6791 5.8107 18.9113 6.02652 19.3745 6.45706C19.6156 6.68138 19.7745 6.81181 19.8907 6.90725L19.8961 6.91161C20.0594 7.04588 20.0915 7.07396 20.14 7.17324C20.2902 7.47911 20.2355 7.80394 20.1596 8.25395V8.25395Z" fill="white"/>
<path d="M16.014 12.1602C16.0793 12.1825 16.1038 12.2618 16.0663 12.3196C15.9484 12.5014 15.8138 12.7461 15.6537 13.0429C15.5758 13.1882 15.5019 13.3253 15.4399 13.4322C15.2203 13.8093 15.2024 14.1268 15.1885 14.3815C15.1734 14.648 15.1599 14.7703 15.0007 14.8765C14.8693 14.9646 14.7347 14.994 13.8015 15.1361C13.6387 15.1613 13.5664 15.1929 13.5028 15.2206C13.4926 15.225 13.4825 15.2294 13.4719 15.2338C13.4072 15.2604 13.3429 15.2046 13.3465 15.1348C13.3531 15.0047 13.3573 14.8445 13.3579 14.6461V14.6056C13.3628 14.4227 13.3551 14.2743 13.3485 14.1547C13.3362 13.9164 13.3347 13.816 13.3982 13.7124C13.4762 13.587 13.537 13.5488 13.6369 13.4854C13.7765 13.3977 13.9679 13.2769 14.2512 12.8877C14.4017 12.6815 14.4351 12.5697 14.456 12.4731C14.4649 12.4331 14.4682 12.418 14.5841 12.3302C14.7066 12.2372 15.08 11.9544 15.5579 12.0347C15.6843 12.0561 15.844 12.1022 16.014 12.1602V12.1602Z" fill="white"/>
<path d="M12.3238 16.4705C12.3034 16.4969 12.2797 16.5092 12.2453 16.511C12.1478 16.5149 12.0792 16.4909 12.0339 16.4362C11.9376 16.3191 11.9506 16.0836 11.9731 15.9461L12.3677 15.8408C12.3986 16.0497 12.4132 16.3541 12.3238 16.4705V16.4705Z" fill="white"/>
<path d="M12.3559 15.0464C12.3493 15.104 12.3421 15.1688 12.3424 15.2365C12.3429 15.2618 12.3432 15.2872 12.344 15.312C12.3448 15.3765 12.3473 15.4789 12.3383 15.5255C12.2151 15.5703 12.1098 15.5703 11.9715 15.568C11.9694 15.528 11.9719 15.4684 11.9735 15.4281C11.9743 15.397 11.976 15.3661 11.9763 15.3366C11.9768 15.304 11.9763 15.2717 11.9763 15.2395C11.9759 15.1636 11.9748 15.0392 11.9934 15.0025C12.0306 14.9972 12.0686 14.989 12.1093 14.9796C12.1909 14.9621 12.2974 14.9396 12.3652 14.9498C12.3641 14.9762 12.36 15.0154 12.3559 15.0464Z" fill="white"/>
<path d="M11.6256 16.3487C11.6065 16.551 11.5441 16.8011 11.3543 16.8391C11.269 16.8566 11.2277 16.831 11.2017 16.8065C11.0735 16.6878 11.0531 16.3291 11.071 16.0724C11.1563 16.074 11.2682 16.0548 11.4007 16.0291C11.4815 16.0131 11.562 15.9952 11.626 15.9805C11.6333 16.0755 11.6387 16.211 11.6256 16.3487V16.3487Z" fill="white"/>
<path d="M11.5364 15.623L11.1084 15.7731C11.13 15.607 11.1591 15.3731 11.1693 15.2177C11.1766 15.1084 11.2064 15.0748 11.2149 15.0676C11.2177 15.0651 11.2235 15.0599 11.2394 15.0599C11.2419 15.0599 11.2442 15.0604 11.2471 15.0604L11.256 15.0616L11.5266 15.0469C11.538 15.1741 11.538 15.4533 11.5364 15.623V15.623Z" fill="white"/>
<path d="M10.8441 15.4893C10.82 15.5538 10.7914 15.7362 10.7736 15.8647L10.2373 15.8483C10.2676 15.6822 10.3095 15.5133 10.3556 15.3786C10.4022 15.2448 10.4523 15.1444 10.4985 15.1162C10.5523 15.0839 10.6707 15.0766 10.7433 15.1386C10.8613 15.2391 10.8939 15.3543 10.8441 15.4893V15.4893Z" fill="white"/>
<path d="M10.6445 17.1305C10.603 17.1874 10.5568 17.2162 10.4996 17.2223C10.4412 17.2288 10.3959 17.2158 10.3597 17.1818C10.1912 17.0264 10.205 16.5171 10.2111 16.2723C10.4336 16.2216 10.6735 16.1785 10.7874 16.1719C10.8045 16.3769 10.8094 16.906 10.6445 17.1305Z" fill="white"/>
<path d="M9.944 15.8339C9.91781 15.9037 9.89256 15.9698 9.87342 16.0281C9.81099 16.0477 9.62043 16.0306 9.42578 15.9877L9.55956 15.1438C9.77946 15.0855 10.0345 15.0666 10.0961 15.132C10.1774 15.2183 10.0143 15.65 9.944 15.8339V15.8339Z" fill="white"/>
<path d="M9.70179 17.2603C9.59781 17.3884 9.44189 17.4483 9.22434 17.4461C9.07378 17.4434 9.01996 17.3863 8.99299 17.3435C8.87223 17.1522 8.99048 16.7012 9.10891 16.4131L9.83528 16.4567C9.84264 16.5075 9.84876 16.5688 9.85159 16.6359C9.85959 16.8408 9.83386 17.0962 9.70179 17.2603Z" fill="white"/>
<path d="M15.7043 11.1351C15.0503 10.9499 15.1067 9.99374 15.1611 9.06959C15.1804 8.74256 15.1986 8.4334 15.1837 8.18056C15.1335 7.31554 14.9881 6.3735 14.2923 5.94703C13.544 5.4894 12.3198 5.59371 11.5645 5.68982C11.5638 5.6899 11.5631 5.69034 11.5624 5.69041C11.5621 5.69043 11.5619 5.69046 11.5616 5.69056C11.2849 5.77439 11.0261 5.82876 10.8254 5.8181C10.3798 5.79503 10.033 5.60744 9.72765 5.44275C9.4894 5.31366 9.28156 5.20215 9.08582 5.20215C9.07547 5.20215 9.06465 5.20215 9.05397 5.20262C8.46845 5.24058 8.19931 5.38362 7.95477 5.60181C7.89328 5.65622 7.81831 5.81385 7.57284 6.52125C7.44894 6.8787 7.42603 7.07429 7.40298 7.2644C7.38228 7.43803 7.36125 7.61669 7.26888 7.88318C7.20457 8.067 7.1572 8.22558 7.11124 8.37851C6.99015 8.78474 6.89447 9.10473 6.60696 9.48523C6.57323 9.53026 6.53136 9.59645 6.48305 9.67189C6.41781 9.77462 6.33719 9.90229 6.23069 10.05C6.15555 10.1542 5.98301 10.544 5.99243 10.6627C6.00654 10.8517 6.06803 10.969 6.1383 11.106C6.20825 11.241 6.28793 11.3939 6.30252 11.6051L6.30487 11.6393C6.33059 11.9741 6.28275 12.1421 5.64579 12.7112C5.23854 13.0756 4.9492 13.4267 4.75407 13.6843C4.73684 13.707 4.75924 13.7408 4.78767 13.7385C4.79425 13.7376 4.80084 13.7371 4.80696 13.7371C4.81919 13.7362 4.83142 13.7357 4.8435 13.7357C4.85573 13.7357 4.86798 13.7362 4.88004 13.7366C4.89229 13.7371 4.90404 13.7381 4.91612 13.7399C5.07016 13.7575 5.22032 13.8226 5.32873 13.9349C5.34757 13.9544 5.37686 13.9597 5.40205 13.9497C5.50572 13.9065 5.61975 13.9136 5.72861 13.9238C5.85813 13.9358 5.98894 13.9736 6.07816 14.054C6.11214 14.0845 6.15877 14.1008 6.20355 14.0916C6.30494 14.0708 6.41059 14.0742 6.50878 14.11C6.58159 14.1371 6.64406 14.1783 6.69523 14.23C6.74345 14.2787 6.82509 14.2884 6.88465 14.2544C6.90845 14.2409 6.9341 14.2292 6.96192 14.2197C7.10025 14.1728 7.25319 14.1995 7.38745 14.2478C7.45364 14.2717 7.52297 14.2928 7.58257 14.3327C7.68101 14.3982 7.74501 14.491 7.78796 14.5956C7.82096 14.6759 7.93079 14.7034 8.00127 14.6527C8.08594 14.5917 8.15581 14.5839 8.22628 14.6152C8.25544 14.6283 8.27818 14.645 8.29562 14.6651C8.34612 14.7233 8.42723 14.7814 8.50221 14.7636C8.71108 14.7142 8.96395 14.747 9.1495 14.8464C9.218 14.8824 9.2854 14.9373 9.33464 15.0203C9.3347 15.0204 9.33472 15.0204 9.33475 15.0205C9.3348 15.0209 9.33524 15.0207 9.33529 15.0204L9.34092 14.9835C9.34347 14.9668 9.35534 14.953 9.37147 14.948L9.41645 14.934C9.52249 14.9003 10.0628 14.7446 10.273 14.9659C10.2821 14.975 10.298 14.9759 10.3067 14.9664C10.3353 14.9351 10.3585 14.9178 10.3734 14.9092C10.5103 14.8263 10.745 14.8211 10.9012 14.9548C10.9326 14.9811 10.9836 14.9716 11.0073 14.938C11.0219 14.9174 11.0384 14.8992 11.0569 14.8835C11.1118 14.8362 11.1813 14.8136 11.2582 14.8183L11.5551 14.8023C11.6298 14.7982 11.8617 14.7824 11.9349 14.7669C11.9404 14.7658 11.9461 14.7647 11.9519 14.7639C11.9828 14.7592 12.0195 14.7512 12.058 14.7432C12.202 14.7118 12.3652 14.6765 12.4993 14.7384C12.6283 14.798 12.612 14.9449 12.5964 15.0743C12.5903 15.1268 12.5837 15.1817 12.5842 15.2338C12.5851 15.2581 12.5856 15.2826 12.5861 15.3075C12.588 15.4191 12.5903 15.5222 12.5683 15.6013C12.5682 15.6015 12.5682 15.6017 12.5682 15.6019C12.5682 15.602 12.5682 15.6021 12.5682 15.6023L12.5818 15.6636C12.596 15.7238 12.6604 15.7578 12.7131 15.7252C12.8134 15.6633 12.9166 15.5851 12.9496 15.5388C12.9526 15.5345 12.955 15.5299 12.9568 15.525C12.9614 15.5125 12.9694 15.4867 12.9784 15.4347C12.9967 15.3244 13.0173 15.1003 13.0191 14.6451C13.0191 14.6211 13.0191 14.6039 13.0196 14.5959C13.0234 14.4269 13.0168 14.2914 13.0102 14.1717C12.998 13.925 12.9881 13.7308 13.1106 13.5332C13.2298 13.3409 13.3455 13.2681 13.4567 13.1977C13.5862 13.1166 13.7322 13.0245 13.978 12.6873C14.0986 12.5212 14.1135 12.4542 14.1252 12.4008C14.1519 12.2754 14.1933 12.2 14.3795 12.0593C14.531 11.9448 14.9922 11.5953 15.6142 11.7C15.8182 11.7346 16.1489 11.8434 16.4753 11.972C16.4755 11.9721 16.4756 11.9721 16.4758 11.9721C16.4759 11.9721 16.4759 11.9721 16.4761 11.9721C16.4879 11.9756 16.4999 11.9796 16.511 11.9853C16.5161 11.9879 16.5213 11.9906 16.5267 11.9927C16.8088 12.1054 17.0835 12.2307 17.2652 12.3328C17.3169 12.3619 17.3827 12.3445 17.4204 12.2987C17.4766 12.2306 17.5375 12.1891 17.6028 12.15C17.6289 12.134 17.6492 12.1219 17.6684 12.1054C17.7297 12.0534 17.729 11.9444 17.6577 11.9077C16.7891 11.4615 15.975 11.2121 15.7043 11.1351V11.1351ZM9.47292 11.3364C9.27074 12.2216 7.89941 13.1946 7.27609 13.1946H7.26385C7.25397 13.1941 7.24314 13.1932 7.23154 13.1913C7.21978 13.1894 7.20708 13.1866 7.19358 13.1828C7.187 13.1809 7.17993 13.1786 7.17288 13.1767C7.05978 13.1411 6.9031 13.0542 6.78452 12.9375C6.70295 12.8573 6.63865 12.7629 6.61841 12.6611C6.61465 12.6433 6.61088 12.6255 6.60713 12.6076C6.5734 12.4571 6.53152 12.269 6.66437 11.9613C6.68272 11.92 6.69903 11.8814 6.7141 11.8463C6.7188 11.8345 6.72398 11.8228 6.72868 11.8116C6.7428 11.7784 6.75534 11.7478 6.76664 11.7202C6.78546 11.6733 6.80083 11.6334 6.81353 11.5996C6.8187 11.5864 6.82342 11.5737 6.82765 11.5621C6.86561 11.4556 6.87031 11.4157 6.87549 11.3745C6.88019 11.3422 6.88491 11.3027 6.89808 11.2463C6.93697 11.0802 6.9572 10.9396 6.9751 10.8142C7.00693 10.589 7.03469 10.3943 7.15609 10.2157C7.17679 10.1853 7.1997 10.1575 7.22558 10.1332C7.23452 10.1247 7.243 10.1167 7.25224 10.1087C7.26166 10.1007 7.27106 10.0937 7.28032 10.0866C7.30981 10.0659 7.34133 10.0477 7.37552 10.0322C7.38729 10.027 7.39906 10.0218 7.41065 10.0176C7.43465 10.0086 7.45991 10.0011 7.48626 9.99452C7.59794 9.96739 7.72969 9.96316 7.88122 9.98229C8.04685 9.99547 8.20024 10.0268 8.33624 10.0648C8.44979 10.0962 8.55111 10.1329 8.63691 10.1671C8.64586 10.1704 8.65433 10.1737 8.66279 10.1774C8.67926 10.184 8.69511 10.1906 8.71064 10.1977C8.73417 10.2075 8.75565 10.2169 8.77588 10.2257C8.80254 10.238 8.82701 10.2488 8.84866 10.2585L8.86889 10.2679C8.96457 10.3115 9.04677 10.3594 9.11704 10.4096C9.1517 10.435 9.18416 10.4607 9.21319 10.4869C9.22306 10.4954 9.23247 10.5043 9.24125 10.5137C9.25067 10.5226 9.2596 10.5316 9.26793 10.5405C9.53142 10.818 9.51841 11.1389 9.47292 11.3364V11.3364ZM10.1085 7.9812L10.0818 8.14166C10.0203 8.50336 9.87916 8.99916 9.35843 9.12683C8.85745 9.24933 8.7387 9.27554 8.38218 9.29154C8.37418 9.29247 8.36572 9.29247 8.35725 9.29247C8.09688 9.29247 7.5959 9.12825 7.50713 8.72012C7.45034 8.4574 7.56626 8.26698 7.75714 7.95124C7.78899 7.89918 7.82334 7.84334 7.85988 7.78091C8.11226 7.35585 8.2117 7.04811 8.29154 6.80138C8.36933 6.5603 8.4341 6.36096 8.60068 6.19578C8.63911 6.15736 8.68272 6.12112 8.73338 6.08646C8.76569 6.06435 8.79957 6.04474 8.83518 6.02639C8.88254 6.00287 8.93226 5.98231 8.98434 5.96585C9.10024 5.92883 9.22541 5.91 9.35074 5.91C9.59369 5.91 9.83634 5.97996 10.0093 6.11877C10.0871 6.1812 10.1979 6.3059 10.2622 6.67371C10.2953 6.86318 10.239 7.21139 10.1085 7.9812V7.9812ZM13.8235 9.01046C13.6442 9.3182 13.5461 9.48758 13.3913 9.61464C13.0841 9.86701 12.7257 9.93085 12.4306 9.93085C12.2186 9.93085 12.0385 9.89807 11.9325 9.87877C11.6276 9.82293 11.0599 9.71973 10.8709 9.27176C10.8339 9.18314 10.8334 9.12683 10.8334 9.05547C10.8334 8.98504 10.8334 8.86647 10.8007 8.58445L10.7988 8.56563C10.7837 8.43795 10.7669 8.29349 10.8035 8.10825L10.8077 8.08615C10.9147 7.54203 10.9437 7.4589 10.9677 7.41199C11.0231 7.30502 11.1543 7.26283 11.2613 7.31774C11.365 7.37168 11.4081 7.49733 11.3594 7.60288C11.3485 7.63379 11.3181 7.74969 11.2354 8.17052L11.2312 8.19265C11.2077 8.31137 11.218 8.40141 11.2317 8.51544L11.2336 8.53474C11.2692 8.84105 11.2692 8.97986 11.2692 9.055C11.2692 9.06822 11.2692 9.0828 11.2696 9.09145C11.2698 9.09477 11.2714 9.09923 11.2725 9.10238C11.3042 9.17763 11.3715 9.23661 11.4551 9.28331C11.5271 9.32349 11.6045 9.25304 11.5891 9.17209C11.499 8.70029 11.5082 8.15877 11.6872 7.82122C11.7472 7.70641 11.8582 7.5187 11.9636 7.34341C11.9639 7.34292 11.9642 7.34247 11.9645 7.34197C11.9647 7.34146 11.9651 7.34102 11.9654 7.34053C11.9761 7.3229 11.9867 7.30541 11.9973 7.28778C12.0062 7.27271 12.0151 7.2583 12.0235 7.24417C12.0699 7.16716 12.1135 7.09642 12.1483 7.04011C12.153 7.03211 12.1577 7.02411 12.1624 7.01658C12.1657 7.01093 12.169 7.00576 12.1723 7.00105C12.1798 6.98883 12.1864 6.97753 12.1925 6.9678C12.1954 6.96309 12.1982 6.95887 12.2005 6.95462C12.202 6.95274 12.2029 6.95087 12.2038 6.94945C12.2071 6.9438 12.2104 6.93862 12.2133 6.93439C12.2189 6.92545 12.2231 6.91887 12.2255 6.91464C12.2256 6.91429 12.2258 6.91395 12.226 6.91363C12.2265 6.91268 12.2275 6.91131 12.2281 6.91036C12.2284 6.90971 12.2285 6.90961 12.2289 6.909C12.2549 6.87121 12.2806 6.83478 12.3059 6.79985C12.3629 6.72107 12.2963 6.6204 12.2076 6.66038C12.0554 6.72904 11.9529 6.80723 11.9304 6.82507C11.8362 6.90021 11.6991 6.88468 11.6246 6.79041C11.5499 6.69614 11.5654 6.55874 11.6597 6.4836C11.7719 6.39545 12.3662 5.96192 13.078 6.16551C13.5907 6.31139 13.8595 6.70319 13.9609 6.85047C14.0424 6.97015 14.2926 7.33327 14.2846 7.84035C14.2786 8.227 14.1172 8.50525 13.8235 9.01046V9.01046Z" fill="white"/>
<path d="M9.20106 6.3584C9.16467 6.44655 9.12106 6.55587 9.07417 6.67461C8.96483 6.94957 8.84076 7.26106 8.78115 7.37399C8.67826 7.56912 8.59828 7.69224 8.53428 7.79152C8.46119 7.9054 8.40283 7.99559 8.35877 8.12122C8.28159 8.34112 8.2678 8.58692 8.31799 8.85419C8.18168 8.83913 7.95849 8.74517 7.93323 8.6269C7.91441 8.53876 7.96915 8.44246 8.13039 8.17722C8.1627 8.12421 8.19737 8.06664 8.23532 8.00264C8.51248 7.53587 8.62463 7.1886 8.70713 6.93466C8.79606 6.65845 8.8381 6.54253 8.97973 6.44576C9.0431 6.40168 9.12027 6.37361 9.20106 6.3584V6.3584Z" fill="white"/>
<path d="M8.9299 16.1486C8.77885 16.4572 8.59078 16.7419 8.47363 16.8831C8.37653 16.6208 8.20791 16.0197 8.25247 15.5361C8.25372 15.5221 8.25529 15.5083 8.25733 15.4948C8.27521 15.3455 8.31488 15.2084 8.38548 15.0987C8.43206 15.0265 8.56099 14.9824 8.70749 14.9824C8.81555 14.9824 8.93318 15.0061 9.03436 15.0604H9.03514C9.08941 15.0894 9.16329 15.1481 9.17098 15.3187C9.18212 15.5491 9.07232 15.8589 8.9299 16.1486V16.1486Z" fill="white"/>
<path d="M17.2072 12.6904C17.219 12.6998 17.2263 12.714 17.2196 12.7275C17.1746 12.8182 17.1204 12.8818 17.0565 12.9567C16.9795 13.0485 16.8913 13.1526 16.8092 13.315C16.6924 13.5451 16.655 13.7549 16.6355 14.2923C16.6123 14.9236 16.6366 15.2783 16.655 15.5369C16.6725 15.7866 16.6833 15.9372 16.6387 16.1808C16.5489 16.672 16.3388 16.9974 16.0726 17.4091C15.7397 17.9241 15.3952 18.4562 14.8247 18.6259C14.7717 18.6423 14.77 18.6423 14.6212 18.6428C14.4918 18.6428 14.2764 18.6431 13.8687 18.6583C13.1236 18.6852 12.7498 18.6986 12.43 18.7602C12.0945 18.8251 11.9194 18.8965 11.7497 18.965C11.5966 19.0269 11.4519 19.0859 11.1744 19.1428C11.0091 19.1763 10.7619 19.2127 9.91959 19.2139C9.04421 19.2155 8.51579 19.216 7.81796 19.1365C6.86054 19.0271 6.37995 18.9724 6.06077 18.8019C5.30788 18.4003 4.98996 17.678 4.46403 16.4816C4.46313 16.4795 4.46222 16.4774 4.46132 16.4753C4.45482 16.4604 4.47296 16.446 4.48694 16.4544C4.51188 16.4699 4.53791 16.4826 4.56537 16.4917C4.58826 16.4999 4.61226 16.5061 4.63642 16.5102C4.68457 16.5184 4.73476 16.5188 4.78573 16.5102C4.79468 16.5086 4.80284 16.5066 4.81068 16.5032C4.81218 16.5027 4.81366 16.5019 4.81515 16.5012C4.82405 16.4968 4.83515 16.5006 4.83891 16.5097C4.87233 16.6019 4.92548 16.6839 5.01474 16.7313C5.10415 16.7779 5.20578 16.7815 5.30522 16.7807C5.40764 16.7791 5.51086 16.7734 5.61296 16.7611C5.66707 16.7554 5.7224 16.7819 5.74313 16.8322C5.83655 17.0588 5.95241 17.2228 6.12633 17.247C6.13574 17.2483 6.14798 17.2498 6.16351 17.2498C6.19742 17.2498 6.24721 17.2413 6.31523 17.2011C6.39913 17.1517 6.52552 17.1828 6.58927 17.2565C6.62677 17.2999 6.66792 17.3334 6.70416 17.3624C6.88328 17.5464 7.31871 17.6346 7.68432 17.6346C7.88384 17.6346 8.06264 17.6085 8.16788 17.5571C8.31846 17.4841 8.31846 17.3719 8.31108 17.3265C8.29828 17.2452 8.28673 17.1646 8.27681 17.0846C8.27562 17.0751 8.29015 17.0713 8.29399 17.0802C8.31595 17.1278 8.34261 17.1874 8.41399 17.1988C8.42166 17.1997 8.4303 17.2015 8.44018 17.2015C8.54214 17.2015 8.70062 17.2346 8.72797 17.3327C8.74188 17.3827 8.76163 17.4295 8.78839 17.472C8.84955 17.5688 8.97409 17.6842 9.22098 17.6883H9.24011C9.52369 17.6883 9.7425 17.5956 9.89009 17.4124C9.89967 17.4005 9.90881 17.3884 9.91757 17.376C9.97063 17.3014 10.1281 17.2981 10.1956 17.3602C10.2716 17.4304 10.3671 17.4666 10.4736 17.4666C10.4907 17.4666 10.5079 17.4658 10.5258 17.4638C10.6527 17.4503 10.7625 17.383 10.8445 17.2684C10.8982 17.1935 10.9374 17.1014 10.966 17.0018C10.9744 16.9724 11.0147 16.9637 11.0371 16.9843C11.0914 17.0344 11.1783 17.0875 11.3036 17.0875C11.3342 17.0875 11.3673 17.0842 11.4024 17.0769C11.6487 17.0274 11.7713 16.8235 11.8294 16.5935C11.8313 16.5858 11.8425 16.5837 11.8476 16.5897C11.91 16.6656 12.0251 16.7533 12.2254 16.7533C12.2356 16.7533 12.2463 16.7533 12.2568 16.7528C12.3628 16.7479 12.4522 16.7014 12.5167 16.6181C12.5925 16.5193 12.6239 16.3747 12.6324 16.2276C12.6356 16.1734 12.6703 16.1259 12.7201 16.1042C12.9284 16.0134 13.1742 15.829 13.2475 15.7024C13.248 15.7015 13.2485 15.7006 13.249 15.6997C13.2715 15.6601 13.3069 15.6277 13.3517 15.619C13.5064 15.5887 13.5756 15.5588 13.6388 15.5313C13.6918 15.508 13.7343 15.4897 13.8534 15.4712C14.8001 15.3267 14.9849 15.2949 15.1897 15.1583C15.4962 14.9539 15.5117 14.6727 15.5268 14.4005C15.5398 14.1704 15.5546 13.9093 15.7332 13.6028C15.7982 13.491 15.8731 13.3514 15.9528 13.2038C16.089 12.951 16.2782 12.5995 16.4168 12.4065C16.4484 12.3627 16.5062 12.349 16.5558 12.3701C16.8766 12.507 17.1479 12.6427 17.2072 12.6904V12.6904Z" fill="white"/>
<path d="M8.01264 15.506C7.97515 15.8333 7.95225 16.2706 8.00526 16.8403C8.02031 17.001 8.04118 17.168 8.06722 17.3368C8.02235 17.3613 7.88841 17.3957 7.65016 17.3918C7.30776 17.385 6.97445 17.2989 6.87437 17.1907L6.85884 17.1766C6.77556 17.1097 6.72098 17.0656 6.71313 16.9461C6.71063 16.9058 6.72787 16.8658 6.7649 16.8093C6.78529 16.7775 6.81226 16.7409 6.84567 16.6955C6.90323 16.6183 6.9746 16.522 7.04769 16.398C7.26194 16.0359 7.3432 15.9241 7.4464 15.7829C7.45456 15.7715 7.46319 15.76 7.47213 15.7483C7.53298 15.665 7.60434 15.5654 7.71164 15.4018C7.79163 15.2802 7.85814 15.185 7.91288 15.1104C8.00433 14.986 8.06423 14.9185 8.10266 14.8818C8.09701 14.9381 8.08431 15.0174 8.07208 15.0905C8.05388 15.2028 8.03099 15.3403 8.01264 15.506Z" fill="white"/>
<path d="M7.85612 10.4172C7.85409 10.42 7.85158 10.4228 7.84954 10.4258C7.805 10.4875 7.75401 10.5573 7.69331 10.6931C7.53003 11.0559 7.52689 11.2612 7.52439 11.4263C7.52281 11.5129 7.52188 11.5818 7.49819 11.6623C7.48188 11.7153 7.45537 11.7761 7.42479 11.8462C7.32848 12.0666 7.20284 12.3555 7.25915 12.7444C7.18119 12.7069 7.062 12.6211 7.04537 12.5754C7.04129 12.5543 7.03674 12.5334 7.03187 12.5125C7.0049 12.3913 6.98702 12.3122 7.0642 12.1347C7.26699 11.667 7.29194 11.5561 7.30777 11.4287C7.31107 11.4009 7.31437 11.3793 7.32252 11.3442C7.36534 11.1597 7.38777 11.0018 7.40613 10.8749C7.43341 10.6823 7.45177 10.5549 7.5167 10.4591C7.54038 10.4236 7.60737 10.4053 7.7032 10.4053C7.74116 10.4053 7.78397 10.4081 7.83057 10.4147L7.84154 10.4155C7.84624 10.4159 7.85127 10.4164 7.85612 10.4172V10.4172Z" fill="white"/>
<path d="M7.58792 15.0309C7.57695 14.9188 7.55734 14.8065 7.51656 14.7008C7.51373 14.6954 7.5015 14.6685 7.49899 14.6633C7.49163 14.6498 7.48315 14.6371 7.4753 14.6238C7.47484 14.6233 7.47452 14.6233 7.47452 14.623C7.47404 14.6222 7.47373 14.6222 7.47373 14.6217C7.46919 14.6169 7.46511 14.612 7.46072 14.6075C7.45412 14.6009 7.44691 14.5944 7.43985 14.5886C7.4386 14.5871 7.43734 14.5858 7.43625 14.5853C7.43295 14.5825 7.4281 14.5788 7.42276 14.5756C7.41414 14.5711 7.40598 14.5662 7.3975 14.5618C7.39499 14.5602 7.38888 14.5577 7.38323 14.5557C7.38323 14.5557 7.38276 14.5557 7.38276 14.5552C7.3815 14.5548 7.38025 14.5544 7.37915 14.554C7.3779 14.5532 7.37711 14.5527 7.37633 14.5524C7.37507 14.5519 7.37429 14.5516 7.3735 14.5516C7.37272 14.5516 7.37272 14.5511 7.37272 14.5511C7.37022 14.5499 7.36865 14.5496 7.3674 14.5491C7.30214 14.5251 7.23595 14.4989 7.16663 14.4887C7.16616 14.4887 7.16506 14.4883 7.16412 14.4883H7.16255C7.15486 14.4883 7.13886 14.4867 7.13807 14.4867C7.12836 14.4862 7.11894 14.4862 7.10954 14.4867C7.10498 14.4867 7.10059 14.4867 7.09651 14.4871H7.0929C7.09133 14.4871 7.08929 14.4876 7.08727 14.4876C7.08648 14.4884 7.08523 14.4884 7.08475 14.4884C7.08428 14.4884 7.08397 14.4884 7.08397 14.4884C7.06844 14.493 7.05212 14.497 7.03659 14.5019C7.03001 14.5052 7.02279 14.5085 7.01621 14.5126C7.01056 14.5158 7.00475 14.5199 6.9991 14.5228C6.99863 14.5232 6.99786 14.524 6.99706 14.524L6.99582 14.5253C6.98844 14.5326 6.98075 14.5395 6.97339 14.5469C6.97088 14.5494 6.96397 14.5579 6.95912 14.564C6.95786 14.5648 6.95708 14.5656 6.95708 14.5664C6.95661 14.5668 6.95661 14.5668 6.9563 14.5671C6.95582 14.5676 6.95582 14.5679 6.95504 14.5684C6.95456 14.5689 6.95456 14.5692 6.95425 14.5692C6.95221 14.5728 6.95017 14.5758 6.94939 14.5773C6.9232 14.6181 6.89669 14.6586 6.86939 14.6989C6.8065 14.7952 6.74203 14.891 6.67679 14.9862C6.61718 15.0724 6.55759 15.1585 6.49845 15.2446C6.46536 15.2927 6.43272 15.3404 6.4001 15.3886C6.39445 15.3967 6.38913 15.4049 6.38379 15.413C6.42253 15.4204 6.46128 15.4281 6.50049 15.4355C6.58816 15.4515 6.67553 15.4668 6.76446 15.4791C6.94766 15.504 7.13385 15.5155 7.3194 15.5089C7.32834 15.5084 7.33727 15.5089 7.34559 15.5104C7.39014 15.4468 7.44268 15.3708 7.50965 15.2692C7.54683 15.2124 7.58227 15.1599 7.61569 15.1113C7.60062 15.088 7.59122 15.0603 7.58792 15.0309V15.0309Z" fill="white"/>
<path d="M6.93636 15.7876C6.92051 15.9288 6.76257 16.2944 6.51601 16.6425C6.30959 16.9335 6.18427 17.004 6.15932 17.0065C6.05973 16.9927 5.96138 16.7462 5.88342 16.5018C5.85205 16.4027 5.82383 16.3038 5.80014 16.221C5.74665 16.035 5.73692 15.7856 5.74634 15.6289C5.95447 15.7443 6.32009 15.7754 6.83346 15.7774H6.83503C6.86892 15.781 6.90247 15.7848 6.93636 15.7876V15.7876Z" fill="white"/>
<path d="M6.57114 14.626V14.6268C6.56863 14.6301 6.56659 14.6337 6.56423 14.637C6.47609 14.7667 6.38716 14.8958 6.29823 15.0251C6.2521 15.0916 6.20647 15.1581 6.16113 15.225C6.1362 15.2614 6.10278 15.3014 6.07377 15.3446C6.00068 15.3275 5.92774 15.3107 5.85543 15.2903C5.7963 15.2732 5.73795 15.2549 5.68071 15.2319C5.66925 15.2279 5.65828 15.2233 5.64761 15.2181C5.63819 15.199 5.62471 15.1818 5.6084 15.1687C5.60887 15.1683 5.60887 15.1672 5.60918 15.1667C5.63005 15.1242 5.65122 15.0814 5.67207 15.039C5.7116 14.9611 5.75129 14.8836 5.79535 14.8085C5.87379 14.6729 5.96836 14.5351 6.10107 14.4472C6.10765 14.4424 6.11486 14.4378 6.12192 14.4334C6.17336 14.4011 6.22482 14.3784 6.28802 14.3705C6.2954 14.3697 6.33979 14.3701 6.36064 14.3718C6.36425 14.3718 6.36724 14.3723 6.36928 14.3723H6.36974C6.37132 14.3727 6.37429 14.3735 6.37868 14.3751C6.39421 14.3799 6.40974 14.3832 6.42526 14.3886C6.4306 14.3911 6.43547 14.3934 6.44079 14.3963C6.45429 14.4044 6.46809 14.4118 6.48079 14.422C6.4604 14.4064 6.50902 14.4566 6.50902 14.453C6.54823 14.5073 6.56015 14.5526 6.57114 14.626V14.626Z" fill="white"/>
<path d="M5.87266 14.2567C5.70937 14.391 5.59065 14.5698 5.49151 14.7558C5.43599 14.859 5.3858 14.9643 5.33357 15.0692C5.32823 15.0799 5.32289 15.0901 5.31679 15.1006C5.26738 15.0899 5.21796 15.0756 5.16982 15.0603C5.11837 15.0439 5.0674 15.0251 5.01845 15.0024C4.99602 14.9917 4.9736 14.9807 4.95117 14.969C5.0001 14.8763 5.05845 14.7873 5.11398 14.7009C5.1924 14.5789 5.27726 14.4589 5.36949 14.3463C5.40415 14.3035 5.44085 14.2566 5.48947 14.2283C5.5392 14.199 5.59927 14.2059 5.65636 14.2092C5.71675 14.213 5.78168 14.2145 5.83878 14.2374C5.85055 14.2424 5.86325 14.2503 5.87266 14.2567V14.2567Z" fill="white"/>
<path d="M5.61345 16.4482C5.60529 16.4551 5.59838 16.4626 5.59228 16.4711C5.58663 16.4727 5.58081 16.474 5.57721 16.4748C5.53801 16.4789 5.49801 16.4819 5.45848 16.4843C5.38256 16.4892 5.30539 16.4925 5.22868 16.4897C5.18588 16.4881 5.14713 16.4815 5.12957 16.4543C5.10134 16.4113 5.09286 16.3367 5.08266 16.2799C5.03247 16.0012 5.02589 15.7107 5.06148 15.4287C5.2072 15.4809 5.35699 15.5214 5.51071 15.5467C5.47761 15.8009 5.53392 16.1742 5.56702 16.2886C5.58238 16.3418 5.59791 16.3955 5.61345 16.4482Z" fill="white"/>
<path d="M5.14413 14.1647C5.0152 14.3229 4.89772 14.4915 4.79231 14.6661C4.74982 14.7372 4.70165 14.8106 4.66621 14.8865C4.61524 14.8722 4.56911 14.8518 4.52018 14.8216C4.4827 14.7983 4.44631 14.7726 4.41086 14.7456C4.40191 14.7383 4.37744 14.7191 4.36224 14.7069C4.35863 14.7041 4.35533 14.7013 4.35156 14.6992C4.36333 14.6658 4.38498 14.6286 4.3969 14.6037C4.42387 14.5446 4.454 14.4865 4.48552 14.4299C4.54544 14.3239 4.61241 14.2202 4.68833 14.1247C4.71656 14.0895 4.74338 14.0442 4.78714 14.0312C4.82714 14.0197 4.87984 14.0251 4.91199 14.0307C5.00751 14.0492 5.08217 14.0925 5.14413 14.1647Z" fill="white"/>
<path d="M4.15023 14.8546C4.15234 14.8464 4.16292 14.8453 4.16788 14.8522C4.20161 14.8992 4.24793 14.9402 4.29755 14.9788C4.31978 14.9957 4.34189 15.0126 4.36436 15.0286C4.36785 15.031 4.3695 15.0354 4.3685 15.0395C4.31657 15.255 4.2807 15.4833 4.27951 15.7087C4.27944 15.7212 4.26065 15.7239 4.25774 15.7118C4.19343 15.4427 4.10987 15.0126 4.15023 14.8546V14.8546Z" fill="white"/>
<path d="M4.78233 15.3328C4.75614 15.5254 4.74359 15.7185 4.75206 15.9126C4.75614 16.0191 4.76759 16.1249 4.78186 16.2301C4.78186 16.2309 4.78186 16.2317 4.78233 16.2321V16.2326C4.75942 16.2273 4.73544 16.2265 4.71097 16.2301C4.71583 16.2285 4.70328 16.2293 4.69796 16.2293H4.69637C4.69278 16.2288 4.68744 16.2285 4.68571 16.2281C4.65874 16.2215 4.65639 16.2186 4.63505 16.2051C4.60729 16.1873 4.57796 16.1545 4.55835 16.1211C4.50659 16.0314 4.49515 15.9224 4.49107 15.8207C4.48338 15.6212 4.50047 15.422 4.53765 15.2266C4.56948 15.2396 4.59725 15.2515 4.64336 15.2714C4.68901 15.2913 4.73637 15.311 4.78249 15.3323V15.3328H4.78233Z" fill="white"/>
<g opacity="0.8">
<path opacity="0.8" d="M9.87532 24.5021C9.03316 24.5021 8.22536 24.4486 7.54653 24.3949L7.38562 24.3825L7.22469 24.3603C7.12438 24.3464 7.00181 24.3335 6.88354 24.3201C6.22994 24.2489 5.13729 24.1302 3.9175 23.5581L3.73835 23.4739L3.57179 23.3803C1.2288 22.066 0.361971 20.1149 -0.156193 18.9488C-0.193205 18.8657 -0.238527 18.7635 -0.280903 18.6706C-0.522284 18.1756 -0.680522 17.7183 -0.814086 17.2974L-0.840906 17.2127L-0.86424 17.13C-1.207 15.9119 -1.29551 14.8724 -1.14263 13.8581C-0.989758 12.8437 -0.604622 11.9064 0.0672207 10.9183L0.569291 10.0984C0.658077 9.95317 0.719014 9.79263 0.748984 9.62505C0.998947 8.23228 1.65685 7.24477 1.95589 6.79526L1.9937 6.73841L2.00766 6.71588C2.01381 6.70219 2.01972 6.68905 2.02536 6.67483C2.04359 6.61557 2.06155 6.55818 2.07899 6.50345C2.15763 5.93211 2.29652 5.37067 2.49336 4.82855L2.52018 4.7556L2.54888 4.68237C2.55799 4.65904 2.56658 4.63384 2.59179 4.55819C2.73421 4.12908 3.03056 3.23811 3.80594 2.28224L4.08728 1.94164L4.37292 1.68335C5.13866 0.987566 6.05092 0.472645 7.04232 0.176604C7.60516 0.00951407 8.18531 -0.0924453 8.7714 -0.12727L8.82505 -0.131558L8.9055 -0.135314C9.0034 -0.139873 9.10103 -0.142019 9.19623 -0.142019C9.61667 -0.142766 10.0361 -0.263796 10.4479 -0.179231C10.7658 -0.113491 11.0962 -0.148653 11.3931 -0.279806C11.9477 -0.524405 12.6944 -0.622098 13.5491 -0.728573C13.61 -0.737424 13.6631 -0.744131 13.7044 -0.749226C13.8168 -0.76344 13.9965 -0.78463 14.214 -0.805282C14.5922 -0.841489 15.1742 -0.885742 15.7999 -0.885742C16.9846 -0.885742 17.9937 -0.735816 18.8855 -0.427385L18.9568 -0.402712L19.0265 -0.375892C20.9949 0.367829 21.9678 1.36339 22.7256 2.32864C22.7678 2.38229 22.8109 2.43726 22.827 2.45632L22.845 2.4724L22.9887 2.60033L23.0081 2.62019C23.6628 3.12177 24.2185 3.74086 24.6468 4.44582L24.7728 4.65367L24.8801 4.87145C25.8144 6.77864 25.5215 8.51362 25.3967 9.25467L25.39 9.2941C25.3013 9.83243 25.1562 10.3599 24.957 10.8679C24.8943 11.3622 24.7818 11.849 24.6213 12.3207C24.3663 13.1018 23.9901 13.8379 23.5064 14.502C23.1789 14.9675 22.8002 15.3949 22.3776 15.776C22.1813 15.9521 22.0575 16.1948 22.0301 16.4569C22.0097 16.65 21.9821 16.8378 21.9473 17.022C21.6665 18.5296 21.0102 19.5723 20.7098 20.0393L19.9632 21.1247C18.9709 22.3998 17.795 23.2336 16.3705 23.6726L16.0488 23.7735L15.7001 23.8337C15.284 23.9072 14.8621 23.9438 14.4396 23.9429C14.3781 23.9429 14.3154 23.9429 14.2478 23.9413H14.2288H14.1888C14.1888 23.9413 14.1754 23.9413 14.148 23.9433L14.0743 23.9478L14 23.9505L13.8517 23.9562C13.6556 23.963 13.4614 23.9968 13.2745 24.0564C12.3261 24.3593 11.2303 24.5021 9.87532 24.5021Z" stroke="url(#paint2_linear_5234_343111)" stroke-width="0.539569" stroke-miterlimit="10"/>
<path opacity="0.8" d="M9.87542 23.429C9.07081 23.429 8.2882 23.3768 7.62949 23.3255L7.50103 23.3156L7.37284 23.2979C7.25669 23.2818 7.12608 23.2676 6.99976 23.2537C6.37512 23.1858 5.43186 23.0831 4.37408 22.5869L4.23058 22.5196L4.09649 22.4447C2.06459 21.3058 1.31846 19.6254 0.824436 18.5134C0.78233 18.4183 0.73459 18.311 0.690337 18.2116C0.475777 17.7752 0.332557 17.3588 0.210524 16.9735L0.189068 16.9059L0.170294 16.8396C-0.129822 15.7733 -0.209208 14.8767 -0.0799352 14.0187C0.051215 13.1487 0.392902 12.3376 0.994743 11.466L1.06635 11.3625L1.14386 11.2629C1.19268 11.2007 1.23961 11.1393 1.28574 11.0792L1.58774 10.5254C1.68678 10.3444 1.75365 10.1475 1.78539 9.94366C1.97742 8.7011 2.57605 7.80342 2.8523 7.38933L2.85365 7.38717C2.86947 7.36358 2.88985 7.33354 2.90031 7.3169L2.95932 7.22277C2.98239 7.17235 3.01295 7.1053 3.03978 7.03503C3.0666 6.95108 3.09852 6.84729 3.13338 6.74001C3.19884 6.21068 3.32427 5.69052 3.50725 5.18954L3.52817 5.13108L3.55098 5.07207C3.57027 5.02299 3.58449 4.98035 3.61238 4.8964C3.74461 4.49919 3.98973 3.7619 4.64173 2.95757L4.8673 2.68481L5.09499 2.47911C5.74319 1.89008 6.51538 1.45417 7.35458 1.20354C7.84169 1.05898 8.34389 0.971319 8.85116 0.942313L8.89406 0.939093L8.95924 0.936145C9.03969 0.93239 9.12015 0.930514 9.20061 0.930514C9.63677 0.929913 10.0712 0.985163 10.4933 1.09492C10.8588 1.18737 11.2452 1.14658 11.5833 0.979861C12.1243 0.717292 12.8479 0.43863 13.6957 0.334568C13.7539 0.326254 13.8029 0.319818 13.8429 0.314721C13.9483 0.30158 14.1162 0.281733 14.32 0.261082C14.6749 0.22702 15.2204 0.186523 15.804 0.186523C16.8675 0.186523 17.7618 0.317136 18.5396 0.585872L18.5968 0.605722L18.6526 0.626639C20.4604 1.31001 21.2699 2.205 21.8866 2.99003C22.0226 3.16301 22.0431 3.18983 22.1365 3.27271L22.2516 3.37516L22.2964 3.42102C22.5938 3.6514 23.202 4.12585 23.7344 5.0034L23.8355 5.16969L23.9208 5.34376C24.7034 6.94089 24.4599 8.38327 24.343 9.07658L24.3365 9.11493C24.2528 9.62327 24.1112 10.1203 23.9143 10.5965L23.9091 10.6402C23.857 11.0956 23.7564 11.5442 23.6088 11.9782C23.3875 12.6579 23.0603 13.2983 22.6394 13.876C22.2872 14.3808 21.8639 14.832 21.3826 15.2157C21.2681 15.3065 21.1742 15.4207 21.1076 15.5508C21.0408 15.6808 21.0028 15.8236 20.9958 15.9696C20.9827 16.2562 20.9497 16.5415 20.8972 16.8235C20.6541 18.1308 20.0835 19.037 19.7922 19.4894L19.2134 20.3448C18.3409 21.5095 17.3068 22.2635 16.0569 22.6467L15.7997 22.7272L15.5216 22.7755C15.1659 22.8383 14.8054 22.8695 14.4442 22.8689C14.3882 22.8689 14.331 22.8689 14.2693 22.8672H14.2551H14.1934C14.183 22.8672 14.1511 22.8672 14.0862 22.8712L14.0272 22.8749L13.97 22.877L13.6718 22.8881C13.4629 22.8953 13.2561 22.9325 13.0579 22.9988C12.1892 23.2914 11.1644 23.429 9.87542 23.429V23.429Z" stroke="url(#paint3_linear_5234_343111)" stroke-width="0.505848" stroke-miterlimit="10"/>
<path opacity="0.8" d="M9.87547 22.3566C9.10654 22.3566 8.35048 22.3058 7.7127 22.2564L7.61642 22.2488L7.52014 22.2356C7.38845 22.2173 7.24979 22.2022 7.11542 22.1876C6.52832 22.1235 5.72559 22.0364 4.82955 21.616L4.72226 21.5654L4.62223 21.5094C2.90145 20.5439 2.2685 19.1194 1.80612 18.0786C1.75812 17.9713 1.70822 17.8583 1.65887 17.7502C1.46228 17.355 1.33703 16.9754 1.23297 16.6506L1.21688 16.5999L1.20293 16.5504C0.699788 14.7622 0.888871 13.5078 1.87746 12.0767L1.9311 11.9989L1.9893 11.9244C2.055 11.8404 2.11642 11.7597 2.17704 11.683C2.26822 11.5634 2.36048 11.4416 2.46107 11.3164C2.52347 11.2383 2.57384 11.1514 2.61044 11.0584L2.7239 10.7687C2.77198 10.6455 2.80215 10.5161 2.81348 10.3844C2.91191 9.23728 3.46976 8.40104 3.74602 7.98667L3.74762 7.98452C3.76773 7.95394 3.79831 7.90835 3.8085 7.89199L3.87314 7.78873L3.89299 7.7619C3.92732 7.69245 3.99464 7.54574 4.0539 7.39206C4.08582 7.28693 4.13624 7.12548 4.18559 6.97877C4.18559 6.97314 4.18559 6.96696 4.18773 6.96053C4.24061 6.47986 4.35137 6.00736 4.51763 5.55328L4.53345 5.5093L4.55061 5.46504C4.58065 5.3886 4.60184 5.32478 4.63108 5.23653C4.74909 4.88197 4.94648 4.28845 5.47537 3.63617L5.6446 3.43127L5.81438 3.27787C7.06365 2.14445 8.46153 2.04656 8.92873 2.01518L8.96091 2.01276L9.01026 2.01034C9.07382 2.00739 9.13738 2.00605 9.1996 2.00605C9.75428 2.00801 10.303 2.12024 10.8139 2.3362C10.9044 2.3738 11.0021 2.3909 11.1 2.38626C11.1979 2.38162 11.2935 2.35537 11.3801 2.30938H11.3828C11.8577 2.03395 12.7278 1.53456 13.8371 1.40099C13.8907 1.39294 13.9401 1.38678 13.9763 1.38222C14.0739 1.36988 14.2297 1.35164 14.4212 1.33314C14.7527 1.30149 15.2618 1.26367 15.803 1.26367C16.7452 1.26367 17.5251 1.37525 18.1875 1.60429L18.2304 1.61904L18.2722 1.63487C19.8216 2.22035 20.4899 2.95495 21.0412 3.6571C21.1895 3.84484 21.2558 3.93201 21.4218 4.07844L21.5082 4.15542L21.5774 4.22649L21.6309 4.26886C21.8936 4.47216 22.382 4.85059 22.8154 5.56347L22.8913 5.68819L22.9553 5.8188C23.5857 7.10616 23.3885 8.27364 23.2825 8.90123L23.2763 8.93851C23.2017 9.39472 23.0719 9.84017 22.8897 10.265L22.8744 10.3015C22.8727 10.3093 22.8706 10.3208 22.8673 10.3377C22.859 10.3809 22.8543 10.4152 22.8486 10.4589L22.8422 10.5083C22.7993 10.893 22.7145 11.272 22.5898 11.6385C22.402 12.2165 22.1242 12.7613 21.7661 13.2525C21.4122 13.7551 21.0153 14.1644 20.5697 14.4884C20.3741 14.6312 20.2144 14.8176 20.1033 15.0327C19.9919 15.2478 19.9323 15.4859 19.9287 15.728C19.925 16.03 19.8954 16.3311 19.8404 16.6281C19.635 17.7355 19.1625 18.4854 18.8683 18.9424L18.4478 19.5729C17.6946 20.6252 16.8061 21.297 15.7367 21.6244L15.6801 21.6422C15.5894 21.6706 15.4968 21.6931 15.4031 21.7091L15.3352 21.721C15.0402 21.7733 14.7412 21.7992 14.4416 21.7984C14.3909 21.7984 14.3394 21.7984 14.2836 21.7971H14.2745C14.249 21.7971 14.2209 21.7971 14.1908 21.7971C14.1699 21.7971 14.1147 21.7971 14.0149 21.8033L13.9706 21.8059L13.9275 21.8075C13.784 21.8129 13.6056 21.8191 13.4466 21.8262C13.2286 21.8351 13.0133 21.8774 12.808 21.9514C12.0382 22.2263 11.0963 22.3566 9.87547 22.3566V22.3566Z" stroke="url(#paint4_linear_5234_343111)" stroke-width="0.472125" stroke-miterlimit="10"/>
<g opacity="0.8">
<path opacity="0.8" d="M9.87504 21.2836C9.14258 21.2836 8.4128 21.2344 7.7954 21.1864L7.73104 21.1815L7.66694 21.1726C7.51915 21.1521 7.37192 21.136 7.23004 21.1206C6.69042 21.062 6.01884 20.9887 5.28451 20.6444L5.21264 20.6106L5.14613 20.5734C3.73646 19.783 3.20972 18.5964 2.78595 17.6429C2.73393 17.5255 2.67868 17.4042 2.62503 17.2862C2.45902 16.9551 2.34663 16.6158 2.25437 16.3253L2.24364 16.2918L2.23426 16.2588C1.81909 14.7837 1.95613 13.8474 2.75886 12.6853L2.79453 12.6335L2.83342 12.5839C2.90343 12.4943 2.96753 12.4106 3.02867 12.3299C3.23814 12.0553 3.43956 11.7908 3.74075 11.4692C3.8068 11.3987 3.84632 11.3074 3.85259 11.211L3.87538 10.8639L3.86653 10.7502L3.87055 10.6322C3.90193 9.68035 4.38013 8.96425 4.636 8.57964C4.66551 8.53512 4.69635 8.48926 4.71458 8.46004L4.75777 8.39137L4.79773 8.33773C4.84547 8.25969 4.97099 7.99364 5.06593 7.7383C5.09865 7.63102 5.16195 7.42639 5.21773 7.26412C5.23409 7.21236 5.23569 7.19976 5.24911 7.08872C5.29272 6.68704 5.38521 6.29218 5.52456 5.91293L5.53501 5.88343L5.54653 5.85365C5.58624 5.75228 5.61386 5.66941 5.64578 5.57339C5.74689 5.26924 5.89922 4.81089 6.30528 4.31016L6.41847 4.17337L6.53057 4.072C7.40572 3.27733 8.35915 3.12686 9.00258 3.08368L9.0243 3.0818H9.05755C9.10423 3.07966 9.15063 3.07858 9.19622 3.07858C9.74577 3.07858 10.4031 3.34222 10.7483 3.50154C10.8308 3.53942 10.9201 3.56059 11.0108 3.56387C11.1016 3.56714 11.1921 3.55243 11.2772 3.52057C11.492 3.44278 11.7013 3.35066 11.9037 3.24487C12.3427 2.99008 13.0712 2.56928 13.9758 2.46387C14.0257 2.45636 14.0705 2.45073 14.1075 2.4459C14.1984 2.43463 14.3419 2.41907 14.5197 2.40057C14.8282 2.37107 15.3005 2.33594 15.7996 2.33594C16.6202 2.33594 17.2857 2.4282 17.8336 2.61755L17.862 2.62746L17.8889 2.63793C19.183 3.12686 19.6979 3.68874 20.1933 4.31928C20.3541 4.52258 20.4679 4.66794 20.7041 4.87928L20.7616 4.93052L20.8152 4.98415C20.8635 5.03192 20.9154 5.07576 20.9704 5.1153C21.1926 5.28722 21.5649 5.57527 21.895 6.11891L21.9454 6.20204L21.9884 6.28921C22.4667 7.26573 22.3131 8.17654 22.2212 8.72072L22.215 8.75773C22.1539 9.13339 22.0468 9.5001 21.8961 9.84959V9.85226C21.8543 9.94265 21.8256 10.0384 21.8106 10.1368C21.7977 10.2055 21.7895 10.2607 21.7818 10.3219L21.7753 10.3718C21.7409 10.6857 21.6723 10.9949 21.5707 11.2938C21.4176 11.7709 21.1885 12.2201 20.8924 12.6241C20.4553 13.2477 19.95 13.6865 19.3412 13.9651C19.1933 14.0326 19.0669 14.1397 18.9761 14.2745C18.8852 14.4093 18.8333 14.5665 18.8263 14.729C18.8233 14.7955 18.8222 14.8502 18.8241 14.8808C18.8542 15.3498 18.8881 15.8814 18.7836 16.429C18.616 17.3348 18.2325 17.9437 17.9441 18.3907C17.9441 18.3907 16.6214 20.2317 15.4177 20.599L15.2881 20.6395L15.1489 20.664C14.9147 20.7056 14.6772 20.7262 14.4393 20.7254C14.3942 20.7254 14.3481 20.7254 14.2985 20.7241H14.2942C14.2623 20.7241 14.2277 20.7241 14.1885 20.7241C14.1413 20.7241 14.0643 20.7241 13.9447 20.7324L13.9155 20.7342H13.8865C13.426 20.7508 12.9907 20.7664 12.8698 20.79C12.805 20.8001 12.7419 20.8186 12.682 20.8452C12.0008 21.1438 11.1074 21.2836 9.87504 21.2836V21.2836Z" stroke="url(#paint5_linear_5234_343111)" stroke-width="0.438402" stroke-miterlimit="10"/>
<path opacity="0.8" d="M9.87502 20.2106C9.17932 20.2106 8.47528 20.1633 7.87827 20.1168L7.84635 20.1145L7.81444 20.1099C7.6511 20.0874 7.49608 20.0704 7.3459 20.0541C6.83791 19.9989 6.31251 19.9418 5.7399 19.6732L5.70397 19.656L5.67071 19.6376C4.57109 19.0208 4.16261 18.0995 3.76648 17.2074C3.71016 17.0809 3.65195 16.9499 3.59189 16.8198C3.45778 16.5548 3.36284 16.2706 3.27755 16.0013L3.27218 15.9847L3.26736 15.9678C2.93721 14.7936 3.02114 14.1942 3.64284 13.2949L3.66082 13.2681L3.68012 13.2431C3.75306 13.1501 3.81932 13.0632 3.88315 12.9792C4.18193 12.5874 4.4402 12.2486 5.01897 11.7144L5.02059 11.7128C5.06302 11.6722 5.09282 11.6203 5.10639 11.5632C5.11995 11.506 5.1167 11.4462 5.09703 11.3909L4.99269 11.0935C4.97172 10.9997 4.95703 10.9047 4.9487 10.8089V10.8057L4.94227 10.7253L4.94443 10.6663C4.9656 10.0202 5.30542 9.51085 5.53017 9.17372C5.56531 9.12009 5.59883 9.07099 5.62485 9.02916L5.6463 8.99483L5.67043 8.96237C5.78978 8.80146 5.98369 8.35597 6.08562 8.07999C6.11243 7.99498 6.1811 7.76673 6.23822 7.60126C6.27889 7.47681 6.30526 7.34814 6.3168 7.21774C6.35053 6.8948 6.42459 6.57738 6.53726 6.27286L6.54263 6.25784L6.54852 6.24309C6.59814 6.1157 6.63301 6.01109 6.66681 5.90972C6.75666 5.63963 6.8583 5.33335 7.14126 4.98443L7.19811 4.91576L7.25363 4.86561C7.87532 4.30077 8.55682 4.18706 9.08248 4.1522H9.09349H9.11065C9.14015 4.1522 9.16965 4.15033 9.19889 4.15033C9.71035 4.15033 10.1035 4.36006 10.3637 4.49898L10.4243 4.53117L10.4334 4.53599C10.5048 4.57462 10.5675 4.60842 10.6257 4.6371C10.7874 4.71819 10.9731 4.73728 11.1479 4.69075C11.5041 4.59499 12.0598 4.38419 12.4337 4.17875L12.4414 4.17419C12.8346 3.94623 13.4268 3.60293 14.1209 3.52675C14.1646 3.51978 14.2065 3.51468 14.2459 3.50959C14.3264 3.4994 14.4605 3.48277 14.6243 3.46802C14.9097 3.4412 15.3455 3.4082 15.8023 3.4082C16.5017 3.4082 17.0524 3.48117 17.4857 3.63082L17.4999 3.63591L17.5144 3.64128C18.5526 4.03366 18.9314 4.44427 19.3533 4.98228C19.5249 5.20086 19.6872 5.40739 19.9948 5.68122L20.0235 5.70804L20.0503 5.73485C20.1335 5.81875 20.2232 5.89597 20.3185 5.96577C20.503 6.10873 20.7559 6.30451 20.9832 6.67837L21.0083 6.71996L21.0297 6.76366C21.3562 7.43015 21.2475 8.07437 21.1682 8.54453L21.1619 8.58152C21.1144 8.87815 21.0295 9.16752 20.9091 9.44273C20.8388 9.60117 20.7889 9.76789 20.7605 9.9389C20.7417 10.0381 20.7308 10.1156 20.7216 10.1875L20.7151 10.2385C20.6893 10.4815 20.6367 10.721 20.5582 10.9524C20.4392 11.3279 20.2593 11.6813 20.0256 11.9984C19.6313 12.5643 19.1943 12.9132 18.6135 13.098C18.3353 13.186 18.0958 13.3674 17.9358 13.6114L17.8896 13.6822L17.8387 13.7404C17.6913 13.9083 17.7327 14.5589 17.7582 14.9473C17.7851 15.3734 17.8137 15.8141 17.7342 16.229C17.6033 16.9383 17.2994 17.4172 17.0274 17.8382C17.0274 17.8382 16.0174 19.2954 15.106 19.5721L15.0398 19.593L14.97 19.6051C14.7965 19.6361 14.6204 19.6515 14.4441 19.6506C14.4044 19.6506 14.3636 19.6506 14.3204 19.6506C14.2821 19.6506 14.24 19.6506 14.1933 19.6506C14.1314 19.6506 14.0324 19.6506 13.8817 19.6611H13.8672H13.8527C13.2415 19.6835 12.8727 19.6965 12.6689 19.7362C12.5317 19.7605 12.3978 19.8005 12.2698 19.8555C11.724 20.0975 10.9618 20.2106 9.87502 20.2106V20.2106Z" stroke="url(#paint6_linear_5234_343111)" stroke-width="0.438402" stroke-miterlimit="10"/>
</g>
</g>
</g>
<circle cx="20" cy="20" r="3.66146" fill="white" stroke="#596AEC" stroke-width="0.677083"/>
<path d="M20.0861 18.5225C20.0432 18.5225 20.0052 18.5501 19.992 18.591L19.3402 20.6042C19.3328 20.627 19.3005 20.627 19.2931 20.6042L18.6408 18.5909C18.6276 18.5501 18.5896 18.5225 18.5467 18.5225H17.437C17.3687 18.5225 17.3209 18.59 17.3436 18.6544L17.4795 19.0394C17.4934 19.079 17.5309 19.1054 17.5728 19.1054H18.098C18.1085 19.1054 18.1178 19.112 18.1213 19.1219L18.9765 21.5433C18.9905 21.5829 19.0279 21.6093 19.0699 21.6093H19.5634C19.6053 21.6093 19.6428 21.5829 19.6567 21.5433L20.6769 18.6544C20.6997 18.59 20.6519 18.5225 20.5836 18.5225H20.0861Z" fill="#596AEC"/>
<path d="M21.1323 21.6455C20.9883 21.6455 20.8586 21.6198 20.7432 21.5685C20.6288 21.5163 20.538 21.4393 20.4709 21.3377C20.4048 21.2361 20.3718 21.1108 20.3718 20.9619C20.3718 20.8336 20.3955 20.7276 20.4428 20.6438C20.4902 20.5599 20.5548 20.4928 20.6367 20.4425C20.7185 20.3922 20.8108 20.3542 20.9134 20.3286C21.0169 20.302 21.124 20.2827 21.2344 20.2709C21.3676 20.2571 21.4756 20.2448 21.5585 20.2339C21.6413 20.2221 21.7015 20.2043 21.739 20.1806C21.7775 20.156 21.7967 20.118 21.7967 20.0667V20.0578C21.7967 19.9464 21.7637 19.86 21.6976 19.7989C21.6315 19.7377 21.5363 19.7071 21.412 19.7071C21.2808 19.7071 21.1767 19.7358 21.0998 19.793C21.0238 19.8502 20.9725 19.9178 20.9459 19.9957L20.4458 19.9247C20.4852 19.7866 20.5503 19.6711 20.6411 19.5784C20.7318 19.4847 20.8428 19.4147 20.974 19.3683C21.1052 19.321 21.2502 19.2973 21.409 19.2973C21.5185 19.2973 21.6275 19.3101 21.736 19.3358C21.8445 19.3614 21.9437 19.4038 22.0334 19.463C22.1232 19.5212 22.1952 19.6006 22.2495 19.7012C22.3047 19.8018 22.3323 19.9276 22.3323 20.0785V21.5996H21.8174V21.2874H21.7997C21.7671 21.3505 21.7212 21.4097 21.6621 21.465C21.6039 21.5192 21.5304 21.5631 21.4416 21.5967C21.3538 21.6292 21.2507 21.6455 21.1323 21.6455ZM21.2714 21.2519C21.3789 21.2519 21.4722 21.2307 21.5511 21.1883C21.63 21.1449 21.6907 21.0877 21.7331 21.0166C21.7765 20.9456 21.7982 20.8682 21.7982 20.7843V20.5165C21.7814 20.5303 21.7528 20.5431 21.7124 20.555C21.6729 20.5668 21.6285 20.5772 21.5792 20.5861C21.5299 20.5949 21.481 20.6028 21.4327 20.6097C21.3844 20.6166 21.3424 20.6226 21.3069 20.6275C21.227 20.6383 21.1555 20.6561 21.0924 20.6808C21.0293 20.7054 20.9794 20.7399 20.9429 20.7843C20.9064 20.8277 20.8882 20.884 20.8882 20.953C20.8882 21.0516 20.9242 21.1261 20.9962 21.1764C21.0682 21.2267 21.16 21.2519 21.2714 21.2519Z" fill="#596AEC"/>
<defs>
<radialGradient id="paint0_radial_5234_343111" cx="0" cy="0" r="1" gradientUnits="userSpaceOnUse" gradientTransform="translate(12 13.2575) rotate(90) scale(13.4817)">
<stop offset="0.166667" stop-color="#073183"/>
<stop offset="1" stop-color="#0054F9"/>
</radialGradient>
<radialGradient id="paint1_radial_5234_343111" cx="0" cy="0" r="1" gradientUnits="userSpaceOnUse" gradientTransform="translate(12 13.2575) rotate(90) scale(13.4817)">
<stop offset="0.166667" stop-color="#073183"/>
<stop offset="1" stop-color="#0054F9"/>
</radialGradient>
<linearGradient id="paint2_linear_5234_343111" x1="-1.21484" y1="-0.885742" x2="24.1382" y2="25.8326" gradientUnits="userSpaceOnUse">
<stop offset="0.205697" stop-color="#89D0FF"/>
<stop offset="0.398413" stop-color="#EBBF9A"/>
<stop offset="0.601546" stop-color="#EB80DA"/>
<stop offset="0.841139" stop-color="#A281FF"/>
</linearGradient>
<linearGradient id="paint3_linear_5234_343111" x1="-0.139648" y1="0.186523" x2="23.0648" y2="24.7585" gradientUnits="userSpaceOnUse">
<stop offset="0.205697" stop-color="#89D0FF"/>
<stop offset="0.398413" stop-color="#EBBF9A"/>
<stop offset="0.601546" stop-color="#EB8280"/>
<stop offset="0.841139" stop-color="#A281FF"/>
</linearGradient>
<linearGradient id="paint4_linear_5234_343111" x1="0.933594" y1="1.26367" x2="21.9847" y2="23.683" gradientUnits="userSpaceOnUse">
<stop offset="0.205697" stop-color="#89D0FF"/>
<stop offset="0.398413" stop-color="#EBBF9A"/>
<stop offset="0.601546" stop-color="#EB80E7"/>
<stop offset="0.841139" stop-color="#A281FF"/>
</linearGradient>
<linearGradient id="paint5_linear_5234_343111" x1="2.00586" y1="2.33594" x2="20.9076" y2="22.6006" gradientUnits="userSpaceOnUse">
<stop offset="0.205697" stop-color="#89D0FF"/>
<stop offset="0.398413" stop-color="#EBBF9A"/>
<stop offset="0.601546" stop-color="#EB80D3"/>
<stop offset="0.841139" stop-color="#A281FF"/>
</linearGradient>
<linearGradient id="paint6_linear_5234_343111" x1="3.07714" y1="3.4082" x2="19.8281" y2="21.5266" gradientUnits="userSpaceOnUse">
<stop offset="0.205697" stop-color="#89D0FF"/>
<stop offset="0.398413" stop-color="#EBBF9A"/>
<stop offset="0.601546" stop-color="#A280EB"/>
<stop offset="0.841139" stop-color="#A281FF"/>
</linearGradient>
</defs>
</svg>
