<svg width="25" height="24" viewBox="0 0 25 24" fill="none" xmlns="http://www.w3.org/2000/svg">
<path d="M12,0A12,12,0,1,1,0,12,12,12,0,0,1,12,0Z" transform="translate(0 0)" fill="#f0b90b" fill-rule="evenodd"/>
<path d="M6.6,12v3.17l2.7,1.59v1.86L5,16.11v-5L6.6,12Zm0-3.17v1.84L5,9.75V7.9L6.6,7l1.57.93L6.6,8.83Zm3.83-.93L12,7l1.57.93L12,8.83,10.43,7.9Z" transform="translate(0 0)" fill="#fff"/>
<path d="M7.73,14.51V12.66l1.57.92v1.85l-1.57-.92Zm2.7,2.91,1.57.93,1.57-.93v1.85L12,20.2l-1.57-.93V17.42Zm5.4-9.52L17.4,7,19,7.9V9.75l-1.57.92V8.83L15.83,7.9Zm1.57,7.27V12L19,11.07v5l-4.28,2.5V16.76l2.7-1.59Z" transform="translate(0 0)" fill="#fff"/><polygon points="16.27 14.52 14.7 15.44 14.7 13.59 16.27 12.66 16.27 14.52" fill="#fff"/>
<path d="M16.27,9.48v1.86l-2.7,1.59v3.18L12,17l-1.57-.92V12.93l-2.7-1.59V9.48l1.58-.93L12,10.15l2.7-1.6,1.58.93ZM7.73,6.31,12,3.8l4.27,2.51-1.57.93L12,5.65,9.3,7.24,7.73,6.31Z" transform="translate(0 0)" fill="#fff"/><circle cx="21" cy="19" r="3.66" fill="#fff" stroke="#596aec" stroke-width="0.68"/>
<path d="M21.09,17.52a.11.11,0,0,0-.1.07l-.65,2s0,0-.05,0l-.65-2a.1.1,0,0,0-.09-.07H18.44a.1.1,0,0,0-.1.13l.14.39a.1.1,0,0,0,.09.07h.53s0,0,0,0L20,20.54a.1.1,0,0,0,.09.07h.49a.11.11,0,0,0,.1-.07l1-2.89a.1.1,0,0,0-.1-.13Z" transform="translate(0 0)" fill="#596aec"/>
<path d="M22.13,20.65a.71.71,0,0,0,.67-.36h0v.31h.51V19.08c0-.6-.49-.78-.92-.78a.9.9,0,0,0-1,.62L22,19a.44.44,0,0,1,.46-.29c.25,0,.39.12.39.35h0c0,.15-.16.16-.57.2s-.86.18-.86.69A.68.68,0,0,0,22.13,20.65Zm.14-.4c-.22,0-.38-.1-.38-.3s.18-.29.42-.32a1.88,1.88,0,0,0,.49-.11v.26A.49.49,0,0,1,22.27,20.25Z" transform="translate(0 0)" fill="#596aec"/>
</svg>