<svg width="25" height="24" viewBox="0 0 25 24" fill="none" xmlns="http://www.w3.org/2000/svg">
<circle cx="12" cy="12" r="12" fill="#f0ba00"/>
<rect x="4.38" y="10.54" width="2.92" height="2.92" transform="translate(-6.77 7.64) rotate(-45)" fill="#fff"/>
<rect x="6.18" y="10.54" width="11.63" height="2.92" transform="translate(-4.97 12) rotate(-45)" fill="#fff"/>
<rect x="9.27" y="13.62" width="11.63" height="2.92" transform="translate(-6.25 15.08) rotate(-45)" fill="#fff"/>
<rect x="6.83" y="5.92" width="7.27" height="2.92" transform="translate(-2.15 9.56) rotate(-45)" fill="#fff"/>
<circle cx="21" cy="19" r="3.66" fill="#fff" stroke="#596aec" stroke-width="0.68"/><path d="M21.09,17.52a.11.11,0,0,0-.1.07l-.65,2s0,0-.05,0l-.65-2a.1.1,0,0,0-.09-.07H18.44a.1.1,0,0,0-.1.13l.14.39a.1.1,0,0,0,.09.07h.53s0,0,0,0L20,20.54a.1.1,0,0,0,.09.07h.49a.11.11,0,0,0,.1-.07l1-2.89a.1.1,0,0,0-.1-.13Z" fill="#596aec"/><path d="M22.13,20.65a.71.71,0,0,0,.67-.36h0v.31h.51V19.08c0-.6-.49-.78-.92-.78a.9.9,0,0,0-1,.62L22,19a.44.44,0,0,1,.46-.29c.25,0,.39.12.39.35h0c0,.15-.16.16-.57.2s-.86.18-.86.69A.68.68,0,0,0,22.13,20.65Zm.14-.4c-.22,0-.38-.1-.38-.3s.18-.29.42-.32a1.88,1.88,0,0,0,.49-.11v.26A.49.49,0,0,1,22.27,20.25Z" fill="#596aec"/>
</svg>