<svg xmlns="http://www.w3.org/2000/svg" xmlns:xlink="http://www.w3.org/1999/xlink" width="24px" height="24px" viewBox="0 0 24 24" version="1.1">
<g id="surface1">
<path style="fill-rule:nonzero;fill:rgb(100%,100%,100%);fill-opacity:1;stroke-width:22.946;stroke-linecap:butt;stroke-linejoin:miter;stroke:rgb(0%,32.156863%,100%);stroke-opacity:1;stroke-miterlimit:4;" d="M 244.541667 128 C 244.541667 192.375 192.375 244.541667 128 244.541667 C 63.625 244.541667 11.458333 192.375 11.458333 128 C 11.458333 63.625 63.625 11.458333 128 11.458333 C 192.375 11.458333 244.541667 63.625 244.541667 128 Z M 244.541667 128 " transform="matrix(0.09375,0,0,0.09375,0,0)"/>
<path style=" stroke:none;fill-rule:nonzero;fill:rgb(0%,32.156863%,100%);fill-opacity:1;" d="M 11.996094 3 L 11.996094 9.375 L 17.246094 11.785156 Z M 11.996094 3 "/>
<path style=" stroke:none;fill-rule:nonzero;fill:rgb(40%,59.215686%,100%);fill-opacity:1;" d="M 12 3 L 6.75 11.785156 L 12 9.375 Z M 12 3 "/>
<path style=" stroke:none;fill-rule:nonzero;fill:rgb(0%,32.156863%,100%);fill-opacity:1;" d="M 11.996094 15.917969 L 11.996094 20.25 L 17.25 12.789062 Z M 11.996094 15.917969 "/>
<path style=" stroke:none;fill-rule:nonzero;fill:rgb(40%,59.215686%,100%);fill-opacity:1;" d="M 12 20.25 L 12 15.917969 L 6.75 12.789062 Z M 12 20.25 "/>
<path style=" stroke:none;fill-rule:nonzero;fill:rgb(40%,59.215686%,100%);fill-opacity:1;" d="M 11.996094 14.914062 L 17.246094 11.785156 L 11.996094 9.378906 Z M 11.996094 14.914062 "/>
<path style=" stroke:none;fill-rule:nonzero;fill:rgb(80%,86.27451%,100%);fill-opacity:1;" d="M 6.75 11.785156 L 12 14.914062 L 12 9.378906 Z M 6.75 11.785156 "/>
<circle cx="21" cy="19" r="3.66146" fill="white" stroke="#596AEC" stroke-width="0.677083"/>
<path d="M21.0861 17.5225C21.0432 17.5225 21.0052 17.5501 20.992 17.591L20.3402 19.6042C20.3328 19.627 20.3005 19.627 20.2931 19.6042L19.6408 17.5909C19.6276 17.5501 19.5896 17.5225 19.5467 17.5225H18.437C18.3687 17.5225 18.3209 17.59 18.3436 17.6544L18.4795 18.0394C18.4934 18.079 18.5309 18.1054 18.5728 18.1054H19.098C19.1085 18.1054 19.1178 18.112 19.1213 18.1219L19.9765 20.5433C19.9905 20.5829 20.0279 20.6093 20.0699 20.6093H20.5634C20.6053 20.6093 20.6428 20.5829 20.6567 20.5433L21.6769 17.6544C21.6997 17.59 21.6519 17.5225 21.5836 17.5225H21.0861Z" fill="#596AEC"/>
<path d="M22.1323 20.6455C22.4889 20.6455 22.702 20.4783 22.7997 20.2874H22.8174V20.5996H23.3323V19.0785C23.3323 18.4778 22.8426 18.2973 22.409 18.2973C21.9311 18.2973 21.5642 18.5104 21.4458 18.9247L21.9459 18.9957C21.9992 18.8403 22.1501 18.7071 22.412 18.7071C22.6606 18.7071 22.7967 18.8344 22.7967 19.0578V19.0667C22.7967 19.2206 22.6354 19.228 22.2344 19.2709C21.7935 19.3182 21.3718 19.4499 21.3718 19.9619C21.3718 20.4087 21.6988 20.6455 22.1323 20.6455ZM22.2714 20.2519C22.048 20.2519 21.8882 20.1498 21.8882 19.953C21.8882 19.7473 22.0672 19.6615 22.3069 19.6275C22.4475 19.6083 22.7286 19.5727 22.7982 19.5165V19.7843C22.7982 20.0373 22.594 20.2519 22.2714 20.2519Z" fill="#596AEC"/>
</g>
</svg>