<svg xmlns="http://www.w3.org/2000/svg" width="73" height="73">
  <g data-name="Group 5249">
    <g data-name="Group 4662">
      <g data-name="Group 68">
        <g data-name="Group 64">
          <path fill="#d1eff2" d="M36.5 0A36.5 36.5 0 110 36.5 36.5 36.5 0 0136.5 0z" data-name="Path 10554" />
          <path fill="#0d124d"
            d="M36.499 2.281A34.219 34.219 0 112.281 36.499 34.258 34.258 0 0136.499 2.281m0-2.281a36.5 36.5 0 1036.5 36.5A36.5 36.5 0 0036.499 0z"
            data-name="Path 27" />
        </g>
      </g>
    </g>
    <path fill="#0d124d"
      d="M56.837 31.276h-3.97a16.148 16.148 0 00-15.14-10.533H23.519v10.533H19v3.844h4.519v3.811H19v3.844h4.519v10.253h14.208a16.148 16.148 0 0015.034-10.253h4.076v-3.844h-3.1a16.3 16.3 0 00.129-2.045 16.307 16.307 0 00-.1-1.765h3.071zm-29.541-7.1h10.016a12.713 12.713 0 0111.411 7.1H27.296zm10.016 25.427H27.296v-6.824H48.58a12.711 12.711 0 01-11.269 6.82zM50.025 36.89a12.793 12.793 0 01-.165 2.045H27.296v-3.811h22.606a12.854 12.854 0 01.122 1.761z"
      data-name="Path 10539" />
  </g>
</svg>