<svg width="25" height="24" viewBox="0 0 25 24" fill="none" xmlns="http://www.w3.org/2000/svg">
<path d="M12 0C18.628 0 24 5.37305 24 12C24 18.628 18.628 24 12 24C5.37305 24 0 18.6275 0 12C0 5.37305 5.37305 0 12 0Z" fill="#F5AC37"/>
<path d="M12.4383 12.8474H16.9981C17.0953 12.8474 17.1412 12.8474 17.1482 12.7199C17.1855 12.2561 17.1855 11.7895 17.1482 11.3251C17.1482 11.2349 17.1034 11.1977 17.0057 11.1977H7.93087C7.81854 11.1977 7.7883 11.2349 7.7883 11.3402V12.6751C7.7883 12.8474 7.7883 12.8474 7.96813 12.8474H12.4383V12.8474ZM16.639 9.63758C16.652 9.60356 16.652 9.56629 16.639 9.53281C16.5629 9.36703 16.4727 9.20881 16.3679 9.06031C16.2102 8.80651 16.0245 8.57268 15.8128 8.36262C15.7129 8.23572 15.5973 8.12178 15.4677 8.02512C14.8186 7.47269 14.047 7.08173 13.2175 6.88517C12.799 6.79121 12.3713 6.74639 11.9426 6.75017H7.9152C7.80288 6.75017 7.78776 6.79499 7.78776 6.89273V9.55495C7.78776 9.66728 7.78776 9.69752 7.93033 9.69752H16.585C16.585 9.69752 16.6601 9.6824 16.6752 9.63758H16.6385H16.639ZM16.639 14.4074C16.5116 14.3934 16.383 14.3934 16.2556 14.4074H7.93843C7.8261 14.4074 7.7883 14.4074 7.7883 14.5576V17.1604C7.7883 17.2803 7.7883 17.3105 7.93843 17.3105H11.7784C11.962 17.3246 12.1456 17.3116 12.3254 17.2733C12.8827 17.2333 13.4308 17.1123 13.9535 16.9131C14.1436 16.8472 14.3272 16.7613 14.5006 16.6582H14.553C15.4531 16.19 16.1843 15.4545 16.6455 14.5516C16.6455 14.5516 16.6979 14.4382 16.639 14.4085V14.4074ZM6.28115 18.66V18.6152V16.8677V16.2753V14.5127C6.28115 14.415 6.28115 14.4004 6.16127 14.4004H4.53369C4.44351 14.4004 4.40625 14.4004 4.40625 14.2805V12.8555H6.14615C6.24335 12.8555 6.28115 12.8555 6.28115 12.728V11.3181C6.28115 11.2279 6.28115 11.2058 6.16127 11.2058H4.53369C4.44351 11.2058 4.40625 11.2058 4.40625 11.0859V9.7661C4.40625 9.68348 4.40625 9.66134 4.52613 9.66134H6.13859C6.25091 9.66134 6.28115 9.66134 6.28115 9.51877V5.47629C6.28115 5.35641 6.28115 5.32617 6.43127 5.32617H12.056C12.4642 5.34237 12.8698 5.38719 13.271 5.46117C14.0977 5.61399 14.8921 5.90938 15.6184 6.33112C16.1001 6.61462 16.5434 6.95699 16.9382 7.35119C17.2352 7.65954 17.503 7.99326 17.7406 8.34858C17.9766 8.70877 18.1726 9.09379 18.3265 9.49609C18.3454 9.60086 18.4459 9.6716 18.5506 9.65378H19.8931C20.0653 9.65378 20.0653 9.65378 20.0729 9.81902V11.0491C20.0729 11.169 20.0281 11.1993 19.9076 11.1993H18.8725C18.7677 11.1993 18.7375 11.1993 18.745 11.3343C18.7861 11.7911 18.7861 12.2496 18.745 12.7064C18.745 12.8339 18.745 12.849 18.8881 12.849H20.0723C20.1247 12.9165 20.0723 12.984 20.0723 13.052C20.0799 13.139 20.0799 13.227 20.0723 13.3139V14.2217C20.0723 14.3491 20.0351 14.3869 19.9222 14.3869H18.5047C18.4059 14.368 18.3098 14.4312 18.2871 14.5295C17.9496 15.407 17.4096 16.1938 16.7119 16.8245C16.457 17.054 16.1892 17.27 15.9094 17.4693C15.6092 17.6421 15.3171 17.8219 15.0093 17.9645C14.4428 18.2193 13.8488 18.4073 13.2391 18.5266C12.6602 18.6303 12.0732 18.6773 11.4841 18.6692H6.27899V18.6616L6.28115 18.66Z" fill="#FEFEFD"/>
<circle cx="21" cy="19" r="3.66146" fill="white" stroke="#596AEC" stroke-width="0.677083"/>
<path d="M21.0861 17.5225C21.0432 17.5225 21.0052 17.5501 20.992 17.591L20.3402 19.6042C20.3328 19.627 20.3005 19.627 20.2931 19.6042L19.6408 17.5909C19.6276 17.5501 19.5896 17.5225 19.5467 17.5225H18.437C18.3687 17.5225 18.3209 17.59 18.3436 17.6544L18.4795 18.0394C18.4934 18.079 18.5309 18.1054 18.5728 18.1054H19.098C19.1085 18.1054 19.1178 18.112 19.1213 18.1219L19.9765 20.5433C19.9905 20.5829 20.0279 20.6093 20.0699 20.6093H20.5634C20.6053 20.6093 20.6428 20.5829 20.6567 20.5433L21.6769 17.6544C21.6997 17.59 21.6519 17.5225 21.5836 17.5225H21.0861Z" fill="#596AEC"/>
<path d="M22.1323 20.6455C22.4889 20.6455 22.702 20.4783 22.7997 20.2874H22.8174V20.5996H23.3323V19.0785C23.3323 18.4778 22.8426 18.2973 22.409 18.2973C21.9311 18.2973 21.5642 18.5104 21.4458 18.9247L21.9459 18.9957C21.9992 18.8403 22.1501 18.7071 22.412 18.7071C22.6606 18.7071 22.7967 18.8344 22.7967 19.0578V19.0667C22.7967 19.2206 22.6354 19.228 22.2344 19.2709C21.7935 19.3182 21.3718 19.4499 21.3718 19.9619C21.3718 20.4087 21.6988 20.6455 22.1323 20.6455ZM22.2714 20.2519C22.048 20.2519 21.8882 20.1498 21.8882 19.953C21.8882 19.7473 22.0672 19.6615 22.3069 19.6275C22.4475 19.6083 22.7286 19.5727 22.7982 19.5165V19.7843C22.7982 20.0373 22.594 20.2519 22.2714 20.2519Z" fill="#596AEC"/>
</svg>
