<svg width="24" height="24" xmlns="http://www.w3.org/2000/svg" fill="none">
  <g stroke="null" id="svg_1">
    <circle cx="12.00001" cy="12.03126" r="11.09376" fill="#6c32e0" id="svg_7" stroke="null" />
    <path stroke="null"
      d="m22.82552,14.48435l-7.75798,-8.33449l-4.42082,-0.90152l-2.58759,10.62876l6.52846,7.01642a10.9277,11.88847 0 0 0 8.23886,-8.40914"
      fill="#2d0a58" id="Fill-4" />
    <path stroke="null"
      d="m11.39478,14.94588l0,-6.57673l1.52313,0a4.81568,5.2391 0 0 1 1.40958,0.21249a2.98125,3.24339 0 0 1 1.11239,0.66164c0.04284,0.04109 0.08417,0.0844 0.12492,0.13036a4.85165,5.27821 0 0 0 -0.70886,-2.58302a5.22973,5.68954 0 0 0 -1.43537,-0.2164l-3.69369,0l0,8.36482c0.56115,0.00685 1.10849,0.05672 1.66783,0.00849"
      fill="#5729af" id="Fill-6" />
    <path stroke="null"
      d="m17.78992,9.68494a4.64699,5.05559 0 0 0 -1.05968,-1.74145a4.26382,4.63871 0 0 0 -1.52224,-1.03159c-0.11625,-0.04659 -0.234,-0.08604 -0.35233,-0.12255a4.85913,5.28636 0 0 1 0.70886,2.58239c0.25374,0.27996 0.41645,1.366 0.56924,1.7835l-4.73899,4.72215l0,-0.93219c-0.55845,0.04823 -1.10672,0 -1.66783,-0.00849l0,2.73787l3.49536,0a5.14942,5.60216 0 0 0 1.72775,-0.33899a4.90706,5.3385 0 0 0 1.60224,-1.02411a4.82736,5.25178 0 0 0 1.17801,-1.73364a5.27735,5.74134 0 0 0 0.4572,-2.48169a5.66234,6.16019 0 0 0 -0.39725,-2.41191"
      fill="#8859e7" id="Fill-8" />
    <path stroke="null"
      d="m10.97178,14.07856a5.42267,5.89943 0 0 0 1.47609,-0.21249a3.38331,3.68077 0 0 0 1.21155,-0.66164a2.84615,3.0964 0 0 0 0.81431,-1.16585a3.87915,4.2202 0 0 0 0.29808,-1.74145a4.03553,4.39034 0 0 0 -0.26515,-1.67856a2.77455,3.01847 0 0 0 -0.7343,-1.17337a2.98098,3.24306 0 0 0 -1.11239,-0.66164a4.81899,5.24267 0 0 0 -1.40958,-0.21249l-1.52494,0l0,7.50825l1.24633,-0.00067l0,-0.00008zm-2.91266,-9.30478l3.69338,0a5.21952,5.67845 0 0 1 1.78766,0.33899a4.26382,4.63871 0 0 1 1.52224,1.03159a4.63651,5.04416 0 0 1 1.05876,1.74145a5.64884,6.14549 0 0 1 0.39786,2.41191a5.27704,5.741 0 0 1 -0.4572,2.48169a4.81957,5.2433 0 0 1 -1.17859,1.73364a4.89688,5.3274 0 0 1 -1.60163,1.02411a5.14942,5.60216 0 0 1 -1.72775,0.33899l-3.49478,0l0,-11.10231l0.00004,-0.00004z"
      fill="#ffffff" id="Fill-10" />
  </g>
  <g id="svg_2">
    <circle cx="18.00003" cy="17.50002" r="3.66146" fill="white" stroke="#596AEC" stroke-width="0.67708" id="svg_3" />
    <path
      d="m18.08613,16.02252c-0.0429,0 -0.0809,0.0276 -0.0941,0.0685l-0.6518,2.0132c-0.0074,0.0228 -0.0397,0.0228 -0.0471,0l-0.6523,-2.0133c-0.0132,-0.0408 -0.0512,-0.0684 -0.0941,-0.0684l-1.1097,0c-0.0683,0 -0.1161,0.0675 -0.0934,0.1319l0.1359,0.385c0.0139,0.0396 0.0514,0.066 0.0933,0.066l0.5252,0c0.0105,0 0.0198,0.0066 0.0233,0.0165l0.8552,2.4214c0.014,0.0396 0.0514,0.066 0.0934,0.066l0.4935,0c0.0419,0 0.0794,-0.0264 0.0933,-0.066l1.0202,-2.8889c0.0228,-0.0644 -0.025,-0.1319 -0.0933,-0.1319l-0.4975,0z"
      fill="#596AEC" id="svg_4" />
    <path
      d="m19.13233,19.14552c0.3566,0 0.5697,-0.1672 0.6674,-0.3581l0.0177,0l0,0.3122l0.5149,0l0,-1.5211c0,-0.6007 -0.4897,-0.7812 -0.9233,-0.7812c-0.4779,0 -0.8448,0.2131 -0.9632,0.6274l0.5001,0.071c0.0533,-0.1554 0.2042,-0.2886 0.4661,-0.2886c0.2486,0 0.3847,0.1273 0.3847,0.3507l0,0.0089c0,0.1539 -0.1613,0.1613 -0.5623,0.2042c-0.4409,0.0473 -0.8626,0.179 -0.8626,0.691c0,0.4468 0.327,0.6836 0.7605,0.6836zm0.1391,-0.3936c-0.2234,0 -0.3832,-0.1021 -0.3832,-0.2989c0,-0.2057 0.179,-0.2915 0.4187,-0.3255c0.1406,-0.0192 0.4217,-0.0548 0.4913,-0.111l0,0.2678c0,0.253 -0.2042,0.4676 -0.5268,0.4676z"
      fill="#596AEC" id="svg_5" />
  </g>
</svg>