<svg width="24" height="24" xmlns="http://www.w3.org/2000/svg" fill="none">
  <g>
    <title>Layer 2</title>
    <g stroke="null" id="svg_1">
      <circle stroke="null" id="svg_7" fill="#22996E" r="11.09376" cy="12.03126" cx="12.00001" />
      <path stroke="null" id="svg_8" fill="white"
        d="m12.00001,17.00061l-6.12264,0c-0.82924,0 -1.33051,-0.91413 -0.88293,-1.61006l3.48339,-5.41654c0.25717,-0.39987 0.70083,-0.6417 1.17728,-0.6417l4.68981,0c0.47645,0 0.92011,0.24183 1.17728,0.6417l3.48337,5.41654c0.44758,0.69594 -0.0537,1.61006 -0.8829,1.61006l-6.12265,0l-0.00001,0z" />
      <path stroke="null" id="svg_9" fill="white"
        d="m12.62574,4.5409l1.46297,2.2288c0.3043,0.46364 -0.0293,1.07886 -0.58504,1.07886l-2.98071,0c-0.56112,0 -0.89367,-0.62581 -0.57854,-1.08868l1.51772,-2.2288c0.28024,-0.41159 0.89031,-0.40645 1.16358,0.00982l0.00001,0z" />
    </g>
  </g>
  <g>
    <title>Layer 1</title>
    <g id="svg_2">
      <circle cx="18.00003" cy="17.50002" r="3.66146" fill="white" stroke="#596AEC" stroke-width="0.67708" id="svg_3" />
      <path
        d="m18.08613,16.02252c-0.0429,0 -0.0809,0.0276 -0.0941,0.0685l-0.6518,2.0132c-0.0074,0.0228 -0.0397,0.0228 -0.0471,0l-0.6523,-2.0133c-0.0132,-0.0408 -0.0512,-0.0684 -0.0941,-0.0684l-1.1097,0c-0.0683,0 -0.1161,0.0675 -0.0934,0.1319l0.1359,0.385c0.0139,0.0396 0.0514,0.066 0.0933,0.066l0.5252,0c0.0105,0 0.0198,0.0066 0.0233,0.0165l0.8552,2.4214c0.014,0.0396 0.0514,0.066 0.0934,0.066l0.4935,0c0.0419,0 0.0794,-0.0264 0.0933,-0.066l1.0202,-2.8889c0.0228,-0.0644 -0.025,-0.1319 -0.0933,-0.1319l-0.4975,0z"
        fill="#596AEC" id="svg_4" />
      <path
        d="m19.13233,19.14552c0.3566,0 0.5697,-0.1672 0.6674,-0.3581l0.0177,0l0,0.3122l0.5149,0l0,-1.5211c0,-0.6007 -0.4897,-0.7812 -0.9233,-0.7812c-0.4779,0 -0.8448,0.2131 -0.9632,0.6274l0.5001,0.071c0.0533,-0.1554 0.2042,-0.2886 0.4661,-0.2886c0.2486,0 0.3847,0.1273 0.3847,0.3507l0,0.0089c0,0.1539 -0.1613,0.1613 -0.5623,0.2042c-0.4409,0.0473 -0.8626,0.179 -0.8626,0.691c0,0.4468 0.327,0.6836 0.7605,0.6836zm0.1391,-0.3936c-0.2234,0 -0.3832,-0.1021 -0.3832,-0.2989c0,-0.2057 0.179,-0.2915 0.4187,-0.3255c0.1406,-0.0192 0.4217,-0.0548 0.4913,-0.111l0,0.2678c0,0.253 -0.2042,0.4676 -0.5268,0.4676z"
        fill="#596AEC" id="svg_5" />
    </g>
  </g>
</svg>