<svg width="41" height="41" xmlns="http://www.w3.org/2000/svg" fill="none">
 <defs>
  <clipPath id="clip0_427_57271">
   <rect fill="white" height="40" width="40" y="0.90663" x="0.63574" id="svg_1"/>
  </clipPath>
  <linearGradient id="paint0_linear_427_57271" x1="0" x2="1" y1="0" y2="1">
   <stop stop-color="#596AEC"/>
   <stop offset="1" stop-color="#60E2E9"/>
  </linearGradient>
 </defs>
 <g>
  <g clip-path="url(#clip0_427_57271)" id="svg_2">
   <path d="m20.6357,40.9066c11.0457,0 20,-8.9543 20,-20c0,-11.04566 -8.9543,-19.99997 -20,-19.99997c-11.04565,0 -19.99996,8.95431 -19.99996,19.99997c0,11.0457 8.95431,20 19.99996,20z" fill="url(#paint0_linear_427_57271)" id="svg_3"/>
   <path d="m21.2578,5.90663l0,11.08747l9.3713,4.1875l-9.3713,-15.27497z" fill="white" fill-opacity="0.602" id="svg_4"/>
   <path d="m21.2582,5.90663l-9.3725,15.27497l9.3725,-4.1875l0,-11.08747z" fill="white" id="svg_5"/>
   <path d="m21.2578,28.3669l0,7.5337l9.3775,-12.9738l-9.3775,5.4401z" fill="white" fill-opacity="0.602" id="svg_6"/>
   <path d="m21.2582,35.9006l0,-7.535l-9.3725,-5.4388l9.3725,12.9738z" fill="white" id="svg_7"/>
   <path d="m21.2578,26.623l9.3713,-5.4413l-9.3713,-4.185l0,9.6263z" fill="white" fill-opacity="0.2" id="svg_8"/>
   <path d="m11.8857,21.1817l9.3725,5.4413l0,-9.6263l-9.3725,4.185z" fill="white" fill-opacity="0.602" id="svg_9"/>
  </g>
  <g stroke="null" id="svg_12">
   <circle stroke="#596AEC" cx="33.32582" cy="34.05263" r="4.81935" fill="white" stroke-width="0.67708" id="svg_1"/>
   <path stroke="null" d="m33.43915,32.10789c-0.05647,0 -0.10648,0.03633 -0.12386,0.09016l-0.85792,2.64985c-0.00974,0.03001 -0.05225,0.03001 -0.06199,0l-0.85858,-2.64998c-0.01737,-0.0537 -0.06739,-0.09003 -0.12386,-0.09003l-1.46063,0c-0.0899,0 -0.15282,0.08885 -0.12294,0.17361l0.17888,0.50675c0.0183,0.05212 0.06765,0.08687 0.12281,0.08687l0.69129,0c0.01382,0 0.02606,0.00869 0.03067,0.02172l1.12565,3.18714c0.01843,0.05212 0.06765,0.08687 0.12294,0.08687l0.64956,0c0.05515,0 0.10451,-0.03475 0.12281,-0.08687l1.34283,-3.80248c0.03001,-0.08477 -0.03291,-0.17361 -0.12281,-0.17361l-0.65483,0z" fill="#596AEC" id="svg_10"/>
   <path stroke="null" d="m34.81619,36.2185c0.46937,0 0.74986,-0.22008 0.87846,-0.47134l0.0233,0l0,0.41093l0.67773,0l0,-2.00213c0,-0.79066 -0.64456,-1.02825 -1.21528,-1.02825c-0.62903,0 -1.11196,0.28049 -1.2678,0.82581l0.65825,0.09345c0.07016,-0.20454 0.26878,-0.37987 0.6135,-0.37987c0.32722,0 0.50636,0.16756 0.50636,0.4616l0,0.01171c0,0.20257 -0.21231,0.21231 -0.74012,0.26878c-0.58033,0.06226 -1.13539,0.23561 -1.13539,0.90952c0,0.5881 0.43041,0.89978 1.001,0.89978zm0.18309,-0.51807c-0.29405,0 -0.50438,-0.13439 -0.50438,-0.39342c0,-0.27075 0.23561,-0.38368 0.55111,-0.42844c0.18506,-0.02527 0.55506,-0.07213 0.64667,-0.1461l0,0.35249c0,0.33301 -0.26878,0.61547 -0.69339,0.61547z" fill="#596AEC" id="svg_11"/>
  </g>
 </g>
</svg>