<svg width="24" height="24" xmlns="http://www.w3.org/2000/svg" fill="none">
 <defs>
  <clipPath id="clip0_5160_347742">
   <rect fill="white" height="24" width="24" id="svg_1"/>
  </clipPath>
  <linearGradient id="paint0_linear_5160_338600" x1="0" x2="1" y1="0" y2="1">
   <stop stop-color="#596AEC"/>
   <stop offset="1" stop-color="#60E2E9"/>
  </linearGradient>
 </defs>
 <g>
  <path d="m12,24c2.3734,0 4.6935,-0.7038 6.6669,-2.0224c1.9734,-1.3185 3.5114,-3.1927 4.4197,-5.3854c0.9082,-2.1927 1.1459,-4.6055 0.6829,-6.93328c-0.4631,-2.32777 -1.6059,-4.46597 -3.2842,-6.1442c-1.6782,-1.67823 -3.8164,-2.82112 -6.1442,-3.28414c-2.3278,-0.46302 -4.74055,-0.22538 -6.93326,0.68287c-2.19272,0.90825 -4.06686,2.44632 -5.38544,4.41971c-1.31858,1.97339 -2.02236,4.29347 -2.02236,6.66684c-0.00389,1.577 0.30385,3.1391 0.90553,4.5968c0.60168,1.4577 1.48544,2.7821 2.60052,3.8971c1.11508,1.1151 2.43949,1.9989 3.89715,2.6006c1.45766,0.6016 3.01986,0.9094 4.59676,0.9055z" fill="url(#paint0_linear_5160_338600)" id="svg_3"/>
  <path d="m15.3005,13.9001c0,-1.7455 -1.0494,-2.3509 -3.1494,-2.6008c-1.5011,-0.1996 -1.8,-0.6 -1.8,-1.2992c0,-0.69931 0.4996,-1.15094 1.4989,-1.15094c0.9011,0 1.4007,0.3 1.6505,1.05054c0.0268,0.07231 0.0752,0.1346 0.1386,0.1785c0.0635,0.0439 0.1388,0.0673 0.216,0.067l0.7996,0c0.0463,0.0012 0.0924,-0.0071 0.1354,-0.0243c0.043,-0.0171 0.0821,-0.0429 0.1149,-0.0756c0.0327,-0.0328 0.0585,-0.07188 0.0757,-0.11491c0.0171,-0.04303 0.0254,-0.0891 0.0242,-0.13542l0,-0.04909c-0.0966,-0.54192 -0.3695,-1.03676 -0.7763,-1.40763c-0.4068,-0.37088 -0.9247,-0.59701 -1.4732,-0.64327l0,-1.2c0,-0.19964 -0.1505,-0.3491 -0.4003,-0.39928l-0.7506,0c-0.1996,0 -0.3491,0.14946 -0.3993,0.39928l0,1.15418c-1.50432,0.20509 -2.4545,1.2 -2.4545,2.45014c0,1.6506 1.00036,2.3008 3.1004,2.5506c1.3996,0.2498 1.8545,0.5454 1.8545,1.3494c0,0.804 -0.6993,1.3506 -1.6494,1.3506c-1.3004,0 -1.7455,-0.5455 -1.9004,-1.3004c-0.0143,-0.0843 -0.0577,-0.161 -0.1227,-0.2166c-0.06499,-0.0556 -0.14742,-0.0866 -0.23295,-0.0877l-0.85418,0c-0.04627,-0.0011 -0.09227,0.0073 -0.13523,0.0245c-0.04296,0.0172 -0.08198,0.043 -0.11471,0.0757c-0.03273,0.0327 -0.05848,0.0717 -0.07571,0.1147c-0.01723,0.043 -0.02557,0.089 -0.02453,0.1352l0,0.0502c0.20073,1.2502 1.00036,2.1502 2.65091,2.4l0,1.2c0,0.1997 0.1495,0.3502 0.3993,0.4004l0.7505,0c0.1997,0 0.3502,-0.1506 0.3993,-0.4004l0,-1.2c1.5,-0.2498 2.5004,-1.3003 2.5004,-2.6498l0.0043,0.0044z" fill="white" id="svg_4"/>
   <g id="svg_12">
   <circle id="svg_1" stroke-width="0.67708" stroke="#596AEC" fill="white" r="3.66146" cy="19" cx="19.74687"/>
   <path id="svg_10" fill="#596AEC" d="m19.83297,17.5225c-0.0429,0 -0.0809,0.0276 -0.0941,0.0685l-0.6518,2.0132c-0.0074,0.0228 -0.0397,0.0228 -0.0471,0l-0.6523,-2.0133c-0.0132,-0.0408 -0.0512,-0.0684 -0.0941,-0.0684l-1.1097,0c-0.0683,0 -0.1161,0.0675 -0.0934,0.1319l0.1359,0.385c0.0139,0.0396 0.0514,0.066 0.0933,0.066l0.5252,0c0.0105,0 0.0198,0.0066 0.0233,0.0165l0.8552,2.4214c0.014,0.0396 0.0514,0.066 0.0934,0.066l0.4935,0c0.0419,0 0.0794,-0.0264 0.0933,-0.066l1.0202,-2.8889c0.0228,-0.0644 -0.025,-0.1319 -0.0933,-0.1319l-0.4975,0z"/>
   <path id="svg_11" fill="#596AEC" d="m20.87917,20.6455c0.3566,0 0.5697,-0.1672 0.6674,-0.3581l0.0177,0l0,0.3122l0.5149,0l0,-1.5211c0,-0.6007 -0.4897,-0.7812 -0.9233,-0.7812c-0.4779,0 -0.8448,0.2131 -0.9632,0.6274l0.5001,0.071c0.0533,-0.1554 0.2042,-0.2886 0.4661,-0.2886c0.2486,0 0.3847,0.1273 0.3847,0.3507l0,0.0089c0,0.1539 -0.1613,0.1613 -0.5623,0.2042c-0.4409,0.0473 -0.8626,0.179 -0.8626,0.691c0,0.4468 0.327,0.6836 0.7605,0.6836zm0.1391,-0.3936c-0.2234,0 -0.3832,-0.1021 -0.3832,-0.2989c0,-0.2057 0.179,-0.2915 0.4187,-0.3255c0.1406,-0.0192 0.4217,-0.0548 0.4913,-0.111l0,0.2678c0,0.253 -0.2042,0.4676 -0.5268,0.4676z"/>
  </g>
 </g>
</svg>