<svg xmlns="http://www.w3.org/2000/svg" width="24" height="24">
  <g stroke="null" data-name="Layer 3">
    <rect width="23.875" height="23.875" rx="165" />
    <path fill="#f4f4f4"
      d="M4.936 16.12h13.568v2.076H4.936V16.12zm5.627-5.247c.012.353.06.973.888 1.18v-1.86l-.77-.209c-.826-.217-2.176-.584-2.176-2.236 0-1.143.803-2.383 2.942-2.443V4.213h.717v1.094c2.419.109 2.869 1.19 2.88 2.491h-2.212c.013-.85-.486-1.012-.668-1.033v1.737c1.264.279 1.896.425 2.467.899.462.39.705.985.705 1.605 0 .51-.17 1.555-1.41 2.163-.45.217-1.012.328-1.762.377v1.083h-.717v-1.082c-1.23-.048-3.063-.45-3.076-2.677l2.192.003h0zm.888-4.12c-.645.17-.693.595-.693.778 0 .362.279.68.693.778V6.753h0zm.717 5.323c.62-.097.899-.473.899-.887 0-.595-.547-.741-.705-.777l-.194-.061v1.725h0z"
      class="prefix__prefix__cls-1" />
  </g>
  <circle cx="18.125" cy="17.75" r="3.661" fill="#fff" stroke="#596AEC" stroke-width=".677" />
  <path fill="#596AEC"
    d="M18.211 16.273a.099.099 0 00-.094.068l-.652 2.013a.025.025 0 01-.047 0l-.652-2.013a.099.099 0 00-.094-.068h-1.11a.099.099 0 00-.093.131l.136.385c.013.04.05.066.093.066h.525c.01 0 .02.007.023.017l.856 2.421c.014.04.05.066.093.066h.493a.1.1 0 00.094-.066l1.02-2.889a.099.099 0 00-.093-.131h-.498zm1.046 3.123c.357 0 .57-.168.668-.359h.017v.313h.515v-1.521c0-.601-.49-.782-.923-.782-.478 0-.845.213-.963.628l.5.07c.053-.155.204-.288.466-.288.249 0 .385.127.385.35v.01c0 .154-.162.161-.563.204-.44.047-.862.179-.862.69 0 .448.327.685.76.685zm.14-.394c-.224 0-.384-.102-.384-.299 0-.206.18-.291.419-.325.14-.02.422-.055.491-.111v.267c0 .253-.204.468-.527.468h.001z" />
</svg>