<?xml version="1.0" encoding="UTF-8"?>
<svg xmlns="http://www.w3.org/2000/svg" xmlns:xlink="http://www.w3.org/1999/xlink" width="24px" height="24px" viewBox="0 0 24 24" version="1.1">
<g id="surface1">
<path style=" stroke:none;fill-rule:nonzero;fill:rgb(100%,1.568627%,12.54902%);fill-opacity:1;" d="M 24 12 C 24 18.628906 18.628906 24 12 24 C 5.371094 24 0 18.628906 0 12 C 0 5.371094 5.371094 0 12 0 C 18.628906 0 24 5.371094 24 12 Z M 24 12 "/>
<path style=" stroke:none;fill-rule:nonzero;fill:rgb(100%,100%,100%);fill-opacity:1;" d="M 8.5 15.1875 C 7.785156 15.1875 7.199219 15.019531 6.742188 14.683594 C 6.292969 14.34375 6.066406 13.851562 6.066406 13.222656 C 6.066406 13.089844 6.082031 12.929688 6.109375 12.738281 C 6.1875 12.308594 6.296875 11.789062 6.441406 11.179688 C 6.847656 9.527344 7.90625 8.703125 9.605469 8.703125 C 10.066406 8.703125 10.484375 8.777344 10.847656 8.9375 C 11.210938 9.085938 11.5 9.316406 11.710938 9.625 C 11.921875 9.925781 12.027344 10.285156 12.027344 10.703125 C 12.027344 10.828125 12.015625 10.988281 11.984375 11.179688 C 11.894531 11.710938 11.789062 12.234375 11.660156 12.738281 C 11.449219 13.558594 11.089844 14.179688 10.570312 14.585938 C 10.054688 14.992188 9.363281 15.1875 8.5 15.1875 Z M 8.628906 13.890625 C 8.964844 13.890625 9.25 13.789062 9.484375 13.59375 C 9.726562 13.398438 9.898438 13.09375 10 12.679688 C 10.136719 12.113281 10.242188 11.625 10.316406 11.203125 C 10.339844 11.078125 10.355469 10.949219 10.355469 10.8125 C 10.355469 10.265625 10.070312 9.992188 9.5 9.992188 C 9.164062 9.992188 8.875 10.09375 8.636719 10.292969 C 8.398438 10.488281 8.230469 10.789062 8.132812 11.203125 C 8.019531 11.605469 7.914062 12.097656 7.804688 12.679688 C 7.78125 12.800781 7.765625 12.925781 7.765625 13.0625 C 7.761719 13.617188 8.054688 13.890625 8.628906 13.890625 Z M 8.628906 13.890625 "/>
<path style=" stroke:none;fill-rule:nonzero;fill:rgb(100%,100%,100%);fill-opacity:1;" d="M 12.445312 15.101562 C 12.378906 15.101562 12.332031 15.082031 12.292969 15.039062 C 12.265625 14.992188 12.253906 14.9375 12.265625 14.875 L 13.507812 9.019531 C 13.515625 8.953125 13.550781 8.898438 13.609375 8.855469 C 13.660156 8.8125 13.71875 8.792969 13.78125 8.792969 L 16.175781 8.792969 C 16.84375 8.792969 17.375 8.933594 17.777344 9.207031 C 18.1875 9.484375 18.394531 9.882812 18.394531 10.40625 C 18.394531 10.554688 18.375 10.714844 18.339844 10.875 C 18.191406 11.566406 17.890625 12.078125 17.429688 12.40625 C 16.976562 12.738281 16.359375 12.902344 15.570312 12.902344 L 14.355469 12.902344 L 13.945312 14.875 C 13.929688 14.941406 13.902344 14.996094 13.84375 15.039062 C 13.789062 15.082031 13.734375 15.101562 13.671875 15.101562 Z M 15.632812 11.660156 C 15.886719 11.660156 16.105469 11.59375 16.292969 11.453125 C 16.484375 11.3125 16.609375 11.117188 16.671875 10.859375 C 16.691406 10.757812 16.699219 10.664062 16.699219 10.589844 C 16.699219 10.414062 16.644531 10.28125 16.546875 10.191406 C 16.445312 10.09375 16.265625 10.046875 16.023438 10.046875 L 14.941406 10.046875 L 14.601562 11.660156 Z M 15.632812 11.660156 "/>
<g id="svg_12">
  <circle id="svg_1" stroke-width="0.67708" stroke="#596AEC" fill="white" r="3.66146" cy="19" cx="19.74687"/>
  <path id="svg_10" fill="#596AEC" d="m19.83297,17.5225c-0.0429,0 -0.0809,0.0276 -0.0941,0.0685l-0.6518,2.0132c-0.0074,0.0228 -0.0397,0.0228 -0.0471,0l-0.6523,-2.0133c-0.0132,-0.0408 -0.0512,-0.0684 -0.0941,-0.0684l-1.1097,0c-0.0683,0 -0.1161,0.0675 -0.0934,0.1319l0.1359,0.385c0.0139,0.0396 0.0514,0.066 0.0933,0.066l0.5252,0c0.0105,0 0.0198,0.0066 0.0233,0.0165l0.8552,2.4214c0.014,0.0396 0.0514,0.066 0.0934,0.066l0.4935,0c0.0419,0 0.0794,-0.0264 0.0933,-0.066l1.0202,-2.8889c0.0228,-0.0644 -0.025,-0.1319 -0.0933,-0.1319l-0.4975,0z"/>
  <path id="svg_11" fill="#596AEC" d="m20.87917,20.6455c0.3566,0 0.5697,-0.1672 0.6674,-0.3581l0.0177,0l0,0.3122l0.5149,0l0,-1.5211c0,-0.6007 -0.4897,-0.7812 -0.9233,-0.7812c-0.4779,0 -0.8448,0.2131 -0.9632,0.6274l0.5001,0.071c0.0533,-0.1554 0.2042,-0.2886 0.4661,-0.2886c0.2486,0 0.3847,0.1273 0.3847,0.3507l0,0.0089c0,0.1539 -0.1613,0.1613 -0.5623,0.2042c-0.4409,0.0473 -0.8626,0.179 -0.8626,0.691c0,0.4468 0.327,0.6836 0.7605,0.6836zm0.1391,-0.3936c-0.2234,0 -0.3832,-0.1021 -0.3832,-0.2989c0,-0.2057 0.179,-0.2915 0.4187,-0.3255c0.1406,-0.0192 0.4217,-0.0548 0.4913,-0.111l0,0.2678c0,0.253 -0.2042,0.4676 -0.5268,0.4676z"/>
</g>
</g>
</svg>
