<svg width="24" height="24" viewBox="0 0 24 24" fill="none" xmlns="http://www.w3.org/2000/svg">
<path d="M12 24C18.6274 24 24 18.6274 24 12C24 5.37258 18.6274 0 12 0C5.37258 0 0 5.37258 0 12C0 18.6274 5.37258 24 12 24Z" fill="white"/>
<path d="M14.7948 18.4168L14.7012 18.291L14.7948 18.4168C14.8923 18.5364 14.999 18.6482 15.1138 18.7513C14.999 18.6482 14.8923 18.5364 14.7948 18.4168Z" fill="url(#paint0_linear_5379_349471)"/>
<path d="M15.2305 18.8516C15.2514 18.8687 15.273 18.8859 15.2952 18.903C15.273 18.8859 15.2514 18.8687 15.2305 18.8516Z" fill="url(#paint1_linear_5379_349471)"/>
<path d="M12.0187 16.571C12.0133 16.571 12.0084 16.571 12.0031 16.571C11.3591 16.5708 10.7225 16.4348 10.1347 16.1719C9.54683 15.909 9.02105 15.5251 8.59163 15.0453C6.91163 13.1654 7.07534 10.2698 8.95505 8.59052C9.79185 7.84176 10.8754 7.42788 11.9983 7.42807C12.6422 7.42822 13.2789 7.56419 13.8667 7.82708C14.4545 8.08998 14.9803 8.4739 15.4097 8.95378C16.5392 10.2181 16.8339 11.9418 16.3354 13.4461L18.3898 16.2061C20.2541 13.3792 20.0671 9.54761 17.7041 6.90333C16.1933 5.21219 14.1003 4.35042 11.9981 4.35059C10.1185 4.34886 8.30456 5.04189 6.90494 6.29647C3.75511 9.11064 3.4834 13.9454 6.29706 17.0954C7.80786 18.7866 9.90083 19.6487 12.0034 19.6487C12.7186 19.6483 13.4302 19.5478 14.1175 19.35C14.0383 19.266 12.0187 16.571 12.0187 16.571Z" fill="black"/>
<path d="M19.5457 19.6326L16.9169 16.0999L15.5002 14.1971L15.4066 14.0711C15.3829 14.0419 15.3533 14.0074 15.3209 13.9711C15.2474 13.8888 15.1696 13.8106 15.0877 13.7368C15.0514 13.7038 15.0125 13.6704 14.9712 13.6363C14.9502 13.6192 14.9286 13.602 14.9064 13.5849C14.8841 13.5677 14.8618 13.5506 14.8395 13.5334C14.7932 13.4992 14.7443 13.4649 14.6928 13.4306C14.229 13.122 13.5565 12.8398 12.6528 12.8398H10.6553L10.6625 12.8496L10.6553 12.8551L13.2843 16.3881L14.7008 18.292L14.7944 18.4178C14.8179 18.447 14.8477 18.4814 14.8801 18.5179C14.9536 18.6001 15.0314 18.6784 15.1133 18.7523C15.1496 18.785 15.1885 18.8186 15.2298 18.8526C15.2508 18.8697 15.2724 18.8868 15.2946 18.904C15.3169 18.9211 15.3392 18.9383 15.3613 18.9554C15.4078 18.9897 15.4568 19.024 15.5082 19.0583C15.9711 19.3658 16.6443 19.6488 17.5482 19.6488H19.5457L19.5385 19.6391L19.5457 19.6326Z" fill="#00B2EC"/>
<circle cx="20" cy="20" r="3.66146" fill="white" stroke="#596AEC" stroke-width="0.677083"/>
<path d="M20.0861 18.5225C20.0432 18.5225 20.0052 18.5501 19.992 18.591L19.3402 20.6042C19.3328 20.627 19.3005 20.627 19.2931 20.6042L18.6408 18.5909C18.6276 18.5501 18.5896 18.5225 18.5467 18.5225H17.437C17.3687 18.5225 17.3209 18.59 17.3436 18.6544L17.4795 19.0394C17.4934 19.079 17.5309 19.1054 17.5728 19.1054H18.098C18.1085 19.1054 18.1178 19.112 18.1213 19.1219L18.9765 21.5433C18.9905 21.5829 19.0279 21.6093 19.0699 21.6093H19.5634C19.6053 21.6093 19.6428 21.5829 19.6567 21.5433L20.6769 18.6544C20.6997 18.59 20.6519 18.5225 20.5836 18.5225H20.0861Z" fill="#596AEC"/>
<path d="M21.1323 21.6455C20.9883 21.6455 20.8586 21.6198 20.7432 21.5685C20.6288 21.5163 20.538 21.4393 20.4709 21.3377C20.4048 21.2361 20.3718 21.1108 20.3718 20.9619C20.3718 20.8336 20.3955 20.7276 20.4428 20.6438C20.4902 20.5599 20.5548 20.4928 20.6367 20.4425C20.7185 20.3922 20.8108 20.3542 20.9134 20.3286C21.0169 20.302 21.124 20.2827 21.2344 20.2709C21.3676 20.2571 21.4756 20.2448 21.5585 20.2339C21.6413 20.2221 21.7015 20.2043 21.739 20.1806C21.7775 20.156 21.7967 20.118 21.7967 20.0667V20.0578C21.7967 19.9464 21.7637 19.86 21.6976 19.7989C21.6315 19.7377 21.5363 19.7071 21.412 19.7071C21.2808 19.7071 21.1767 19.7358 21.0998 19.793C21.0238 19.8502 20.9725 19.9178 20.9459 19.9957L20.4458 19.9247C20.4852 19.7866 20.5503 19.6711 20.6411 19.5784C20.7318 19.4847 20.8428 19.4147 20.974 19.3683C21.1052 19.321 21.2502 19.2973 21.409 19.2973C21.5185 19.2973 21.6275 19.3101 21.736 19.3358C21.8445 19.3614 21.9437 19.4038 22.0334 19.463C22.1232 19.5212 22.1952 19.6006 22.2495 19.7012C22.3047 19.8018 22.3323 19.9276 22.3323 20.0785V21.5996H21.8174V21.2874H21.7997C21.7671 21.3505 21.7212 21.4097 21.6621 21.465C21.6039 21.5192 21.5304 21.5631 21.4416 21.5967C21.3538 21.6292 21.2507 21.6455 21.1323 21.6455ZM21.2714 21.2519C21.3789 21.2519 21.4722 21.2307 21.5511 21.1883C21.63 21.1449 21.6907 21.0877 21.7331 21.0166C21.7765 20.9456 21.7982 20.8682 21.7982 20.7843V20.5165C21.7814 20.5303 21.7528 20.5431 21.7124 20.555C21.6729 20.5668 21.6285 20.5772 21.5792 20.5861C21.5299 20.5949 21.481 20.6028 21.4327 20.6097C21.3844 20.6166 21.3424 20.6226 21.3069 20.6275C21.227 20.6383 21.1555 20.6561 21.0924 20.6808C21.0293 20.7054 20.9794 20.7399 20.9429 20.7843C20.9064 20.8277 20.8882 20.884 20.8882 20.953C20.8882 21.0516 20.9242 21.1261 20.9962 21.1764C21.0682 21.2267 21.16 21.2519 21.2714 21.2519Z" fill="#596AEC"/>
<defs>
<linearGradient id="paint0_linear_5379_349471" x1="10.827" y1="22.1664" x2="22.2337" y2="11.9754" gradientUnits="userSpaceOnUse">
<stop offset="0.35" stop-color="#00B2EC"/>
<stop offset="0.43" stop-color="#2EC0EF"/>
<stop offset="0.55" stop-color="#6DD3F4"/>
<stop offset="0.66" stop-color="#A1E3F8"/>
<stop offset="0.77" stop-color="#CAEFFB"/>
<stop offset="0.86" stop-color="#E7F8FD"/>
<stop offset="0.94" stop-color="#F9FDFF"/>
<stop offset="1" stop-color="white"/>
</linearGradient>
<linearGradient id="paint1_linear_5379_349471" x1="11.1643" y1="22.5414" x2="22.5712" y2="12.3571" gradientUnits="userSpaceOnUse">
<stop offset="0.35" stop-color="#00B2EC"/>
<stop offset="0.43" stop-color="#2EC0EF"/>
<stop offset="0.55" stop-color="#6DD3F4"/>
<stop offset="0.66" stop-color="#A1E3F8"/>
<stop offset="0.77" stop-color="#CAEFFB"/>
<stop offset="0.86" stop-color="#E7F8FD"/>
<stop offset="0.94" stop-color="#F9FDFF"/>
<stop offset="1" stop-color="white"/>
</linearGradient>
</defs>
</svg>
