<svg width="25" height="24" viewBox="0 0 25 24" fill="none" xmlns="http://www.w3.org/2000/svg">
<path d="M12 0C18.628 0 24 5.37305 24 12C24 18.628 18.628 24 12 24C5.37305 24 0 18.6275 0 12C0 5.37305 5.37305 0 12 0Z" fill="#F5AC37"/>
<path d="M12.4383 12.8474H16.9981C17.0953 12.8474 17.1412 12.8474 17.1482 12.7199C17.1855 12.2561 17.1855 11.7895 17.1482 11.3251C17.1482 11.2349 17.1034 11.1977 17.0057 11.1977H7.93087C7.81854 11.1977 7.7883 11.2349 7.7883 11.3402V12.6751C7.7883 12.8474 7.7883 12.8474 7.96813 12.8474H12.4383V12.8474ZM16.639 9.63758C16.652 9.60356 16.652 9.56629 16.639 9.53281C16.5629 9.36703 16.4727 9.20881 16.3679 9.06031C16.2102 8.80651 16.0245 8.57268 15.8128 8.36262C15.7129 8.23572 15.5973 8.12178 15.4677 8.02512C14.8186 7.47269 14.047 7.08173 13.2175 6.88517C12.799 6.79121 12.3713 6.74639 11.9426 6.75017H7.9152C7.80288 6.75017 7.78776 6.79499 7.78776 6.89273V9.55495C7.78776 9.66728 7.78776 9.69752 7.93033 9.69752H16.585C16.585 9.69752 16.6601 9.6824 16.6752 9.63758H16.6385H16.639ZM16.639 14.4074C16.5116 14.3934 16.383 14.3934 16.2556 14.4074H7.93843C7.8261 14.4074 7.7883 14.4074 7.7883 14.5576V17.1604C7.7883 17.2803 7.7883 17.3105 7.93843 17.3105H11.7784C11.962 17.3246 12.1456 17.3116 12.3254 17.2733C12.8827 17.2333 13.4308 17.1123 13.9535 16.9131C14.1436 16.8472 14.3272 16.7613 14.5006 16.6582H14.553C15.4531 16.19 16.1843 15.4545 16.6455 14.5516C16.6455 14.5516 16.6979 14.4382 16.639 14.4085V14.4074ZM6.28115 18.66V18.6152V16.8677V16.2753V14.5127C6.28115 14.415 6.28115 14.4004 6.16127 14.4004H4.53369C4.44351 14.4004 4.40625 14.4004 4.40625 14.2805V12.8555H6.14615C6.24335 12.8555 6.28115 12.8555 6.28115 12.728V11.3181C6.28115 11.2279 6.28115 11.2058 6.16127 11.2058H4.53369C4.44351 11.2058 4.40625 11.2058 4.40625 11.0859V9.7661C4.40625 9.68348 4.40625 9.66134 4.52613 9.66134H6.13859C6.25091 9.66134 6.28115 9.66134 6.28115 9.51877V5.47629C6.28115 5.35641 6.28115 5.32617 6.43127 5.32617H12.056C12.4642 5.34237 12.8698 5.38719 13.271 5.46117C14.0977 5.61399 14.8921 5.90938 15.6184 6.33112C16.1001 6.61462 16.5434 6.95699 16.9382 7.35119C17.2352 7.65954 17.503 7.99326 17.7406 8.34858C17.9766 8.70877 18.1726 9.09379 18.3265 9.49609C18.3454 9.60086 18.4459 9.6716 18.5506 9.65378H19.8931C20.0653 9.65378 20.0653 9.65378 20.0729 9.81902V11.0491C20.0729 11.169 20.0281 11.1993 19.9076 11.1993H18.8725C18.7677 11.1993 18.7375 11.1993 18.745 11.3343C18.7861 11.7911 18.7861 12.2496 18.745 12.7064C18.745 12.8339 18.745 12.849 18.8881 12.849H20.0723C20.1247 12.9165 20.0723 12.984 20.0723 13.052C20.0799 13.139 20.0799 13.227 20.0723 13.3139V14.2217C20.0723 14.3491 20.0351 14.3869 19.9222 14.3869H18.5047C18.4059 14.368 18.3098 14.4312 18.2871 14.5295C17.9496 15.407 17.4096 16.1938 16.7119 16.8245C16.457 17.054 16.1892 17.27 15.9094 17.4693C15.6092 17.6421 15.3171 17.8219 15.0093 17.9645C14.4428 18.2193 13.8488 18.4073 13.2391 18.5266C12.6602 18.6303 12.0732 18.6773 11.4841 18.6692H6.27899V18.6616L6.28115 18.66Z" fill="#FEFEFD"/>
<circle cx="21" cy="19" r="3.66146" fill="white" stroke="#596AEC" stroke-width="0.677083"/>
<path d="M21.9931 17.4004C21.9432 17.4004 21.899 17.4325 21.8837 17.48L21.1263 19.8192C21.1177 19.8457 21.0802 19.8457 21.0716 19.8192L20.3137 17.48C20.2984 17.4325 20.2542 17.4004 20.2043 17.4004H18.9149C18.8356 17.4004 18.78 17.4788 18.8065 17.5537L18.9643 18.001C18.9806 18.047 19.024 18.0778 19.0728 18.0778H19.683C19.6952 18.0778 19.7061 18.0855 19.7101 18.0969L20.7038 20.9104C20.7201 20.9564 20.7635 20.9871 20.8123 20.9871H21.3857C21.4344 20.9871 21.4779 20.9564 21.4941 20.9104L22.6795 17.5537C22.706 17.4789 22.6504 17.4004 22.5711 17.4004H21.9931Z" fill="#596AEC"/>
</svg>
