<svg
  xmlns="http://www.w3.org/2000/svg"
  width="73"
  height="79"
  viewbox="0 0 73 79"
>
  <g id="Group_5242" data-name="Group 5242" transform="translate(-1269 -464)">
    <g id="Group_4662" data-name="Group 4662" transform="translate(1269 464)">
      <g id="Group_68" data-name="Group 68" transform="translate(0)">
        <g id="Group_64" data-name="Group 64">
          <circle
            id="Ellipse_58"
            data-name="Ellipse 58"
            cx="36.5"
            cy="36.5"
            r="36.5"
            fill="#fff"
          />
          <path
            id="Path_27"
            data-name="Path 27"
            d="M104.362,221.656a34.219,34.219,0,1,1-34.218,34.218,34.258,34.258,0,0,1,34.218-34.218m0-2.281a36.5,36.5,0,1,0,36.5,36.5,36.5,36.5,0,0,0-36.5-36.5Z"
            transform="translate(-67.863 -219.375)"
            fill="#0d124d"
          />
        </g>
      </g>
    </g>
    <path
      id="Path_10539"
      data-name="Path 10539"
      d="M866.8,430.234H862.83a16.148,16.148,0,0,0-15.14-10.533H833.482v10.533h-4.519v3.844h4.519v3.811h-4.519v3.844h4.519v10.253h14.208a16.148,16.148,0,0,0,15.034-10.253H866.8v-3.844h-3.1a16.3,16.3,0,0,0,.129-2.045h0a16.307,16.307,0,0,0-.1-1.765H866.8Zm-29.541-7.1h10.016a12.713,12.713,0,0,1,11.411,7.1H837.259Zm10.016,25.427H837.259v-6.824h21.284A12.711,12.711,0,0,1,847.274,448.557Zm12.713-12.713h0a12.793,12.793,0,0,1-.165,2.045H837.259v-3.811h22.606A12.854,12.854,0,0,1,859.987,435.843Z"
      transform="translate(459.037 65.042)"
      fill="#0d124d"
    />
  </g>
</svg>
