<svg width="26" height="24" viewBox="0 0 26 24" fill="none" xmlns="http://www.w3.org/2000/svg">
<path d="M9 15C12.3137 15 15 12.3137 15 9C15 5.68629 12.3137 3 9 3C5.68629 3 3 5.68629 3 9C3 12.3137 5.68629 15 9 15Z" fill="#F4B731"/>
<path fill-rule="evenodd" clip-rule="evenodd" d="M6.47888 6L8.93588 6C10.4303 6 11.5631 6.7935 11.9846 7.94775H12.75V8.64563L12.1459 8.64563C12.1575 8.75588 12.1635 8.86838 12.1635 8.98238V8.99962C12.1635 9.12787 12.156 9.25463 12.141 9.37838L12.75 9.37838V10.0759H11.97C11.5376 11.2144 10.4137 12 8.93625 12H6.47888V10.0759H5.625V9.37838H6.47888L6.47888 8.64563H5.625V7.94812H6.47888V6V6ZM7.1655 10.0759V11.3741H8.9355C10.0283 11.3741 10.8398 10.854 11.2174 10.0759H7.1655V10.0759ZM11.4278 9.37838H7.1655V8.64563H11.4293C11.4446 8.76075 11.4529 8.87887 11.4529 8.99962V9.0165C11.4529 9.13988 11.4443 9.26025 11.4278 9.378V9.37838ZM8.93625 6.62437C10.0335 6.62437 10.8476 7.15837 11.223 7.94737L7.1655 7.94737V6.62475L8.9355 6.62475L8.93625 6.62437Z" fill="white"/>
<mask id="mask0_4062_267290" style="mask-type:alpha" maskUnits="userSpaceOnUse" x="8" y="7" width="14" height="14">
<circle cx="15" cy="14" r="7" fill="#C4C4C4"/>
</mask>
<g mask="url(#mask0_4062_267290)">
<path fill-rule="evenodd" clip-rule="evenodd" d="M15.9342 11.0117C15.902 11.0338 15.8851 11.0545 15.891 11.0647C15.8964 11.0739 15.9196 11.1091 15.9425 11.143L15.9842 11.2046L16.0083 11.157C16.0519 11.071 16.0533 11.0518 16.019 11.0124L15.987 10.9756L15.9342 11.0117ZM13.0953 12.107C12.9972 12.1947 12.9911 13.272 13.0879 13.4198C13.1037 13.4438 13.11 13.4878 13.11 13.5729V13.6924H13.691H14.272V13.5856C14.272 13.4935 14.2782 13.4663 14.3175 13.3865L14.363 13.2941L14.3676 12.8458C14.3733 12.2932 14.3606 12.1642 14.2949 12.1075L14.251 12.0696L13.6947 12.069L13.1385 12.0684L13.0953 12.107ZM16.3568 12.1078C16.2597 12.17 16.246 12.2572 16.246 12.8122C16.246 13.2827 16.2506 13.3154 16.3306 13.4151C16.3688 13.4628 16.372 13.4756 16.372 13.5796V13.6924H17.044H17.716V13.5746C17.716 13.5072 17.7221 13.4547 17.7302 13.452C17.8314 13.4183 17.8571 12.2034 17.7587 12.1049C17.7297 12.0759 17.7187 12.0754 17.0751 12.0711L16.421 12.0667L16.3568 12.1078ZM15.2639 12.7654C15.2048 12.8094 15.2017 12.823 15.1836 13.1184C15.1754 13.2527 15.1633 13.3316 15.142 13.3909C15.1209 13.4497 15.112 13.5073 15.112 13.5854C15.112 13.6743 15.1071 13.7002 15.0875 13.7157C15.0449 13.7493 14.956 13.7925 14.8872 13.813C14.7819 13.8443 14.7593 13.8707 14.7257 14.0025L14.6959 14.1194L14.58 14.1235C14.4745 14.1273 14.4615 14.1309 14.4357 14.1638C14.3587 14.2616 14.3262 14.2661 13.697 14.2663L13.129 14.2664L13.053 14.2279C12.9687 14.1852 12.9533 14.1616 12.8927 13.9835C12.8419 13.8337 12.8129 13.8167 12.5862 13.8033C12.3868 13.7915 12.4218 13.8011 12.354 13.7398L12.298 13.6892V13.5628C12.298 13.2628 12.0397 13.0217 11.9752 13.2614C11.9442 13.3765 11.9648 13.939 12.0034 14.0334C12.0391 14.1205 12.0429 14.1233 12.179 14.1631C12.2356 14.1796 12.2794 14.2039 12.3133 14.2375L12.3637 14.2874L12.3728 14.5114C12.3876 14.8748 12.3814 19.1344 12.366 19.2294C12.3584 19.2756 12.3489 19.3748 12.3448 19.4498C12.3341 19.6464 12.2289 19.7207 11.976 19.7103C11.8053 19.7033 10.1052 19.7089 8.9695 19.7202L8 19.7298V20.3651V21.0004H14.86H21.72V20.9457C21.72 20.9156 21.7291 20.8432 21.7403 20.7849C21.7854 20.5492 21.771 19.8345 21.7199 19.7717L21.694 19.7398L21.0945 19.7329C18.4103 19.7018 14.7514 19.6864 14.4165 19.7049C14.1132 19.7217 14.0322 19.6757 14.0182 19.4788C14.0133 19.4109 13.9966 19.3135 13.9809 19.2623C13.9334 19.1064 13.9217 18.5563 13.9626 18.3985C14.0018 18.2473 14.0775 18.1418 14.181 18.0943C14.197 18.087 14.736 18.0784 15.434 18.0744L16.659 18.0674L16.736 17.9179C16.8397 17.7166 16.8716 17.686 17.0265 17.6398L17.086 17.622L17.086 17.5087C17.0861 17.4147 17.0934 17.3776 17.1288 17.2907L17.1715 17.186L17.164 15.8977C17.16 15.1891 17.1529 14.5447 17.1484 14.4656C17.1371 14.2693 17.1627 14.2808 16.7275 14.2757C16.2214 14.2698 16.15 14.2385 16.0999 14.0004C16.0694 13.8554 16.0564 13.8397 15.9385 13.8046C15.8873 13.7893 15.8159 13.7573 15.7797 13.7333L15.714 13.6898L15.7135 13.5686C15.7132 13.502 15.704 13.4065 15.693 13.3564C15.682 13.3064 15.6726 13.2056 15.672 13.1324C15.6695 12.777 15.6406 12.7261 15.4419 12.727C15.3262 12.7274 15.3105 12.7308 15.2639 12.7654ZM16.0742 14.8287C16.193 14.8881 16.2237 14.9474 16.2036 15.0788C16.1618 15.3521 16.1236 15.3724 15.6519 15.3724C15.2689 15.3724 15.2152 15.3615 15.1169 15.2632C15.028 15.1743 15.0144 14.9637 15.0931 14.8946C15.1951 14.805 15.2877 14.7872 15.658 14.7861L15.987 14.7852L16.0742 14.8287ZM16.0822 16.5799C16.2508 16.693 16.2462 16.9609 16.0732 17.1001L16.0194 17.1434L15.4539 17.1474C14.8242 17.1518 14.7956 17.148 14.7136 17.0506C14.6816 17.0125 14.6739 17.0104 14.5674 17.0104C14.4331 17.0104 14.429 17.006 14.4126 16.8445C14.3956 16.677 14.4197 16.6464 14.5681 16.6464C14.6653 16.6464 14.6858 16.6419 14.725 16.612C14.8257 16.5352 14.8223 16.5356 15.4407 16.535L16.0144 16.5344L16.0822 16.5799Z" fill="#E51A87"/>
<path fill-rule="evenodd" clip-rule="evenodd" d="M8 13.125V19.25H9.84233H11.6846L11.8665 19.2865L12.0482 19.3231L12.0904 19.283C12.1135 19.261 12.1493 19.2147 12.1698 19.18L12.207 19.117L12.2064 16.912C12.2061 15.6539 12.2001 14.6231 12.1924 14.5115L12.179 14.316L12.06 14.2697C11.8206 14.1766 11.794 14.1088 11.794 13.5909C11.794 13.156 11.8201 13.0885 12.0079 13.0366C12.112 13.0079 12.3452 13.0966 12.3628 13.1717C12.3677 13.1922 12.3969 13.2641 12.4278 13.3315L12.4841 13.454H12.5996H12.7151L12.7603 13.4025C12.8513 13.2989 12.8503 13.3059 12.858 12.6962L12.865 12.1413L12.9206 12.0606C12.9581 12.0063 12.9923 11.9737 13.0256 11.9605C13.0528 11.9499 13.0917 11.9319 13.1122 11.9205C13.178 11.8841 14.2228 11.8908 14.279 11.928C14.3021 11.9433 14.3324 11.9559 14.3464 11.9559C14.3604 11.956 14.3925 11.9718 14.4177 11.991C14.458 12.0217 14.4777 12.026 14.5772 12.026H14.6907L14.7215 12.0925C14.751 12.1564 14.7526 12.181 14.7606 12.719L14.769 13.279L14.8098 13.3527C14.9157 13.5438 15.0015 13.4034 15.0143 13.018C15.0239 12.7307 15.0411 12.6938 15.1994 12.6219L15.2939 12.579L15.2939 12.4708C15.294 12.3436 15.2933 12.3441 15.4622 12.3508L15.567 12.355L15.5713 12.467L15.5756 12.579L15.6333 12.6058C15.7805 12.6743 15.8396 12.7827 15.8402 12.985C15.8408 13.202 15.8604 13.2957 15.9241 13.3868C15.9775 13.463 15.9801 13.4719 15.9827 13.5828L15.9853 13.699L15.9933 13.58C15.9995 13.4864 16.0102 13.443 16.0431 13.377L16.085 13.293L16.0927 12.7187L16.1004 12.1444L16.1347 12.0829C16.2215 11.9275 16.2584 11.921 17.058 11.921C17.8334 11.921 17.8217 11.9187 17.9084 12.0889L17.944 12.1588L17.937 12.9209L17.93 13.6829L17.8803 13.7284C17.8004 13.8017 17.778 13.8038 17.065 13.8042C16.2218 13.8047 16.2002 13.8107 16.3225 14.0069C16.409 14.1457 16.3899 14.14 16.7639 14.1392L17.0878 14.1384L17.1505 14.1751C17.2756 14.2485 17.296 14.2967 17.296 14.5201V14.714H17.415H17.534V15.96V17.206H17.417H17.3L17.291 17.2921C17.2861 17.3394 17.282 17.431 17.282 17.4956C17.282 17.6615 17.204 17.794 17.1062 17.794C17.0696 17.794 16.8736 18.0141 16.8546 18.0765C16.8381 18.1308 16.7793 18.1988 16.7247 18.2266C16.6754 18.2518 16.6137 18.2533 15.4496 18.2592L14.2263 18.2653L14.1722 18.3552L14.1181 18.445L14.118 18.7958L14.118 19.1466L14.1679 19.2298C14.2338 19.3395 14.2225 19.3342 14.342 19.3125C14.3997 19.302 14.4986 19.2932 14.5616 19.2927C14.6246 19.2923 14.7194 19.2829 14.7722 19.2718C14.8539 19.2546 15.3732 19.251 18.2766 19.2473L21.685 19.243L21.7513 19.2769C21.859 19.3319 21.8721 19.3532 21.8768 19.4812L21.881 19.593L21.9405 19.5973L22 19.6016V13.3008V7L15 7L8 7L8 13.125ZM16.0255 8.41638C16.0456 8.4267 16.05 8.44816 16.05 8.53482C16.05 8.61672 16.0561 8.6492 16.0768 8.67839C16.0916 8.69914 16.1261 8.76309 16.1534 8.82056C16.1989 8.91618 16.2111 8.93001 16.2973 8.9845L16.3915 9.044H16.5329H16.6743L16.7243 8.9775C16.7518 8.94093 16.7941 8.869 16.8183 8.81769C16.853 8.74401 16.8755 8.71601 16.9251 8.68469L16.988 8.645V8.53822C16.988 8.43185 16.9882 8.43133 17.0316 8.4133C17.1032 8.38369 17.1203 8.4056 17.1251 8.53321C17.1282 8.61406 17.1363 8.65235 17.1564 8.68063C17.2328 8.78791 17.242 8.83543 17.2563 9.198C17.2729 9.62227 17.2637 9.60008 17.4272 9.6062C17.547 9.61068 17.5605 9.61436 17.6434 9.66507C17.7313 9.71883 17.7327 9.71915 17.8604 9.71488C17.9311 9.7125 18.0344 9.7118 18.0898 9.71327L18.1906 9.716L18.2438 9.8105C18.308 9.92457 18.3119 9.99156 18.2613 10.1145C18.2245 10.204 18.2226 10.2056 18.0566 10.2773C17.9337 10.3305 17.9319 10.3343 17.917 10.584C17.8862 11.098 17.9115 11.181 18.1328 11.292C18.2191 11.3353 18.2668 11.3776 18.2977 11.438C18.3351 11.511 18.3482 13.176 18.3128 13.347C18.3003 13.4075 18.2899 13.5083 18.2898 13.571L18.2895 13.685L18.2341 13.731L18.1787 13.777L18.1286 13.731L18.0785 13.685L18.0718 13.069C18.061 12.0641 18.07 12.1195 17.8815 11.9089C17.7692 11.7835 17.74 11.7802 16.904 11.7988C16.2694 11.8129 16.2684 11.8131 16.1464 11.9437C16.05 12.047 16.0485 12.0574 16.0408 12.684C16.0351 13.1415 16.0301 13.2474 16.0118 13.2972L15.9896 13.3575L15.9508 13.2972C15.914 13.2401 15.9115 13.2258 15.9028 13.02C15.8914 12.748 15.8736 12.6852 15.7902 12.624L15.7291 12.579L15.7286 12.4766C15.7279 12.3503 15.7178 12.3307 15.626 12.2781C15.4906 12.2005 15.3125 12.2225 15.1505 12.3368C15.1143 12.3622 15.112 12.3703 15.112 12.4689C15.112 12.5686 15.1099 12.5756 15.0694 12.6097C14.9807 12.6843 14.9665 12.7351 14.9583 13.006C14.9519 13.2199 14.9473 13.258 14.9215 13.3059L14.892 13.3607L14.8559 13.2989L14.8199 13.237L14.8152 12.684C14.8091 11.9724 14.8038 11.956 14.5834 11.956C14.4698 11.956 14.4637 11.9543 14.4063 11.9073C14.2935 11.8149 14.3022 11.816 13.6979 11.816C13.0948 11.816 13.0963 11.8158 12.9954 11.9103C12.9747 11.9297 12.9434 11.9527 12.9259 11.9614C12.9083 11.9702 12.8749 12.0083 12.8515 12.046L12.809 12.1147L12.802 12.6839L12.795 13.2531L12.7563 13.3116L12.7176 13.37H12.6012H12.4848L12.4523 13.2965C12.3612 13.0902 12.3545 13.0794 12.3012 13.0549C12.2725 13.0417 12.2056 13.0095 12.1526 12.9834C12.0996 12.9574 12.047 12.936 12.0357 12.936C11.8964 12.936 11.8678 12.8607 11.8616 12.4785C11.8554 12.1052 11.8606 12.1205 11.717 12.052C11.6449 12.0177 11.6161 12.012 11.5133 12.012C11.2993 12.012 11.234 11.9152 11.234 11.5979C11.234 11.3921 11.3083 11.312 11.4992 11.312C11.6589 11.312 11.7375 11.2575 11.7947 11.1071C11.8355 10.9998 11.685 10.892 11.4944 10.892H11.3762L11.3278 10.8354C11.2249 10.7153 11.2005 10.4595 11.2772 10.306C11.3319 10.1966 11.3657 10.178 11.5106 10.178C11.668 10.178 11.8204 10.084 11.8739 9.954C11.9255 9.82835 12.146 9.618 12.226 9.618C12.2785 9.618 12.312 9.54289 12.3126 9.42358C12.3137 9.17578 12.401 9.058 12.5835 9.058C12.7493 9.058 12.956 8.93942 12.956 8.84432C12.956 8.81415 13.0268 8.69439 13.0618 8.66537C13.0763 8.65333 13.082 8.61749 13.082 8.53912C13.082 8.46692 13.0879 8.42579 13.0995 8.41834C13.1421 8.39076 15.972 8.38887 16.0255 8.41638ZM15.8937 10.7229C15.6866 10.7891 15.6067 10.9194 15.6327 11.1482C15.6541 11.3355 15.6922 11.3805 15.8777 11.4378C16.0868 11.5024 16.262 11.3823 16.3081 11.1427C16.3384 10.9853 16.2247 10.7959 16.0566 10.7238C15.9801 10.691 15.993 10.6911 15.8937 10.7229ZM16.0985 10.8558C16.3207 11.0781 16.177 11.4541 15.9008 11.3737C15.7819 11.3392 15.7371 11.2885 15.7074 11.1547L15.6835 11.0474L15.7232 10.9739C15.8199 10.7952 15.9858 10.743 16.0985 10.8558ZM11.6969 13.1308C11.7497 13.186 11.7554 13.2386 11.7468 13.587C11.7345 14.0812 11.8232 14.2917 12.0453 14.2945C12.1515 14.2958 12.1497 14.252 12.1504 16.912L12.151 19.131L12.1047 19.1976L12.0585 19.2643L11.996 19.2213C11.8569 19.1256 11.8642 19.2469 11.864 17.052C11.8638 15.102 11.8613 15.0127 11.8069 14.962C11.7386 14.8983 11.6392 14.8683 11.4967 14.8681C11.221 14.8679 11.2079 14.822 11.2171 13.8908C11.2244 13.1525 11.221 13.1773 11.325 13.1166C11.4042 13.0703 11.648 13.0796 11.6969 13.1308ZM13.0947 13.836C13.0305 13.8792 13.0297 13.9 13.0879 14.0178L13.1379 14.119H13.6937H14.2495L14.3038 14.0116C14.4063 13.8089 14.3918 13.804 13.6875 13.804C13.1427 13.804 13.1421 13.804 13.0947 13.836ZM14.2718 13.871L14.3026 13.8959L14.2705 13.962L14.2384 14.028L13.7617 14.0281C13.4995 14.0282 13.253 14.0321 13.214 14.0368L13.1429 14.0453L13.1115 13.9723C13.0549 13.841 13.0321 13.846 13.6846 13.846C14.1976 13.846 14.2433 13.848 14.2718 13.871ZM17.8295 13.8754C17.8779 13.8875 17.8805 13.8912 17.8889 13.9615C17.9093 14.1309 17.8985 17.223 17.8773 17.311C17.8661 17.3572 17.8568 17.4461 17.8565 17.5086C17.8559 17.6579 17.773 17.7816 17.7106 17.7264C17.6428 17.6664 17.6424 17.6613 17.637 16.737C17.6342 16.2596 17.6298 15.5175 17.6271 15.0878L17.6222 14.3067L17.5754 14.2583C17.5296 14.2111 17.526 14.21 17.4154 14.21H17.3022L17.2256 14.1354C17.0886 14.0021 17.1148 14.0085 16.7528 14.0193L16.435 14.0287L16.3907 13.9603L16.3464 13.892L16.3907 13.8697C16.4405 13.8447 17.727 13.8498 17.8295 13.8754ZM15.2805 14.9496L15.2351 14.9892L15.266 15.0651C15.283 15.1068 15.3041 15.1561 15.3129 15.1746L15.329 15.2081L15.567 15.1991C15.6979 15.1942 15.847 15.1901 15.8983 15.19L15.9915 15.19L16.0301 15.0917L16.0687 14.9934L16.0287 14.9517L15.9888 14.91H15.6573H15.3258L15.2805 14.9496ZM16.0031 14.987C16.0191 15.0374 15.9876 15.0429 15.6543 15.0476L15.3275 15.0522L15.3115 15.017C15.2993 14.9902 15.2994 14.9802 15.3122 14.9749C15.3451 14.9613 15.9986 14.9727 16.0031 14.987ZM15.285 16.6983C14.8051 16.7032 14.8318 16.6938 14.8674 16.845L14.8915 16.947L15.4406 16.9513L15.9898 16.9556L16.0082 16.848C16.0379 16.6745 16.1123 16.6899 15.285 16.6983ZM17.1258 17.9702C17.2154 18.0236 17.2196 18.0516 17.149 18.1252C17.0786 18.1987 17.0626 18.196 17.0326 18.1055C17.0198 18.0672 17.0222 18.0511 17.0473 18.004C17.0817 17.9395 17.0775 17.9413 17.1258 17.9702ZM15.5757 18.3809L16.6765 18.3916L16.7238 18.4246C16.7905 18.4713 16.7915 18.474 16.7918 18.6044L16.792 18.7217L16.7309 18.7829L16.6697 18.844L15.7824 18.8441C14.9223 18.8442 14.8937 18.8451 14.853 18.8718C14.7994 18.9071 14.726 18.9919 14.7049 19.0427C14.6889 19.0814 14.6867 19.082 14.571 19.082C14.4615 19.082 14.4524 19.0842 14.4386 19.1146C14.427 19.1399 14.2685 19.236 14.2381 19.236C14.1617 19.236 14.1294 18.5194 14.2007 18.4048L14.2344 18.3505L14.3547 18.3604C14.4209 18.3658 14.9703 18.3751 15.5757 18.3809Z" fill="#1C1C3C"/>
<path fill-rule="evenodd" clip-rule="evenodd" d="M13.9497 8.39914C13.4915 8.40324 13.1088 8.41171 13.0992 8.41794C13.0876 8.42539 13.0817 8.46652 13.0817 8.53872C13.0817 8.61709 13.076 8.65293 13.0615 8.66497C13.0265 8.69398 12.9557 8.81375 12.9557 8.84392C12.9557 8.93902 12.749 9.0576 12.5832 9.0576C12.4007 9.0576 12.3134 9.17537 12.3123 9.42317C12.3117 9.54249 12.2782 9.6176 12.2257 9.6176C12.1457 9.6176 11.9252 9.82795 11.8736 9.9536C11.8201 10.0836 11.6677 10.1776 11.5103 10.1776C11.3654 10.1776 11.3316 10.1961 11.2769 10.3056C11.2002 10.4591 11.2246 10.7149 11.3275 10.835L11.3759 10.8916H11.4941C11.6847 10.8916 11.8352 10.9994 11.7944 11.1067C11.7372 11.2571 11.6586 11.3116 11.4989 11.3116C11.308 11.3116 11.2337 11.3917 11.2337 11.5975C11.2337 11.9148 11.299 12.0116 11.513 12.0116C11.6158 12.0116 11.6446 12.0173 11.7167 12.0516C11.8603 12.1201 11.8551 12.1048 11.8612 12.4781C11.8675 12.8603 11.8961 12.9356 12.0354 12.9356C12.0467 12.9356 12.0993 12.9569 12.1523 12.983C12.2053 13.0091 12.2722 13.0413 12.3009 13.0545C12.3542 13.079 12.3609 13.0898 12.452 13.2961L12.4845 13.3696H12.6009H12.7173L12.756 13.3111L12.7947 13.2527L12.8017 12.6835L12.8087 12.1143L12.8512 12.0456C12.8746 12.0079 12.908 11.9698 12.9256 11.961C12.9431 11.9523 12.9744 11.9293 12.9951 11.9099C13.096 11.8154 13.0945 11.8156 13.6976 11.8156C14.3019 11.8156 14.2932 11.8145 14.406 11.9069C14.4634 11.9539 14.4694 11.9556 14.5831 11.9556C14.8035 11.9556 14.8088 11.972 14.8149 12.6836L14.8196 13.2366L14.8556 13.2985L14.8917 13.3603L14.9212 13.3055C14.947 13.2576 14.9516 13.2195 14.958 13.0056C14.9662 12.7347 14.9804 12.6839 15.0691 12.6093C15.1096 12.5752 15.1117 12.5682 15.1117 12.4685C15.1117 12.3699 15.114 12.3618 15.1502 12.3364C15.3122 12.2221 15.4903 12.2001 15.6257 12.2777C15.7175 12.3303 15.7276 12.3499 15.7283 12.4762L15.7288 12.5786L15.7899 12.6236C15.8733 12.6848 15.8911 12.7476 15.9025 13.0196C15.9112 13.2254 15.9137 13.2397 15.9505 13.2968L15.9893 13.3571L16.0115 13.2968C16.0298 13.247 16.0348 13.1411 16.0405 12.6836C16.0482 12.057 16.0497 12.0466 16.1461 11.9433C16.2681 11.8127 16.2691 11.8125 16.9037 11.7984C17.7397 11.7798 17.7689 11.7831 17.8812 11.9085C18.0697 12.119 18.0607 12.0637 18.0715 13.0686L18.0782 13.6846L18.1283 13.7306L18.1784 13.7766L18.2338 13.7306L18.2892 13.6846L18.2895 13.5706C18.2896 13.5079 18.3 13.4071 18.3125 13.3466C18.3479 13.1756 18.3348 11.5106 18.2974 11.4376C18.2665 11.3772 18.2188 11.3349 18.1325 11.2916C17.9112 11.1806 17.8859 11.0976 17.9167 10.5836C17.9316 10.3339 17.9334 10.3301 18.0563 10.2769C18.2223 10.2052 18.2242 10.2036 18.261 10.1141C18.3116 9.99115 18.3077 9.92416 18.2435 9.8101L18.1903 9.7156L18.0895 9.71287C18.0341 9.7114 17.9308 9.7121 17.8601 9.71448C17.7324 9.71875 17.731 9.71843 17.6431 9.66467C17.5602 9.61396 17.5467 9.61028 17.4269 9.6058C17.2634 9.59968 17.2726 9.62187 17.256 9.1976C17.2417 8.83503 17.2325 8.7875 17.1561 8.68023C17.136 8.65195 17.1279 8.61366 17.1248 8.53281C17.12 8.4052 17.1029 8.38329 17.0313 8.4129C16.9879 8.43092 16.9877 8.43145 16.9877 8.53781V8.6446L16.9248 8.68429C16.8752 8.71561 16.8527 8.74361 16.818 8.81729C16.7938 8.8686 16.7515 8.94052 16.724 8.9771L16.674 9.0436H16.5326H16.3912L16.297 8.9841C16.2108 8.9296 16.1986 8.91578 16.1531 8.82016C16.1258 8.76269 16.0913 8.69874 16.0765 8.67799C16.0558 8.6488 16.0497 8.61632 16.0497 8.53442C16.0497 8.44776 16.0453 8.4263 16.0252 8.41598C15.9914 8.39862 14.951 8.39015 13.9497 8.39914ZM16.0563 10.7234C16.2244 10.7955 16.3381 10.9849 16.3078 11.1423C16.2617 11.3819 16.0865 11.502 15.8774 11.4374C15.6919 11.3801 15.6538 11.3351 15.6324 11.1478C15.6064 10.919 15.6863 10.7887 15.8934 10.7225C15.9927 10.6907 15.9798 10.6906 16.0563 10.7234ZM11.3247 13.1162C11.2207 13.1769 11.2241 13.1521 11.2168 13.8904C11.2076 14.8216 11.2207 14.8675 11.4964 14.8677C11.6389 14.8679 11.7383 14.8979 11.8066 14.9616C11.861 15.0123 11.8635 15.1016 11.8637 17.0516C11.8639 19.2465 11.8566 19.1252 11.9957 19.2209L12.0582 19.2639L12.1044 19.1972L12.1507 19.1306L12.1501 16.9116C12.1494 14.2516 12.1512 14.2954 12.045 14.2941C11.8229 14.2913 11.7342 14.0808 11.7464 13.5866C11.7583 13.1092 11.7488 13.089 11.5122 13.0906C11.4003 13.0914 11.357 13.0973 11.3247 13.1162ZM13.1039 13.8723C13.081 13.8976 13.0813 13.9026 13.1112 13.9719L13.1426 14.0449L13.2136 14.0364C13.2527 14.0317 13.4992 14.0278 13.7614 14.0277L14.2381 14.0276L14.2702 13.9616L14.3023 13.8955L14.2715 13.8706C14.2222 13.8307 13.1401 13.8323 13.1039 13.8723ZM16.3904 13.8693L16.3461 13.8916L16.3904 13.9599L16.4347 14.0283L16.7525 14.0189C17.1145 14.0081 17.0883 14.0017 17.2253 14.135L17.3019 14.2096H17.4151C17.5257 14.2096 17.5293 14.2107 17.5751 14.2579L17.6219 14.3063L17.6268 15.0874C17.6295 15.5171 17.6339 16.2592 17.6367 16.7366C17.6421 17.6609 17.6425 17.666 17.7103 17.726C17.7727 17.7812 17.8556 17.6575 17.8562 17.5082C17.8565 17.4457 17.8658 17.3568 17.877 17.3106C17.8982 17.2226 17.909 14.1305 17.8886 13.9611C17.8802 13.8908 17.8776 13.8871 17.8292 13.875C17.7267 13.8494 16.4402 13.8443 16.3904 13.8693ZM15.3119 14.9745C15.2991 14.9798 15.2989 14.9898 15.3112 15.0166L15.3272 15.0518L15.654 15.0472C15.9873 15.0425 16.0188 15.037 16.0028 14.9866C15.9983 14.9723 15.3448 14.9609 15.3119 14.9745ZM17.047 18.0036C17.0219 18.0507 17.0196 18.0668 17.0323 18.1051C17.0623 18.1956 17.0783 18.1983 17.1487 18.1248C17.2193 18.0512 17.2151 18.0232 17.1255 17.9698C17.0772 17.9409 17.0814 17.9391 17.047 18.0036ZM14.2004 18.4044C14.1291 18.519 14.1614 19.2356 14.2378 19.2356C14.2682 19.2356 14.4267 19.1395 14.4383 19.1141C14.4521 19.0838 14.4612 19.0816 14.5707 19.0816C14.6864 19.0816 14.6885 19.081 14.7046 19.0423C14.7256 18.9915 14.7991 18.9067 14.8527 18.8714C14.8934 18.8447 14.922 18.8438 15.7821 18.8437L16.6694 18.8436L16.7306 18.7825L16.7917 18.7213L16.7915 18.604C16.7912 18.4736 16.7902 18.4709 16.7235 18.4242L16.6762 18.3912L15.5754 18.3805C14.97 18.3747 14.4206 18.3654 14.3544 18.36L14.2341 18.3501L14.2004 18.4044Z" fill="#060405"/>
<path fill-rule="evenodd" clip-rule="evenodd" d="M15.9424 10.7947C15.868 10.8104 15.7669 10.8932 15.7232 10.9739L15.6835 11.0474L15.7074 11.1547C15.7581 11.3825 16.0155 11.4725 16.1406 11.3062C16.2877 11.1108 16.1483 10.7509 15.9424 10.7947ZM16.0417 11.0789C16.0366 11.0955 16.0216 11.1305 16.0083 11.1566L15.9842 11.2042L15.9425 11.1426C15.9196 11.1088 15.8964 11.0735 15.891 11.0643C15.8851 11.0541 15.902 11.0334 15.9342 11.0113L15.987 10.9752L16.019 11.012C16.0412 11.0375 16.0482 11.058 16.0417 11.0789ZM13.11 11.921C13.0908 11.9322 13.0528 11.95 13.0256 11.9607C12.9922 11.9737 12.9581 12.0062 12.9206 12.0607L12.865 12.1414L12.858 12.6962C12.8503 13.3059 12.8513 13.2989 12.7603 13.4025L12.7151 13.454H12.5996H12.4841L12.4278 13.3315C12.3969 13.2642 12.3677 13.1922 12.3628 13.1717C12.3452 13.0966 12.112 13.0079 12.0079 13.0367C11.8201 13.0885 11.794 13.1561 11.794 13.591C11.794 14.1088 11.8206 14.1766 12.06 14.2698L12.179 14.3161L12.1924 14.5116C12.2001 14.6231 12.2061 15.6539 12.2064 16.912L12.207 19.117L12.1698 19.18C12.1493 19.2147 12.1135 19.2611 12.0904 19.2831L12.0482 19.3231L11.8665 19.2866L11.6846 19.25H9.84233H8V19.4886V19.7271L9.2915 19.7161C10.6585 19.7044 11.7785 19.7018 11.976 19.7099C12.2289 19.7203 12.3341 19.646 12.3448 19.4494C12.3489 19.3744 12.3584 19.2752 12.366 19.229C12.3814 19.134 12.3876 14.8744 12.3728 14.511L12.3637 14.287L12.3133 14.2371C12.2794 14.2035 12.2356 14.1792 12.179 14.1627C12.0429 14.1229 12.0391 14.1202 12.0034 14.033C11.9648 13.9386 11.9442 13.3761 11.9752 13.261C12.0397 13.0213 12.298 13.2624 12.298 13.5624V13.6888L12.354 13.7394C12.4218 13.8007 12.3868 13.7911 12.5862 13.8029C12.8129 13.8163 12.8419 13.8333 12.8927 13.9831C12.9533 14.1612 12.9687 14.1848 13.053 14.2275L13.129 14.266L13.697 14.2659C14.3262 14.2658 14.3587 14.2612 14.4357 14.1634C14.4615 14.1305 14.4745 14.1269 14.58 14.1231L14.6959 14.119L14.7257 14.0021C14.7593 13.8703 14.7819 13.8439 14.8872 13.8126C14.956 13.7921 15.0449 13.7489 15.0875 13.7153C15.1071 13.6998 15.112 13.6739 15.112 13.585C15.112 13.5069 15.1209 13.4493 15.142 13.3905C15.1633 13.3312 15.1754 13.2523 15.1836 13.118C15.2063 12.7474 15.2205 12.726 15.4441 12.726C15.6404 12.726 15.6695 12.7779 15.672 13.132C15.6726 13.2052 15.682 13.306 15.693 13.356C15.704 13.4061 15.7132 13.5016 15.7135 13.5682L15.714 13.6894L15.7797 13.7329C15.8159 13.7569 15.8873 13.7889 15.9385 13.8042C16.0564 13.8393 16.0694 13.855 16.0999 14C16.15 14.2381 16.2214 14.2694 16.7275 14.2753C17.1627 14.2804 17.1371 14.2689 17.1484 14.4653C17.1529 14.5443 17.16 15.1887 17.164 15.8973L17.1715 17.1856L17.1288 17.2903C17.0934 17.3772 17.0861 17.4144 17.086 17.5083L17.086 17.6216L17.0265 17.6394C16.8716 17.6856 16.8397 17.7162 16.736 17.9176L16.659 18.067L15.434 18.074C14.736 18.078 14.197 18.0866 14.181 18.0939C14.0775 18.1414 14.0018 18.2469 13.9626 18.3981C13.9217 18.5559 13.9334 19.106 13.9809 19.2619C13.9966 19.3131 14.0133 19.4105 14.0182 19.4784C14.0322 19.6754 14.1132 19.7213 14.4165 19.7045C14.5257 19.6985 15.1253 19.6937 15.749 19.694C16.3727 19.6942 16.8673 19.6915 16.848 19.6879C16.8288 19.6843 16.8044 19.6743 16.7938 19.6656C16.7832 19.6569 16.695 19.6456 16.5978 19.6405C16.5006 19.6354 16.3866 19.6211 16.3445 19.6086C16.3023 19.5962 16.2535 19.586 16.236 19.586C16.2053 19.586 16.204 19.5813 16.204 19.474V19.362H16.1437C16.1105 19.362 16.0711 19.3528 16.0562 19.3415C16.0376 19.3274 15.9929 19.3208 15.9144 19.3205C15.8514 19.3202 15.7821 19.3133 15.7604 19.305C15.7387 19.2968 15.5761 19.284 15.399 19.2767C15.2219 19.2694 15.0355 19.2597 14.9847 19.2552C14.9244 19.2499 14.8549 19.2548 14.7837 19.2695C14.724 19.2819 14.6237 19.2924 14.561 19.2928C14.4983 19.2932 14.3997 19.3021 14.342 19.3125C14.2225 19.3342 14.2338 19.3396 14.1679 19.2299L14.118 19.1467L14.118 18.7959L14.1181 18.445L14.1722 18.3552L14.2263 18.2653L15.4496 18.2592C16.6137 18.2534 16.6754 18.2518 16.7247 18.2267C16.7793 18.1988 16.8381 18.1309 16.8546 18.0766C16.8736 18.0141 17.0696 17.794 17.1062 17.794C17.204 17.794 17.282 17.6616 17.282 17.4957C17.282 17.431 17.2861 17.3394 17.291 17.2921L17.3 17.206H17.417H17.534V15.96V14.714H17.415H17.296V14.5201C17.296 14.2968 17.2756 14.2485 17.1505 14.1752L17.0878 14.1384L16.7639 14.1392C16.3899 14.14 16.409 14.1458 16.3225 14.0069C16.2002 13.8107 16.2218 13.8048 17.065 13.8043C17.778 13.8039 17.8004 13.8018 17.8803 13.7285L17.93 13.683L17.937 12.9209L17.944 12.1589L17.9084 12.089C17.8217 11.9187 17.8334 11.921 17.058 11.9211C16.2584 11.9211 16.2215 11.9276 16.1347 12.0829L16.1004 12.1444L16.0927 12.7187L16.085 13.293L16.0431 13.377C16.0102 13.4431 15.9995 13.4865 15.9933 13.58L15.9853 13.699L15.9827 13.5828C15.9801 13.4719 15.9775 13.4631 15.9241 13.3868C15.8604 13.2957 15.8408 13.202 15.8402 12.985C15.8396 12.7828 15.7805 12.6743 15.6333 12.6059L15.5756 12.579L15.5713 12.467L15.567 12.355L15.4622 12.3509C15.2933 12.3441 15.294 12.3436 15.2939 12.4708L15.2939 12.579L15.1994 12.6219C15.0411 12.6939 15.0239 12.7307 15.0143 13.018C15.0015 13.4035 14.9157 13.5438 14.8098 13.3528L14.769 13.279L14.7606 12.719C14.7526 12.1811 14.751 12.1564 14.7215 12.0925L14.6907 12.026H14.5772C14.4777 12.026 14.458 12.0217 14.4177 11.991C14.3925 11.9718 14.3604 11.956 14.3464 11.9559C14.3324 11.9559 14.3021 11.9433 14.279 11.928C14.2232 11.8911 13.1726 11.8848 13.11 11.921ZM14.2949 12.1071C14.3606 12.1638 14.3733 12.2928 14.3676 12.8454L14.363 13.2937L14.3175 13.3861C14.2782 13.4659 14.272 13.4931 14.272 13.5852V13.692H13.691H13.11V13.5725C13.11 13.4874 13.1037 13.4434 13.0879 13.4194C13.0347 13.3381 13.0263 13.2519 13.0266 12.789C13.027 12.2427 13.0353 12.1602 13.0953 12.1066L13.1385 12.068L13.6947 12.0686L14.251 12.0692L14.2949 12.1071ZM17.7701 12.1104C17.8159 12.1724 17.8404 13.0503 17.8041 13.328C17.7996 13.3627 17.7933 13.4584 17.7901 13.5407C17.7853 13.6641 17.7803 13.6911 17.7617 13.6947C17.7493 13.6971 17.4316 13.6974 17.0556 13.6953L16.372 13.6915V13.5789C16.372 13.4752 16.3687 13.4624 16.3306 13.4147C16.2506 13.315 16.246 13.2823 16.246 12.8118C16.246 12.2568 16.2597 12.1695 16.3568 12.1075L16.421 12.0664L17.0817 12.0696L17.7424 12.0729L17.7701 12.1104ZM14.2809 13.8269C14.3625 13.8656 14.3655 13.8896 14.3038 14.0116L14.2495 14.119H13.6937H13.1379L13.0879 14.0178C13.0297 13.9001 13.0305 13.8793 13.0947 13.836C13.1583 13.7931 14.193 13.7852 14.2809 13.8269ZM15.2718 14.8048C15.0651 14.8703 15.0201 14.9313 15.0518 15.1034C15.0946 15.3358 15.1756 15.372 15.6519 15.372C16.0578 15.372 16.1507 15.3418 16.1829 15.1995C16.2347 14.9697 16.2137 14.8981 16.0742 14.8283L15.987 14.7848L15.658 14.7858C15.4301 14.7864 15.3114 14.7923 15.2718 14.8048ZM16.0287 14.9517L16.0687 14.9934L16.0301 15.0917L15.9915 15.19L15.8983 15.1901C15.847 15.1901 15.6979 15.1942 15.567 15.1991L15.329 15.2082L15.3129 15.1746C15.3041 15.1562 15.283 15.1069 15.266 15.0651L15.2351 14.9892L15.2805 14.9496L15.3258 14.91H15.6573H15.9888L16.0287 14.9517ZM14.8186 16.5561C14.792 16.5677 14.7499 16.5926 14.725 16.6116C14.6858 16.6416 14.6653 16.646 14.5681 16.646C14.4197 16.646 14.3956 16.6766 14.4126 16.8441C14.429 17.0056 14.4331 17.01 14.5674 17.01C14.6739 17.01 14.6816 17.0121 14.7136 17.0502C14.7956 17.1477 14.8242 17.1514 15.4539 17.147L16.0194 17.143L16.0732 17.0997C16.2462 16.9605 16.2508 16.6926 16.0822 16.5795L16.0144 16.534L15.4407 16.5346C14.9626 16.5351 14.8589 16.5386 14.8186 16.5561ZM16.0123 16.7177C16.0222 16.7334 16.0209 16.7736 16.0082 16.8481L15.9898 16.9557L15.4406 16.9513L14.8915 16.947L14.8674 16.845C14.8318 16.6938 14.8051 16.7032 15.285 16.6983C15.9715 16.6914 15.9961 16.692 16.0123 16.7177Z" fill="#731C4D"/>
<path fill-rule="evenodd" clip-rule="evenodd" d="M17.819 12.4884C17.819 12.5615 17.8214 12.5914 17.8243 12.5549C17.8272 12.5183 17.8272 12.4584 17.8243 12.4219C17.8214 12.3853 17.819 12.4152 17.819 12.4884ZM17.7799 13.3431C17.766 13.3897 17.7459 13.4365 17.7353 13.4471C17.7161 13.4662 17.7064 13.6781 17.7238 13.6955C17.7634 13.7351 17.7845 13.6856 17.7901 13.5405C17.7932 13.4585 17.7997 13.3614 17.8045 13.3249C17.8159 13.2369 17.8105 13.241 17.7799 13.3431ZM16.869 19.2504C15.8603 19.2543 15.0382 19.2594 15.042 19.2616C15.0459 19.2638 15.2002 19.2712 15.385 19.278C15.5698 19.2848 15.7388 19.2971 15.7604 19.3054C15.7821 19.3136 15.8514 19.3206 15.9144 19.3208C15.9929 19.3211 16.0376 19.3277 16.0562 19.3418C16.0711 19.3531 16.1105 19.3624 16.1437 19.3624H16.204V19.4744C16.204 19.5816 16.2053 19.5864 16.236 19.5864C16.2535 19.5864 16.3024 19.5965 16.3445 19.609C16.3866 19.6214 16.5006 19.6357 16.5978 19.6409C16.7217 19.6474 16.7821 19.6563 16.7995 19.6707C16.8286 19.695 17.3558 19.7036 20.0364 19.7242L21.6917 19.7369L21.7187 19.7701C21.7709 19.8343 21.7861 20.5457 21.7403 20.7849C21.7291 20.8431 21.72 20.9155 21.72 20.9456V21.0004H21.86H22V20.3012V19.602L21.9405 19.5977L21.881 19.5934L21.8768 19.4816C21.8721 19.3536 21.8586 19.3316 21.7525 19.2786L21.6873 19.2461L20.1952 19.2447C19.3745 19.244 17.8777 19.2465 16.869 19.2504Z" fill="#5C0674"/>
</g>
<g filter="url(#filter0_d_4062_267290)">
<circle cx="18.9961" cy="8" r="2.74609" fill="white" stroke="#596AEC" stroke-width="0.507812"/>
<path d="M19.0602 6.89258C19.028 6.89258 18.9995 6.91332 18.9896 6.94395L18.5007 8.45387C18.4952 8.47098 18.471 8.47098 18.4654 8.45387L17.9762 6.94393C17.9663 6.91332 17.9378 6.89258 17.9056 6.89258H17.0733C17.0221 6.89258 16.9863 6.94322 17.0033 6.99152L17.1052 7.28027C17.1157 7.30996 17.1437 7.32981 17.1752 7.32981H17.5691C17.577 7.32981 17.584 7.33477 17.5866 7.34218L18.228 9.15821C18.2385 9.18789 18.2665 9.20772 18.298 9.20772H18.6682C18.6996 9.20772 18.7277 9.18789 18.7381 9.15821L19.5033 6.99153C19.5203 6.94323 19.4845 6.89258 19.4333 6.89258H19.0602Z" fill="#596AEC"/>
<path d="M19.9547 9.23349C19.7838 9.23349 19.6362 9.19798 19.512 9.12695C19.3884 9.05519 19.2933 8.95384 19.2268 8.82289C19.1602 8.6912 19.1269 8.53621 19.1269 8.35791C19.1269 8.18257 19.1602 8.02869 19.2268 7.89626C19.2941 7.76309 19.388 7.65952 19.5086 7.58554C19.6292 7.51082 19.7709 7.47346 19.9337 7.47346C20.0387 7.47346 20.1378 7.49047 20.2311 7.5245C20.325 7.55779 20.4079 7.60958 20.4796 7.67987C20.5521 7.75015 20.6091 7.83967 20.6505 7.94842C20.692 8.05643 20.7127 8.18516 20.7127 8.33461V8.45779H19.3155V8.18701H20.3276C20.3269 8.11007 20.3102 8.04164 20.2777 7.98171C20.2451 7.92105 20.1996 7.87333 20.1412 7.83856C20.0835 7.80378 20.0161 7.7864 19.9392 7.7864C19.8571 7.7864 19.785 7.80637 19.7228 7.84632C19.6607 7.88553 19.6122 7.93732 19.5774 8.00169C19.5434 8.06531 19.526 8.13522 19.5253 8.21143V8.4478C19.5253 8.54693 19.5434 8.63201 19.5797 8.70304C19.6159 8.77332 19.6666 8.82733 19.7317 8.86506C19.7968 8.90205 19.873 8.92054 19.9603 8.92054C20.0187 8.92054 20.0716 8.91241 20.119 8.89613C20.1663 8.87911 20.2074 8.85433 20.2422 8.82178C20.2769 8.78923 20.3032 8.74891 20.321 8.70082L20.696 8.74299C20.6724 8.84212 20.6272 8.92868 20.5607 9.00266C20.4948 9.07591 20.4105 9.13287 20.3076 9.17356C20.2048 9.21351 20.0872 9.23349 19.9547 9.23349Z" fill="#596AEC"/>
</g>
<defs>
<filter id="filter0_d_4062_267290" x="12.2461" y="2.75" width="13.5" height="13.5" filterUnits="userSpaceOnUse" color-interpolation-filters="sRGB">
<feFlood flood-opacity="0" result="BackgroundImageFix"/>
<feColorMatrix in="SourceAlpha" type="matrix" values="0 0 0 0 0 0 0 0 0 0 0 0 0 0 0 0 0 0 127 0" result="hardAlpha"/>
<feOffset dy="1.5"/>
<feGaussianBlur stdDeviation="1.875"/>
<feComposite in2="hardAlpha" operator="out"/>
<feColorMatrix type="matrix" values="0 0 0 0 0.34902 0 0 0 0 0.415686 0 0 0 0 0.92549 0 0 0 0.15 0"/>
<feBlend mode="normal" in2="BackgroundImageFix" result="effect1_dropShadow_4062_267290"/>
<feBlend mode="normal" in="SourceGraphic" in2="effect1_dropShadow_4062_267290" result="shape"/>
</filter>
</defs>
</svg>
