<svg version="1.1" id="Layer_1" xmlns="http://www.w3.org/2000/svg" xmlns:xlink="http://www.w3.org/1999/xlink" x="0px" y="0px"
	 viewBox="0 0 2048 2048" style="enable-background:new 0 0 2048 2048;" xml:space="preserve">
<style type="text/css">
	.st0{fill:#F4B731;}
	.st1{fill-rule:evenodd;clip-rule:evenodd;fill:#FFFFFF;}
	.st2{clip-path:url(#SVGID_00000114061228996248338660000002795034895722574492_);}
	.st3{clip-path:url(#SVGID_00000080196724856376042850000008080852428000009900_);fill:#FFFFFF;}
	.st4{clip-path:url(#SVGID_00000036942704515145333450000013394674869989759400_);fill:#FFFFFF;}
	.st5{clip-path:url(#SVGID_00000142863723241416457840000015284532311941588109_);fill:#FFFFFF;}
	.st6{clip-path:url(#SVGID_00000145031733105860835450000011102814697701470098_);fill:#FFFFFF;}
	.st7{clip-path:url(#SVGID_00000124134256541606651200000004871824728248081026_);fill:#FFFFFF;}
	.st8{clip-path:url(#SVGID_00000153706528953853848520000001010174642923246499_);fill:#FFFFFF;}
	.st9{fill:url(#SVGID_00000133519058400865008090000009510821636422221197_);}
	.st10{clip-path:url(#SVGID_00000035518146553303398200000008312098577967888268_);}
	
		.st11{clip-path:url(#SVGID_00000048480758901848950440000001673837348107726772_);fill:url(#SVGID_00000049215379614864826810000008911958134748213405_);}
	
		.st12{clip-path:url(#SVGID_00000096027421157752785220000009036034932639738261_);fill:url(#SVGID_00000136406078112590809550000015158956325782438039_);}
	
		.st13{clip-path:url(#SVGID_00000183251332767407159900000008591729924550865068_);fill:url(#SVGID_00000163054335837692464230000011593250957003532193_);}
	
		.st14{clip-path:url(#SVGID_00000091721776575338915080000009288899060075506086_);fill:url(#SVGID_00000031185441811902955130000015813195191325173907_);}
	
		.st15{clip-path:url(#SVGID_00000084530820151173113300000002732440972269707685_);fill:url(#SVGID_00000048498070991352260910000015047400659974814127_);}
	
		.st16{clip-path:url(#SVGID_00000046305004408556454100000009968143199205928850_);fill:url(#SVGID_00000147190047828876510480000003050679604004272268_);}
	.st17{fill:#FC6B7D;}
	.st18{fill:#F9ADB7;}
	.st19{fill:#F7D3D8;}
	.st20{fill:#FFFFFF;}
	.st21{fill:#596AEC;}
</style>
<g>
	<path class="st0" d="M650.3,1340.6c351.3,0,636.1-284.8,636.1-636.1c0-351.3-284.8-636.1-636.1-636.1
		c-351.3,0-636.1,284.8-636.1,636.1C14.1,1055.8,298.9,1340.6,650.3,1340.6z"/>
	<path class="st1" d="M383,386.5h260.5c158.4,0,278.5,84.1,323.2,206.5h81.1v74h-64c1.2,11.7,1.9,23.6,1.9,35.7v1.8
		c0,13.6-0.8,27-2.4,40.2h64.6v74h-82.7c-45.8,120.7-165,204-321.6,204H383v-204h-90.5v-74H383v-77.7h-90.5V593H383V386.5L383,386.5
		z M455.8,818.6v137.6h187.7c115.9,0,201.9-55.1,241.9-137.6H455.8L455.8,818.6z M907.7,744.6H455.8v-77.7h452
		c1.6,12.2,2.5,24.7,2.5,37.5v1.8C910.3,719.3,909.4,732.1,907.7,744.6L907.7,744.6z M643.5,452.7c116.3,0,202.6,56.6,242.4,140.3
		H455.8V452.7L643.5,452.7L643.5,452.7z"/>
	<g>
		<g>
			<defs>
				<circle id="SVGID_1_" cx="1287.2" cy="1232.9" r="556.8"/>
			</defs>
			<use xlink:href="#SVGID_1_"  style="overflow:visible;fill:#FFFFFF;"/>
			<clipPath id="SVGID_00000178199318512740866830000000238535524365554313_">
				<use xlink:href="#SVGID_1_"  style="overflow:visible;"/>
			</clipPath>
			<g style="clip-path:url(#SVGID_00000178199318512740866830000000238535524365554313_);">
				<g>
					<g>
						<g>
							<defs>
								<polygon id="SVGID_00000088093617092279597090000013198778135808339348_" points="1430.2,817.8 1430.2,655.6 1258.1,675.2 
									1258.1,705.5 1208.1,705.5 1208.1,755.4 1146.5,755.4 1146.5,819.6 1092.2,819.6 1092.2,871.3 1037.4,871.3 1037.4,929.9 
									1097.3,929.9 1097.3,871.3 1258,871.3 1258,930.1 1318.6,930.1 1318.6,983.6 1372.1,983.6 1372.1,871.3 1480.8,871.3 
									1480.8,817.8 								"/>
							</defs>
							<use xlink:href="#SVGID_00000088093617092279597090000013198778135808339348_"  style="overflow:visible;fill:#FFFFFF;"/>
							<clipPath id="SVGID_00000086674677007693865310000008948553902842030757_">
								<use xlink:href="#SVGID_00000088093617092279597090000013198778135808339348_"  style="overflow:visible;"/>
							</clipPath>
							
								<circle style="clip-path:url(#SVGID_00000086674677007693865310000008948553902842030757_);fill:#FFFFFF;" cx="1287.2" cy="1232.9" r="746.7"/>
						</g>
					</g>
				</g>
				<g>
					<g>
						<g>
							<defs>
								<rect id="SVGID_00000104693013053936579350000015409887479571856784_" x="1480.8" y="871.3" width="59.9" height="58.7"/>
							</defs>
							<use xlink:href="#SVGID_00000104693013053936579350000015409887479571856784_"  style="overflow:visible;fill:#FFFFFF;"/>
							<clipPath id="SVGID_00000087389310112752744530000011978344775555889818_">
								<use xlink:href="#SVGID_00000104693013053936579350000015409887479571856784_"  style="overflow:visible;"/>
							</clipPath>
							
								<circle style="clip-path:url(#SVGID_00000087389310112752744530000011978344775555889818_);fill:#FFFFFF;" cx="1287.2" cy="1232.9" r="746.7"/>
						</g>
					</g>
				</g>
				<g>
					<g>
						<g>
							<defs>
								<polygon id="SVGID_00000041976232227310338760000013912131658479636619_" points="1591.4,1041.2 1591.4,929.9 1540.7,929.9 
									1541,1040.7 1369.9,1040.7 1369.9,1102.2 1319.4,1102.2 1319.4,1041.6 1037.4,1041.6 1037.4,930.4 986.7,930.4 
									986.7,1202.4 1037.6,1202.4 1037.6,1263.1 1098.3,1263.1 1098.3,1091.6 1258.3,1091.6 1258.3,1262.7 1319,1262.7 
									1319,1151.5 1369.9,1151.5 1369.9,1262.3 1429.7,1262.3 1429.7,1091.6 1590.7,1091.6 1590.7,1262.7 1641.1,1262.7 
									1641.1,1041.2 								"/>
							</defs>
							<use xlink:href="#SVGID_00000041976232227310338760000013912131658479636619_"  style="overflow:visible;fill:#FFFFFF;"/>
							<clipPath id="SVGID_00000021819458678421265820000007756893147318441661_">
								<use xlink:href="#SVGID_00000041976232227310338760000013912131658479636619_"  style="overflow:visible;"/>
							</clipPath>
							
								<circle style="clip-path:url(#SVGID_00000021819458678421265820000007756893147318441661_);fill:#FFFFFF;" cx="1287.2" cy="1232.9" r="746.7"/>
						</g>
					</g>
				</g>
				<g>
					<g>
						<g>
							<defs>
								<polygon id="SVGID_00000118394339002062695590000001942208122065627581_" points="1258.3,1313.6 1258.3,1263.1 
									1098.3,1263.1 1097.6,1313.6 								"/>
							</defs>
							<use xlink:href="#SVGID_00000118394339002062695590000001942208122065627581_"  style="overflow:visible;fill:#FFFFFF;"/>
							<clipPath id="SVGID_00000119827873947753052160000014669681708217754499_">
								<use xlink:href="#SVGID_00000118394339002062695590000001942208122065627581_"  style="overflow:visible;"/>
							</clipPath>
							
								<circle style="clip-path:url(#SVGID_00000119827873947753052160000014669681708217754499_);fill:#FFFFFF;" cx="1287.2" cy="1232.9" r="746.7"/>
						</g>
					</g>
				</g>
				<g>
					<g>
						<g>
							<defs>
								<path id="SVGID_00000044877804971323519440000001799999491642950334_" d="M925.4,1373.4h60.5v373.3h51.2v-151.5h61.1v50.1
									h59.3v61.1h49.5v81.2h51.2v-31.1h221.8v-50.7h60.5v-59.9h50.1v-383.2h-160.9v51.4h100.9v119.8h-40.9v50.1h-343.2v-50.1
									h-59.9v-60.5h-50.1v-59.9h-50.7l0.8-111.1h-61.3V1373.4L925.4,1373.4z M1258.3,1535.9c-1.7,0,173.9-0.2,173.9-0.2v59.5
									h-173.9V1535.9z"/>
							</defs>
							<use xlink:href="#SVGID_00000044877804971323519440000001799999491642950334_"  style="overflow:visible;fill:#FFFFFF;"/>
							<clipPath id="SVGID_00000165210033427489522780000005722493027920968359_">
								<use xlink:href="#SVGID_00000044877804971323519440000001799999491642950334_"  style="overflow:visible;"/>
							</clipPath>
							
								<circle style="clip-path:url(#SVGID_00000165210033427489522780000005722493027920968359_);fill:#FFFFFF;" cx="1287.2" cy="1232.9" r="746.7"/>
						</g>
					</g>
				</g>
				<g>
					<g>
						<g>
							<defs>
								<polygon id="SVGID_00000004507147428198316940000009080332280432801976_" points="1318.9,1423.6 1429.4,1423.6 
									1429.4,1373.8 1318.9,1374.2 								"/>
							</defs>
							<use xlink:href="#SVGID_00000004507147428198316940000009080332280432801976_"  style="overflow:visible;fill:#FFFFFF;"/>
							<clipPath id="SVGID_00000050626120261704758600000015814138833122500540_">
								<use xlink:href="#SVGID_00000004507147428198316940000009080332280432801976_"  style="overflow:visible;"/>
							</clipPath>
							
								<circle style="clip-path:url(#SVGID_00000050626120261704758600000015814138833122500540_);fill:#FFFFFF;" cx="1287.2" cy="1232.9" r="746.7"/>
						</g>
					</g>
				</g>
			</g>
		</g>
	</g>
	<g>
		<g id="Layer_2_00000007393271576146807810000016655146222289145736_">
			
				<linearGradient id="SVGID_00000127765139792506820120000003906281863698881978_" gradientUnits="userSpaceOnUse" x1="741.5908" y1="726.6438" x2="1838.2018" y2="1744.2808">
				<stop  offset="0" style="stop-color:#FF6449"/>
				<stop  offset="1" style="stop-color:#FB3177"/>
			</linearGradient>
			<path style="fill:url(#SVGID_00000127765139792506820120000003906281863698881978_);" d="M1287.1,486.2
				c-412.4,0-746.7,334.3-746.7,746.7s334.3,746.7,746.7,746.7s746.7-334.3,746.7-746.7S1699.5,486.2,1287.1,486.2z M1287.1,1788
				c-306.6,0-555.1-248.5-555.1-555.1s248.5-555.1,555.1-555.1s555.1,248.5,555.1,555.1C1842.2,1539.4,1593.7,1788,1287.1,1788z"/>
		</g>
		<g id="Layer_3">
			<g>
				<g>
					<g>
						<defs>
							<circle id="SVGID_00000096054305636224756160000001779885117658314663_" cx="1287.2" cy="1232.9" r="556.8"/>
						</defs>
						<clipPath id="SVGID_00000131352564458487450340000004158102229378356368_">
							<use xlink:href="#SVGID_00000096054305636224756160000001779885117658314663_"  style="overflow:visible;"/>
						</clipPath>
						<g style="clip-path:url(#SVGID_00000131352564458487450340000004158102229378356368_);">
							<g>
								<g>
									<g>
										<defs>
											<polygon id="SVGID_00000105401655027426166200000017878759124219327893_" points="1430.2,817.8 1430.2,655.6 
												1258.1,675.2 1258.1,705.5 1208.1,705.5 1208.1,755.4 1146.5,755.4 1146.5,819.6 1092.2,819.6 1092.2,871.3 
												1037.4,871.3 1037.4,929.9 1097.3,929.9 1097.3,871.3 1258,871.3 1258,930.1 1318.6,930.1 1318.6,983.6 1372.1,983.6 
												1372.1,871.3 1480.8,871.3 1480.8,817.8 											"/>
										</defs>
										<clipPath id="SVGID_00000003791983107320745860000012267057994228709537_">
											<use xlink:href="#SVGID_00000105401655027426166200000017878759124219327893_"  style="overflow:visible;"/>
										</clipPath>
										
											<linearGradient id="SVGID_00000175292634684621336090000016503035743014657938_" gradientUnits="userSpaceOnUse" x1="741.6786" y1="726.6349" x2="1838.2897" y2="1744.272">
											<stop  offset="0" style="stop-color:#FF6449"/>
											<stop  offset="1" style="stop-color:#FB3177"/>
										</linearGradient>
										
											<circle style="clip-path:url(#SVGID_00000003791983107320745860000012267057994228709537_);fill:url(#SVGID_00000175292634684621336090000016503035743014657938_);" cx="1287.2" cy="1232.9" r="746.7"/>
									</g>
								</g>
							</g>
							<g>
								<g>
									<g>
										<defs>
											
												<rect id="SVGID_00000050625745789135694600000008090069304882322319_" x="1480.8" y="871.3" width="59.9" height="58.7"/>
										</defs>
										<clipPath id="SVGID_00000127764970866176420120000000964806769034754191_">
											<use xlink:href="#SVGID_00000050625745789135694600000008090069304882322319_"  style="overflow:visible;"/>
										</clipPath>
										
											<linearGradient id="SVGID_00000143614643492274052840000013387252793282415002_" gradientUnits="userSpaceOnUse" x1="741.6786" y1="726.6349" x2="1838.2897" y2="1744.272">
											<stop  offset="0" style="stop-color:#FF6449"/>
											<stop  offset="1" style="stop-color:#FB3177"/>
										</linearGradient>
										
											<circle style="clip-path:url(#SVGID_00000127764970866176420120000000964806769034754191_);fill:url(#SVGID_00000143614643492274052840000013387252793282415002_);" cx="1287.2" cy="1232.9" r="746.7"/>
									</g>
								</g>
							</g>
							<g>
								<g>
									<g>
										<defs>
											<polygon id="SVGID_00000161626471062535215760000010223318584412708999_" points="1591.4,1041.2 1591.4,929.9 
												1540.7,929.9 1541,1040.7 1369.9,1040.7 1369.9,1102.2 1319.4,1102.2 1319.4,1041.6 1037.4,1041.6 1037.4,930.4 
												986.7,930.4 986.7,1202.4 1037.6,1202.4 1037.6,1263.1 1098.3,1263.1 1098.3,1091.6 1258.3,1091.6 1258.3,1262.7 
												1319,1262.7 1319,1151.5 1369.9,1151.5 1369.9,1262.3 1429.7,1262.3 1429.7,1091.6 1590.7,1091.6 1590.7,1262.7 
												1641.1,1262.7 1641.1,1041.2 											"/>
										</defs>
										<clipPath id="SVGID_00000114779916548361512950000004403010137530088339_">
											<use xlink:href="#SVGID_00000161626471062535215760000010223318584412708999_"  style="overflow:visible;"/>
										</clipPath>
										
											<linearGradient id="SVGID_00000116220920835181677240000006175401064294117802_" gradientUnits="userSpaceOnUse" x1="741.6786" y1="726.6349" x2="1838.2897" y2="1744.272">
											<stop  offset="0" style="stop-color:#FF6449"/>
											<stop  offset="1" style="stop-color:#FB3177"/>
										</linearGradient>
										
											<circle style="clip-path:url(#SVGID_00000114779916548361512950000004403010137530088339_);fill:url(#SVGID_00000116220920835181677240000006175401064294117802_);" cx="1287.2" cy="1232.9" r="746.7"/>
									</g>
								</g>
							</g>
							<g>
								<g>
									<g>
										<defs>
											<polygon id="SVGID_00000103264190269540210040000007785600853409979274_" points="1258.3,1313.6 1258.3,1263.1 
												1098.3,1263.1 1097.6,1313.6 											"/>
										</defs>
										<clipPath id="SVGID_00000005947976802117085000000009888681380702135429_">
											<use xlink:href="#SVGID_00000103264190269540210040000007785600853409979274_"  style="overflow:visible;"/>
										</clipPath>
										
											<linearGradient id="SVGID_00000075124419940377666170000007284536587224647585_" gradientUnits="userSpaceOnUse" x1="741.6786" y1="726.6349" x2="1838.2897" y2="1744.272">
											<stop  offset="0" style="stop-color:#FF6449"/>
											<stop  offset="1" style="stop-color:#FB3177"/>
										</linearGradient>
										
											<circle style="clip-path:url(#SVGID_00000005947976802117085000000009888681380702135429_);fill:url(#SVGID_00000075124419940377666170000007284536587224647585_);" cx="1287.2" cy="1232.9" r="746.7"/>
									</g>
								</g>
							</g>
							<g>
								<g>
									<g>
										<defs>
											<path id="SVGID_00000038380261889978502900000015442216276081642920_" d="M925.4,1373.4h60.5v373.3h51.2v-151.5h61.1
												v50.1h59.3v61.1h49.5v81.2h51.2v-31.1h221.8v-50.7h60.5v-59.9h50.1v-383.2h-160.9v51.4h100.9v119.8h-40.9v50.1h-343.2
												v-50.1h-59.9v-60.5h-50.1v-59.9h-50.7l0.8-111.1h-61.3V1373.4L925.4,1373.4z M1258.3,1535.9c-1.7,0,173.9-0.2,173.9-0.2
												v59.5h-173.9V1535.9z"/>
										</defs>
										<clipPath id="SVGID_00000181768621162429605550000009547728576894008745_">
											<use xlink:href="#SVGID_00000038380261889978502900000015442216276081642920_"  style="overflow:visible;"/>
										</clipPath>
										
											<linearGradient id="SVGID_00000016059043138919129310000001348652307214137991_" gradientUnits="userSpaceOnUse" x1="741.6786" y1="726.6349" x2="1838.2897" y2="1744.272">
											<stop  offset="0" style="stop-color:#FF6449"/>
											<stop  offset="1" style="stop-color:#FB3177"/>
										</linearGradient>
										
											<circle style="clip-path:url(#SVGID_00000181768621162429605550000009547728576894008745_);fill:url(#SVGID_00000016059043138919129310000001348652307214137991_);" cx="1287.2" cy="1232.9" r="746.7"/>
									</g>
								</g>
							</g>
							<g>
								<g>
									<g>
										<defs>
											<polygon id="SVGID_00000008851161230591350920000009343355880173759107_" points="1318.9,1423.6 1429.4,1423.6 
												1429.4,1373.8 1318.9,1374.2 											"/>
										</defs>
										<clipPath id="SVGID_00000014624588627485682520000014064918837650087303_">
											<use xlink:href="#SVGID_00000008851161230591350920000009343355880173759107_"  style="overflow:visible;"/>
										</clipPath>
										
											<linearGradient id="SVGID_00000114040352518239166130000005103830425140546230_" gradientUnits="userSpaceOnUse" x1="741.6786" y1="726.6349" x2="1838.2897" y2="1744.272">
											<stop  offset="0" style="stop-color:#FF6449"/>
											<stop  offset="1" style="stop-color:#FB3177"/>
										</linearGradient>
										
											<circle style="clip-path:url(#SVGID_00000014624588627485682520000014064918837650087303_);fill:url(#SVGID_00000114040352518239166130000005103830425140546230_);" cx="1287.2" cy="1232.9" r="746.7"/>
									</g>
								</g>
							</g>
						</g>
					</g>
				</g>
			</g>
			<polygon class="st17" points="1098.3,1091.6 1098.3,1152.3 1258.7,1152.3 1258.7,1091.5 			"/>
			<polygon class="st18" points="1098.3,1152.5 1098.3,1213.2 1258.7,1213.2 1258.7,1152.3 			"/>
			<polygon class="st19" points="1098.3,1212.3 1098.3,1263.3 1258.7,1263.3 1258.7,1212.1 			"/>
			<polygon class="st17" points="1429.7,1091.6 1429.7,1152.3 1590.5,1152.3 1590.5,1091.5 			"/>
			<polygon class="st18" points="1429.7,1152.5 1429.7,1213.2 1590.5,1213.2 1590.5,1152.3 			"/>
			<polygon class="st19" points="1429.7,1212.3 1429.7,1263.3 1590.5,1263.3 1590.5,1212.1 			"/>
		</g>
	</g>
	<g>
		<g>
			<circle class="st20" cx="1710" cy="598.5" r="291.1"/>
			<path class="st21" d="M1710,916.6c-175.4,0-318.1-142.7-318.1-318.1s142.7-318.1,318.1-318.1s318.1,142.7,318.1,318.1
				S1885.4,916.6,1710,916.6z M1710,334.3c-145.7,0-264.2,118.5-264.2,264.2s118.5,264.2,264.2,264.2s264.2-118.5,264.2-264.2
				S1855.7,334.3,1710,334.3z"/>
		</g>
		<path class="st21" d="M1716.8,481.1c-3.4,0-6.4,2.2-7.5,5.4l-51.8,160.1c-0.6,1.8-3.1,1.8-3.7,0l-51.9-160.1
			c-1-3.2-4.1-5.4-7.5-5.4h-88.2c-5.4,0-9.2,5.4-7.4,10.5l10.8,30.6c1.1,3.1,4.1,5.3,7.4,5.3h41.8c0.8,0,1.6,0.5,1.9,1.3l68,192.5
			c1.1,3.1,4.1,5.2,7.4,5.2h39.2c3.3,0,6.3-2.1,7.4-5.2l81.1-229.7c1.8-5.1-2-10.5-7.4-10.5H1716.8z"/>
		<path class="st21" d="M1811.7,729.3c-18.1,0-33.8-3.8-46.9-11.3c-13.1-7.6-23.2-18.4-30.2-32.2c-7.1-14-10.6-30.4-10.6-49.3
			c0-18.6,3.5-34.9,10.6-48.9c7.1-14.1,17.1-25.1,29.9-32.9c12.8-7.9,27.8-11.9,45.1-11.9c11.1,0,21.6,1.8,31.5,5.4
			c10,3.5,18.7,9,26.3,16.5c7.7,7.5,13.7,16.9,18.1,28.5c4.4,11.5,6.6,25.1,6.6,40.9V647h-148.1v-28.7h107.3
			c-0.1-8.2-1.8-15.4-5.3-21.8c-3.5-6.4-8.3-11.5-14.5-15.2c-6.1-3.7-13.3-5.5-21.4-5.5c-8.7,0-16.3,2.1-22.9,6.4
			c-6.6,4.2-11.7,9.6-15.4,16.5c-3.6,6.7-5.4,14.2-5.5,22.2V646c0,10.5,1.9,19.5,5.8,27.1c3.8,7.5,9.2,13.2,16.1,17.2
			c6.9,3.9,15,5.9,24.2,5.9c6.2,0,11.8-0.9,16.8-2.6c5-1.8,9.4-4.4,13.1-7.9c3.7-3.5,6.5-7.7,8.4-12.8l39.8,4.5
			c-2.5,10.5-7.3,19.7-14.3,27.5c-7,7.8-15.9,13.8-26.8,18.1C1838.2,727.1,1825.7,729.3,1811.7,729.3z"/>
	</g>
</g>
</svg>
