<svg xmlns="http://www.w3.org/2000/svg" width="24" height="24">
  <g>
    <path fill="#596AEC" d="M14.906 21.688a6.906 6.906 0 100-13.813 6.906 6.906 0 000 13.813z" />
    <path fill="#fff"
      d="M17.013 11.743l-1.623 5.011-1.623-5.01h-3.074l.479 1.355h1.425l2.057 5.824h1.473l2.536-7.18h-1.65z" />
  </g>
  <g>
    <path fill="#F5AC37" stroke="#fff" stroke-width=".667"
      d="M8.626 2.271a6.667 6.667 0 110 13.333 6.667 6.667 0 010-13.333z" />
    <path fill="#FEFEFD"
      d="M8.88 9.431h2.66c.058 0 .084 0 .089-.074a5.07 5.07 0 000-.814c0-.052-.027-.074-.084-.074H6.253c-.066 0-.083.022-.083.083v.78c0 .1 0 .1.105.1h2.607-.001l-.001-.001zm2.45-1.872a.086.086 0 000-.06 1.721 1.721 0 00-.157-.277 2.225 2.225 0 00-.323-.407 1.076 1.076 0 00-.202-.197 3.144 3.144 0 00-1.312-.665 3.258 3.258 0 00-.744-.078h-2.35c-.065 0-.074.026-.074.083v1.553c0 .065 0 .083.084.083H11.3s.044-.009.053-.035h-.023zm0 2.782a1.02 1.02 0 00-.222 0H6.256c-.065 0-.087 0-.087.088v1.518c0 .07 0 .088.087.088h2.24c.107.008.214 0 .32-.022a3.35 3.35 0 00.95-.21c.11-.039.217-.089.318-.149h.03a2.843 2.843 0 001.22-1.229s.03-.066-.002-.083h-.001l-.001-.001zm-6.04 2.481v-2.419c0-.057 0-.066-.07-.066h-.95c-.052 0-.073 0-.073-.07v-.83H5.21c.056 0 .078 0 .078-.075V8.54c0-.052 0-.065-.07-.065h-.95c-.052 0-.073 0-.073-.07v-.77c0-.048 0-.06.07-.06h.94c.066 0 .083 0 .083-.084v-2.36c0-.07 0-.087.088-.087h3.28c.239.01.476.035.71.08a4.29 4.29 0 011.37.506c.28.165.539.365.77.595.172.18.329.375.467.582.138.21.252.435.342.67.01.06.07.102.13.091h.784c.1 0 .1 0 .105.097v.717c0 .07-.027.088-.097.088h-.604c-.06 0-.078 0-.074.08.024.265.024.533 0 .8 0 .073 0 .082.084.082h.69c.03.04 0 .08 0 .12a.886.886 0 010 .151v.53c0 .074-.021.096-.087.096h-.827a.11.11 0 00-.127.083 3.512 3.512 0 01-.92 1.34c-.148.133-.304.26-.467.375-.175.101-.345.206-.525.29-.33.148-.677.258-1.033.327-.337.06-.68.088-1.023.083H5.288v-.004h.002-.001l.001-.001z" />
  </g>
  <g>
    <circle cx="19.277" cy="7.625" r="3.027" fill="#fff" stroke="#596AEC" stroke-width=".508" />
    <path fill="#596AEC"
      d="M19.348 6.341a.082.082 0 00-.078.06l-.539 1.75a.02.02 0 01-.039 0l-.539-1.75a.082.082 0 00-.078-.06h-.917c-.057 0-.096.059-.078.115l.113.335a.082.082 0 00.077.057h.434a.02.02 0 01.02.014l.707 2.106a.082.082 0 00.077.057h.408a.082.082 0 00.077-.057l.844-2.512c.018-.056-.021-.115-.078-.115h-.411zm.986 2.714c.438 0 .74-.225.817-.569l-.413-.049c-.06.168-.207.255-.398.255-.286 0-.476-.198-.48-.536h1.31v-.143c0-.694-.397-.998-.859-.998-.538 0-.89.415-.89 1.025 0 .62.347 1.015.913 1.015zm-.472-1.213c.013-.252.19-.465.455-.465.254 0 .426.196.428.465h-.883z" />
  </g>
</svg>