<svg xmlns="http://www.w3.org/2000/svg" width="24" height="24" fill="none">
  <g>
    <path fill="#F5AC37" stroke="#fff" stroke-width=".667"
      d="M8.626 2.271a6.667 6.667 0 110 13.333 6.667 6.667 0 010-13.333z" />
    <path fill="#FEFEFD"
      d="M8.88 9.431h2.66c.058 0 .084 0 .089-.074a5.07 5.07 0 000-.814c0-.052-.027-.074-.084-.074H6.253c-.066 0-.083.022-.083.083v.78c0 .1 0 .1.105.1h2.607-.001zm2.45-1.872a.086.086 0 000-.06 1.721 1.721 0 00-.157-.277 2.225 2.225 0 00-.323-.407 1.076 1.076 0 00-.202-.197 3.144 3.144 0 00-1.312-.665 3.258 3.258 0 00-.744-.078h-2.35c-.065 0-.074.026-.074.083v1.553c0 .065 0 .083.084.083H11.3s.044-.009.053-.035h-.022zm0 2.782a1.02 1.02 0 00-.222 0H6.256c-.065 0-.087 0-.087.088v1.518c0 .07 0 .088.087.088h2.24c.107.008.214 0 .32-.022a3.35 3.35 0 00.95-.21c.11-.039.217-.089.318-.149h.03a2.843 2.843 0 001.22-1.229s.03-.066-.002-.083h-.001zM5.29 12.822v-2.419c0-.057 0-.066-.07-.066h-.95c-.052 0-.073 0-.073-.07v-.83H5.21c.056 0 .078 0 .078-.075V8.54c0-.052 0-.065-.07-.065h-.95c-.052 0-.073 0-.073-.07v-.77c0-.048 0-.06.07-.06h.94c.066 0 .083 0 .083-.084V5.131c0-.07 0-.087.088-.087h3.28c.239.01.476.035.71.08a4.29 4.29 0 011.37.506c.28.165.539.365.77.595.172.18.329.375.467.582.138.21.252.435.342.67.01.06.07.102.13.091h.784c.1 0 .1 0 .105.097v.717c0 .07-.027.088-.097.088h-.604c-.06 0-.078 0-.074.08.024.265.024.533 0 .8 0 .073 0 .082.084.082h.69c.03.04 0 .08 0 .12a.886.886 0 010 .151v.53c0 .074-.021.096-.087.096h-.827a.11.11 0 00-.127.083 3.512 3.512 0 01-.92 1.34c-.148.133-.304.26-.467.375-.175.101-.345.206-.525.29-.33.148-.677.258-1.033.327-.337.06-.68.088-1.023.083H5.288v-.004h.002-.001z" />
  </g>
  <g>
    <path fill="#5A5564"
      d="M20.018 11.062l-.382.385a5.394 5.443 0 010 7.345l.382.385a5.938 5.991 0 000-8.123v.01-.002zm-8.013.034a5.393 5.442 0 017.28 0l.38-.384a5.938 5.991 0 00-8.05 0l.39.385h0zm-.356 7.7a5.394 5.443 0 010-7.34l-.381-.386a5.938 5.991 0 000 8.123l.38-.397h0zm7.63.354a5.393 5.442 0 01-7.28 0l-.38.385a5.937 5.99 0 008.05 0l-.39-.385h0z" />
    <path fill="#F09242"
      d="M18.046 13.842c-.075-.802-.761-1.07-1.63-1.153v-1.105h-.67v1.084h-.536v-1.084h-.665v1.112h-1.36v.724s.495-.009.487 0a.347.35 0 01.38.298v3.045a.235.237 0 01-.08.165.233.235 0 01-.173.058c.009.008-.487 0-.487 0l-.128.81h1.347v1.13h.67v-1.114h.537v1.108h.672v-1.118c1.133-.07 1.923-.35 2.02-1.42.08-.862-.32-1.247-.961-1.4.39-.195.63-.554.576-1.14h0zm-.94 2.406c0 .84-1.427.745-1.881.745v-1.49c.454 0 1.882-.132 1.882.745h-.001zm-.31-2.1c0 .768-1.191.675-1.57.675v-1.357c.379 0 1.57-.12 1.57.681z" />
    <path fill="#282138"
      d="M15.64 22.125a6.938 7 0 11.002-14 6.938 7 0 01-.002 14zm0-13.454a6.393 6.45 0 10.01 12.9 6.393 6.45 0 00-.01-12.9z" />
  </g>
  <g>
    <circle cx="19.277" cy="7.625" r="3.027" fill="#fff" stroke="#596AEC" stroke-width=".508" />
    <path fill="#596AEC"
      d="M19.348 6.341a.082.082 0 00-.078.06l-.539 1.75a.02.02 0 01-.039 0l-.539-1.75a.082.082 0 00-.078-.06h-.917c-.057 0-.096.059-.078.115l.113.335a.082.082 0 00.077.057h.434a.02.02 0 01.02.014l.707 2.106a.082.082 0 00.077.057h.408a.082.082 0 00.077-.057l.844-2.512c.018-.056-.021-.115-.078-.115h-.411zm.986 2.714c.438 0 .74-.225.817-.569l-.413-.049c-.06.168-.207.255-.398.255-.286 0-.476-.198-.48-.536h1.31v-.143c0-.694-.397-.998-.859-.998-.538 0-.89.415-.89 1.025 0 .62.347 1.015.913 1.015zm-.472-1.213c.013-.252.19-.465.455-.465.254 0 .426.196.428.465h-.883z" />
  </g>
</svg>