<svg width="26" height="24" viewBox="0 0 26 24" fill="none" xmlns="http://www.w3.org/2000/svg">
<path d="M9 15C12.3137 15 15 12.3137 15 9C15 5.68629 12.3137 3 9 3C5.68629 3 3 5.68629 3 9C3 12.3137 5.68629 15 9 15Z" fill="#F4B731"/>
<path fill-rule="evenodd" clip-rule="evenodd" d="M6.47888 6L8.93588 6C10.4303 6 11.5631 6.7935 11.9846 7.94775H12.75V8.64563L12.1459 8.64563C12.1575 8.75588 12.1635 8.86838 12.1635 8.98238V8.99962C12.1635 9.12787 12.156 9.25463 12.141 9.37838L12.75 9.37838V10.0759H11.97C11.5376 11.2144 10.4137 12 8.93625 12H6.47888V10.0759H5.625V9.37838H6.47888L6.47888 8.64563H5.625V7.94812H6.47888V6V6ZM7.1655 10.0759V11.3741H8.9355C10.0283 11.3741 10.8398 10.854 11.2174 10.0759H7.1655V10.0759ZM11.4278 9.37838H7.1655V8.64563H11.4293C11.4446 8.76075 11.4529 8.87887 11.4529 8.99962V9.0165C11.4529 9.13988 11.4443 9.26025 11.4278 9.378V9.37838ZM8.93625 6.62437C10.0335 6.62437 10.8476 7.15837 11.223 7.94737L7.1655 7.94737V6.62475L8.9355 6.62475L8.93625 6.62437Z" fill="white"/>
<g clip-path="url(#clip0_4062_267321)">
<path d="M18.2512 8.23155C17.8868 8.5918 17.553 8.98224 17.2563 9.39858L17.1625 9.36837C16.6215 9.19364 16.0608 9.08579 15.4957 9.04911C15.3255 9.03617 14.6906 9.03617 14.4834 9.04911C13.8572 9.0901 13.3773 9.18286 12.8318 9.37053C12.81 9.37916 12.7904 9.38563 12.7707 9.3921C12.4631 8.97793 12.1206 8.58964 11.7432 8.23371C13.554 7.31691 15.6724 7.2069 17.5683 7.92955C17.7712 8.00505 17.9697 8.09349 18.1639 8.18841L18.2512 8.23155Z" fill="#F00500"/>
<path d="M21.6283 16.4137C21.3534 17.1881 20.9411 17.9064 20.4066 18.532C20.1164 18.8685 19.7957 19.177 19.451 19.4574C18.6438 20.1003 17.7013 20.5597 16.6955 20.8013C15.5828 21.0667 14.4222 21.0667 13.3095 20.8013C12.3015 20.5597 11.3612 20.1003 10.554 19.4574C10.2093 19.177 9.88858 18.8685 9.59841 18.532C8.06031 16.7351 7.59343 14.2673 8.37666 12.0432C8.52502 11.6312 8.71046 11.2343 8.93299 10.8568C9.03553 10.6842 9.16207 10.4901 9.22316 10.4103C9.43261 11.3012 9.69005 12.0842 9.78604 12.3668C9.7795 12.3819 9.77077 12.3992 9.76204 12.4143C9.25371 13.4325 8.97881 14.414 8.91336 15.458C8.91336 15.471 8.91118 15.4861 8.91118 15.499C8.89372 15.8118 8.90245 15.9607 8.95481 16.157C9.11844 16.7718 9.62241 17.4491 10.4122 18.1135C11.7059 19.2007 13.46 19.9859 14.7887 20.0765C16.1741 20.1693 18.2183 19.369 19.5797 18.1998C19.7935 18.0121 19.9942 17.8137 20.1819 17.6023C20.3171 17.4469 20.5178 17.1795 20.5026 17.1795C20.4982 17.1795 20.5026 17.1751 20.5113 17.1708C20.5178 17.1665 20.5244 17.16 20.52 17.1557C20.5178 17.1536 20.5222 17.1471 20.5288 17.1449C20.5353 17.1428 20.5397 17.1385 20.5375 17.1342C20.5353 17.1298 20.5375 17.1255 20.5462 17.1234C20.5528 17.1212 20.5549 17.1147 20.5528 17.1104C20.5506 17.1061 20.5528 17.1018 20.5571 17.1018C20.5615 17.1018 20.5658 17.0953 20.5658 17.091C20.5658 17.0867 20.5702 17.0802 20.5746 17.0802C20.5789 17.0802 20.5833 17.0759 20.5833 17.0716C20.5898 17.0543 20.6008 17.0371 20.6117 17.022C20.6444 16.9724 20.7753 16.7416 20.7927 16.7027C20.9171 16.4244 20.9956 16.1764 21.0327 15.9283C21.0502 15.8097 21.0611 15.5918 21.0524 15.54C21.0502 15.5314 21.0502 15.5163 21.048 15.4926C21.0436 15.4494 21.0415 15.3847 21.0371 15.32C21.0327 15.2229 21.024 15.087 21.0175 15.0201C20.9236 14.0408 20.6706 13.2405 20.1906 12.3927C20.171 12.3603 20.1535 12.328 20.1426 12.3021C20.1382 12.2956 20.136 12.2892 20.1339 12.2848C20.2015 12.0842 20.4786 11.2451 20.6989 10.2852L20.7033 10.2895L20.736 10.3326C20.7927 10.4081 20.9433 10.6325 21.0109 10.7403C21.3185 11.2365 21.5585 11.7693 21.7287 12.3258C22.1236 13.6654 22.0909 15.0935 21.6283 16.4137Z" fill="#F00500"/>
<path d="M18.7967 13.8354C18.7902 13.8699 18.6876 13.9735 18.5851 14.049C18.284 14.2669 17.7451 14.4696 17.1975 14.5667C16.8855 14.6228 16.5736 14.6314 16.4797 14.5861C16.4187 14.5559 16.4099 14.5322 16.4317 14.4545C16.4776 14.2927 16.6259 14.1159 16.8572 13.9498C16.975 13.8656 17.4528 13.5787 17.6753 13.4579C18.0418 13.2595 18.3386 13.1408 18.5393 13.1128C18.6025 13.1041 18.6789 13.102 18.7029 13.1128C18.7422 13.1279 18.7858 13.2422 18.8033 13.3803C18.812 13.4536 18.8076 13.7772 18.7967 13.8354Z" fill="black"/>
<path d="M13.6569 14.5495C13.6438 14.5754 13.5784 14.6034 13.5042 14.6142C13.43 14.625 13.2031 14.6185 13.0744 14.6034C12.6119 14.543 12.121 14.4028 11.7632 14.2302C11.5625 14.1332 11.4185 14.0361 11.3116 13.9304L11.2505 13.8678L11.244 13.7859C11.2331 13.6435 11.2352 13.4191 11.2527 13.3393C11.2636 13.2725 11.2876 13.2077 11.3203 13.1495C11.3378 13.1279 11.3378 13.1279 11.4163 13.1279C11.5123 13.1279 11.593 13.143 11.7239 13.184C11.9923 13.266 12.3915 13.4644 12.8781 13.7535C13.2795 13.9908 13.43 14.1073 13.5457 14.2669C13.6242 14.3661 13.6766 14.5064 13.6569 14.5495Z" fill="black"/>
<path d="M16.7458 17.5529C16.7458 17.5594 16.7197 17.6629 16.6869 17.7859C16.6542 17.9089 16.628 18.0081 16.628 18.0124C16.604 18.0146 16.5822 18.0167 16.5582 18.0146H16.4884L16.3924 18.2389C16.34 18.3619 16.292 18.4762 16.2855 18.4934L16.2724 18.5236L16.2266 18.4503L16.1808 18.377V17.7794L16.1633 17.7837C16.1262 17.7924 15.8622 17.8269 15.7466 17.8377C15.2688 17.8851 14.7888 17.8743 14.3132 17.8075C14.2369 17.7967 14.1714 17.7881 14.1692 17.7902C14.1671 17.7924 14.1692 17.9304 14.1736 18.1008L14.1802 18.4072L14.1431 18.4632C14.1234 18.4934 14.1038 18.5193 14.1038 18.5215C14.0972 18.528 14.0754 18.4934 14.0253 18.3942C13.9707 18.2907 13.9314 18.1807 13.9031 18.0663L13.8878 18.0038L13.8202 18.0081L13.7525 18.0146L13.7351 17.9347C13.7264 17.8916 13.7154 17.8247 13.7111 17.7881L13.7045 17.719L13.6478 17.6694C13.6151 17.6414 13.5824 17.6133 13.5758 17.609C13.5649 17.6004 13.5605 17.5853 13.5605 17.5723V17.5465L13.8333 17.5486L14.106 17.5508L14.1147 17.5788L14.1234 17.6069L14.2172 17.6112C14.2696 17.6133 14.4354 17.6176 14.5838 17.622L14.8565 17.6284L14.9263 17.5206L14.9983 17.4127H15.0899L15.0877 17.1884L15.0856 16.964L14.9656 16.9122C14.5794 16.744 14.3525 16.552 14.2674 16.319C14.25 16.2716 14.25 16.2543 14.2456 16.0386C14.2434 15.825 14.2434 15.8056 14.2587 15.7582C14.2892 15.6503 14.3743 15.5662 14.4834 15.5381C14.5205 15.5273 14.6187 15.5273 15.1336 15.5273L15.7401 15.5295L15.8077 15.5619C15.8884 15.6007 15.9255 15.6287 15.9713 15.6891C16.0237 15.7582 16.039 15.8121 16.039 15.9437C16.039 16.1313 16.0259 16.2931 16.0062 16.3579C15.9779 16.4463 15.9342 16.5304 15.8797 16.6059C15.7706 16.744 15.5721 16.882 15.391 16.9446L15.3386 16.964L15.3408 17.1905L15.343 17.417L15.391 17.4213L15.439 17.4256L15.5044 17.5227L15.5677 17.6198H15.8601C16.0215 17.6198 16.1633 17.622 16.1764 17.6241C16.1982 17.6284 16.2026 17.6263 16.2244 17.5896L16.2506 17.5508H16.5015C16.6891 17.5421 16.7458 17.5464 16.7458 17.5529Z" fill="black"/>
<path d="M15.5937 18.1716C15.5522 18.1954 15.5239 18.2062 15.5173 18.2018C15.5108 18.1997 15.4802 18.1738 15.4475 18.1501L15.3886 18.1026L15.3275 18.1673C15.1944 18.3097 15.1901 18.3162 15.1508 18.3183C15.0897 18.3248 15.0766 18.314 15.0024 18.204C14.9632 18.1479 14.9326 18.1005 14.9326 18.1005C14.9326 18.1005 14.9043 18.0961 14.8715 18.094L14.8104 18.0875L14.7821 18.1458L14.7537 18.204L14.7035 18.1889C14.6643 18.176 14.625 18.1609 14.5879 18.1436L14.5225 18.1112V17.9883L15.1028 17.9904L15.6831 17.9926L15.6853 18.0508C15.6875 18.1199 15.6897 18.1177 15.5937 18.1716Z" fill="black"/>
<path d="M21.0483 15.5401C21.0461 15.5315 21.0461 15.5164 21.0439 15.4927C20.5203 15.4366 19.0259 15.4021 17.6383 16.5346C17.6383 16.5346 17.1911 14.5068 15.0966 14.5068C13.0022 14.5068 12.2255 16.5346 12.2255 16.5346C11.0517 15.2856 9.48092 15.3762 8.91367 15.4581C8.91367 15.4711 8.91149 15.4862 8.91149 15.4991C8.89404 15.8119 8.90276 15.9608 8.95512 16.1571C9.11875 16.7719 9.62273 17.4492 10.4125 18.1136C11.7063 19.2008 13.4603 19.986 14.789 20.0766C16.1744 20.1694 18.2186 19.3691 19.58 18.1999C19.7938 18.0122 19.9945 17.8138 20.1822 17.6024C20.3174 17.4471 20.5182 17.1796 20.5029 17.1796C20.4985 17.1796 20.5029 17.1752 20.5116 17.1709C20.5182 17.1666 20.5247 17.1601 20.5203 17.1558C20.5182 17.1537 20.5225 17.1472 20.5291 17.145C20.5356 17.1429 20.54 17.1386 20.5378 17.1343C20.5356 17.1299 20.5378 17.1256 20.5465 17.1235C20.5531 17.1213 20.5552 17.1148 20.5531 17.1105C20.5509 17.1062 20.5531 17.1019 20.5574 17.1019C20.5618 17.1019 20.5662 17.0954 20.5662 17.0911C20.5662 17.0868 20.5705 17.0803 20.5749 17.0803C20.5792 17.0803 20.5836 17.076 20.5836 17.0717C20.5902 17.0544 20.6011 17.0372 20.612 17.0221C20.6447 16.9725 20.7756 16.7417 20.7931 16.7028C20.9174 16.4246 20.996 16.1765 21.033 15.9284C21.0461 15.8098 21.057 15.5919 21.0483 15.5401ZM15.5941 18.1719C15.5526 18.1956 15.5242 18.2064 15.5177 18.2021C15.5111 18.1999 15.4806 18.174 15.4479 18.1503L15.389 18.1028L15.3279 18.1675C15.1948 18.3099 15.1904 18.3164 15.1512 18.3185C15.0901 18.325 15.077 18.3142 15.0028 18.2042C14.9635 18.1481 14.933 18.1007 14.933 18.1007C14.933 18.1007 14.9046 18.0964 14.8719 18.0942L14.8108 18.0877L14.7825 18.146L14.7541 18.2042L14.7039 18.1891C14.6646 18.1762 14.6254 18.1611 14.5883 18.1438L14.5228 18.1115V17.9885L15.1032 17.9907L15.6835 17.9928L15.6857 18.0511C15.6879 18.1201 15.69 18.1179 15.5941 18.1719ZM16.6849 17.7836C16.6522 17.9065 16.626 18.0058 16.626 18.0101C16.602 18.0122 16.5802 18.0144 16.5562 18.0122H16.4864L16.3926 18.2387C16.3402 18.3617 16.2922 18.476 16.2857 18.4933L16.2726 18.5235L16.2267 18.4501L16.1809 18.3768V17.7793L16.1635 17.7836C16.1264 17.7922 15.8624 17.8267 15.7468 17.8375C15.269 17.885 14.789 17.8742 14.3134 17.8073C14.237 17.7965 14.1716 17.7879 14.1694 17.79C14.1672 17.7922 14.1694 17.9303 14.1738 18.1007L14.1803 18.407L14.1432 18.4631C14.1236 18.4933 14.1039 18.5192 14.1039 18.5213C14.0974 18.5278 14.0756 18.4933 14.0254 18.394C13.9709 18.2905 13.9316 18.1805 13.9032 18.0662L13.888 18.0036L13.8203 18.0079L13.7527 18.0144L13.7352 17.9346C13.7265 17.8914 13.7156 17.8246 13.7112 17.7879L13.7047 17.7189L13.648 17.6692C13.6152 17.6412 13.5825 17.6132 13.576 17.6088C13.5651 17.6002 13.5607 17.5851 13.5607 17.5722V17.5463L13.8334 17.5484L14.1061 17.5506L14.1149 17.5786L14.1236 17.6067L14.2174 17.611C14.2698 17.6132 14.4356 17.6175 14.5839 17.6218L14.8566 17.6283L14.9265 17.5204L14.9984 17.4125H15.0901L15.0879 17.1882L15.0857 16.9638L14.9657 16.9121C14.5796 16.7438 14.3527 16.5518 14.2676 16.3189C14.2501 16.2714 14.2501 16.2541 14.2458 16.0384C14.2436 15.8249 14.2436 15.8054 14.2588 15.758C14.2894 15.6501 14.3745 15.566 14.4836 15.538C14.5207 15.5272 14.6188 15.5272 15.1337 15.5272L15.7402 15.5293L15.8079 15.5617C15.8886 15.6005 15.9257 15.6286 15.9715 15.689C16.0238 15.758 16.0391 15.8119 16.0391 15.9435C16.0391 16.1312 16.026 16.293 16.0064 16.3577C15.978 16.4461 15.9344 16.5303 15.8799 16.6058C15.7708 16.7438 15.5722 16.8819 15.3912 16.9444L15.3388 16.9638L15.341 17.1904L15.3432 17.4169L15.3912 17.4212L15.4392 17.4255L15.5046 17.5226L15.5679 17.6196H15.8602C16.0217 17.6196 16.1635 17.6218 16.1766 17.6239C16.1984 17.6283 16.2027 17.6261 16.2246 17.5894L16.2507 17.5506H16.5016C16.6958 17.5506 16.7525 17.5528 16.7525 17.5592C16.746 17.5571 16.7176 17.6628 16.6849 17.7836Z" fill="white"/>
<path d="M21.0307 15.32C21.0264 15.2229 21.0176 15.087 21.0111 15.0202C20.9173 14.0408 20.6642 13.2405 20.1842 12.3927C20.1646 12.3604 20.1471 12.328 20.1362 12.3021C20.1319 12.2957 20.1297 12.2892 20.1275 12.2849C20.1951 12.0843 20.4722 11.2451 20.6926 10.2852C20.9915 8.98226 21.1813 7.45931 20.6009 7.00199C20.6009 7.00199 19.5974 6.92864 18.2534 8.23157C17.8891 8.59182 17.5553 8.98227 17.2586 9.3986L17.1648 9.3684C16.6237 9.19367 16.063 9.08581 15.4979 9.04914C15.3278 9.03619 14.6929 9.03619 14.4856 9.04914C13.8595 9.09012 13.3795 9.18288 12.8341 9.37055C12.8122 9.37918 12.7926 9.38565 12.773 9.39213C12.4654 8.97795 12.1228 8.58966 11.7454 8.23373C10.3469 6.92433 9.30625 6.99983 9.30625 6.99983C8.69101 7.47225 8.90045 9.06424 9.21898 10.4103C9.42843 11.3012 9.68587 12.0843 9.78186 12.3669C9.77532 12.382 9.76659 12.3992 9.75786 12.4143C9.24953 13.4325 8.97463 14.414 8.90918 15.4581C9.4786 15.3761 11.0473 15.2833 12.2232 16.5345C12.2232 16.5345 12.9999 14.5068 15.0943 14.5068C17.1887 14.5068 17.636 16.5345 17.636 16.5345C19.0236 15.402 20.518 15.4387 21.0416 15.4926C21.0395 15.4494 21.0351 15.3847 21.0307 15.32ZM10.1942 11.5536C10.1942 11.5536 9.37825 9.53666 9.58769 8.38473C9.6226 8.19059 9.68805 8.02017 9.79059 7.89074C9.79059 7.89074 10.7156 7.98134 12.2079 9.62079C12.2079 9.62079 11.9243 9.75669 11.5447 10.0457C11.5447 10.0457 11.5425 10.0479 11.5403 10.0479C11.128 10.3607 10.6 10.8568 10.1942 11.5536ZM13.6566 14.5499C13.6435 14.5758 13.578 14.6038 13.5038 14.6146C13.4297 14.6254 13.2028 14.6189 13.0741 14.6038C12.6115 14.5434 12.1206 14.4032 11.7629 14.2306C11.5621 14.1336 11.4181 14.0365 11.3112 13.9308L11.2501 13.8682L11.2436 13.7863C11.2327 13.6439 11.2349 13.4196 11.2523 13.3397C11.2632 13.2729 11.2872 13.2082 11.32 13.1499C11.3374 13.1283 11.3374 13.1283 11.416 13.1283C11.512 13.1283 11.5927 13.1434 11.7236 13.1844C11.9919 13.2664 12.3912 13.4649 12.8777 13.7539C13.2791 13.9912 13.4297 14.1077 13.5453 14.2673C13.6238 14.3665 13.6762 14.5068 13.6566 14.5499ZM18.7967 13.8359C18.7901 13.8704 18.6876 13.9739 18.585 14.0494C18.284 14.2673 17.7451 14.4701 17.1975 14.5672C16.8855 14.6233 16.5735 14.6319 16.4797 14.5866C16.4186 14.5564 16.4099 14.5326 16.4317 14.455C16.4775 14.2932 16.6259 14.1163 16.8571 13.9502C16.9749 13.8661 17.4527 13.5792 17.6753 13.4584C18.0418 13.2599 18.3385 13.1413 18.5392 13.1132C18.6025 13.1046 18.6789 13.1025 18.7029 13.1132C18.7421 13.1283 18.7858 13.2427 18.8032 13.3807C18.8119 13.4541 18.8076 13.7776 18.7967 13.8359ZM18.4345 10.0457L18.4301 10.0436C18.0636 9.75453 17.7887 9.61863 17.7887 9.61863C19.2308 7.97918 20.1231 7.88858 20.1231 7.88858C20.2213 8.02017 20.2846 8.18843 20.3195 8.38257C20.5224 9.5345 19.7348 11.5536 19.7348 11.5536C19.4054 10.9733 18.9625 10.4599 18.4345 10.0457Z" fill="#FFA409"/>
<path d="M20.322 8.38169C20.1518 8.36011 19.3468 8.3558 18.4348 10.0449L18.4305 10.0427C18.064 9.75364 17.7891 9.61774 17.7891 9.61774C19.2312 7.9783 20.1235 7.8877 20.1235 7.8877C20.2238 8.01928 20.2871 8.18754 20.322 8.38169Z" fill="#FF9300"/>
<path d="M19.737 11.5523C19.4054 10.9698 18.9647 10.4586 18.4346 10.0444C19.3465 8.35535 20.1494 8.35967 20.3217 8.38124C20.5246 9.53532 19.737 11.5523 19.737 11.5523Z" fill="#FF8300"/>
<path d="M20.355 8.38838C20.3441 8.3862 20.3332 8.38402 20.3223 8.38184L20.355 8.38838Z" fill="#FF8300"/>
<path d="M12.2074 9.61774C12.2074 9.61774 11.9237 9.75364 11.5441 10.0427C11.5441 10.0427 11.5419 10.0449 11.5398 10.0449C10.5951 8.35364 9.76386 8.36011 9.58496 8.38169C9.61987 8.18754 9.68532 8.01713 9.78786 7.8877C9.79004 7.8877 10.7151 7.9783 12.2074 9.61774Z" fill="#FF9300"/>
<path d="M11.5429 10.0444C11.1284 10.3594 10.6004 10.8533 10.1946 11.5523C10.1946 11.5523 9.37865 9.53532 9.58809 8.38124C9.76481 8.35967 10.5982 8.35535 11.5429 10.0444Z" fill="#FF8300"/>
<path d="M9.58764 8.38184C9.57673 8.38402 9.56364 8.3862 9.55273 8.38838L9.58764 8.38184Z" fill="#FF8300"/>
<path d="M17.5286 12.6729C17.5286 12.6729 16.8304 12.716 16.9177 12.1768C17.005 11.6375 17.5504 11.5727 17.7031 11.5943C17.8558 11.6159 18.4667 11.8316 18.3576 12.2846C18.2485 12.7376 18.0958 12.6513 18.0086 12.6729C17.9213 12.6945 17.5286 12.6729 17.5286 12.6729Z" fill="white"/>
<path d="M12.3801 12.6729C12.3801 12.6729 11.682 12.716 11.7693 12.1768C11.8565 11.6375 12.402 11.5727 12.5547 11.5943C12.7074 11.6159 13.3183 11.8316 13.2092 12.2846C13.1001 12.7376 12.9474 12.6513 12.8601 12.6729C12.7729 12.6945 12.3801 12.6729 12.3801 12.6729Z" fill="white"/>
</g>
<g filter="url(#filter0_d_4062_267321)">
<circle cx="18.9961" cy="8" r="2.74609" fill="white" stroke="#596AEC" stroke-width="0.507812"/>
<path d="M19.0602 6.89258C19.028 6.89258 18.9995 6.91332 18.9896 6.94395L18.5007 8.45387C18.4952 8.47098 18.471 8.47098 18.4654 8.45387L17.9762 6.94393C17.9663 6.91332 17.9378 6.89258 17.9056 6.89258H17.0733C17.0221 6.89258 16.9863 6.94322 17.0033 6.99152L17.1052 7.28027C17.1157 7.30996 17.1437 7.32981 17.1752 7.32981H17.5691C17.577 7.32981 17.584 7.33477 17.5866 7.34218L18.228 9.15821C18.2385 9.18789 18.2665 9.20772 18.298 9.20772H18.6682C18.6996 9.20772 18.7277 9.18789 18.7381 9.15821L19.5033 6.99153C19.5203 6.94323 19.4845 6.89258 19.4333 6.89258H19.0602Z" fill="#596AEC"/>
<path d="M19.9547 9.23349C19.7838 9.23349 19.6362 9.19798 19.512 9.12695C19.3884 9.05519 19.2933 8.95384 19.2268 8.82289C19.1602 8.6912 19.1269 8.53621 19.1269 8.35791C19.1269 8.18257 19.1602 8.02869 19.2268 7.89626C19.2941 7.76309 19.388 7.65952 19.5086 7.58554C19.6292 7.51082 19.7709 7.47346 19.9337 7.47346C20.0387 7.47346 20.1378 7.49047 20.2311 7.5245C20.325 7.55779 20.4079 7.60958 20.4796 7.67987C20.5521 7.75015 20.6091 7.83967 20.6505 7.94842C20.692 8.05643 20.7127 8.18516 20.7127 8.33461V8.45779H19.3155V8.18701H20.3276C20.3269 8.11007 20.3102 8.04164 20.2777 7.98171C20.2451 7.92105 20.1996 7.87333 20.1412 7.83856C20.0835 7.80378 20.0161 7.7864 19.9392 7.7864C19.8571 7.7864 19.785 7.80637 19.7228 7.84632C19.6607 7.88553 19.6122 7.93732 19.5774 8.00169C19.5434 8.06531 19.526 8.13522 19.5253 8.21143V8.4478C19.5253 8.54693 19.5434 8.63201 19.5797 8.70304C19.6159 8.77332 19.6666 8.82733 19.7317 8.86506C19.7968 8.90205 19.873 8.92054 19.9603 8.92054C20.0187 8.92054 20.0716 8.91241 20.119 8.89613C20.1663 8.87911 20.2074 8.85433 20.2422 8.82178C20.2769 8.78923 20.3032 8.74891 20.321 8.70082L20.696 8.74299C20.6724 8.84212 20.6272 8.92868 20.5607 9.00266C20.4948 9.07591 20.4105 9.13287 20.3076 9.17356C20.2048 9.21351 20.0872 9.23349 19.9547 9.23349Z" fill="#596AEC"/>
</g>
<defs>
<filter id="filter0_d_4062_267321" x="12.2461" y="2.75" width="13.5" height="13.5" filterUnits="userSpaceOnUse" color-interpolation-filters="sRGB">
<feFlood flood-opacity="0" result="BackgroundImageFix"/>
<feColorMatrix in="SourceAlpha" type="matrix" values="0 0 0 0 0 0 0 0 0 0 0 0 0 0 0 0 0 0 127 0" result="hardAlpha"/>
<feOffset dy="1.5"/>
<feGaussianBlur stdDeviation="1.875"/>
<feComposite in2="hardAlpha" operator="out"/>
<feColorMatrix type="matrix" values="0 0 0 0 0.34902 0 0 0 0 0.415686 0 0 0 0 0.92549 0 0 0 0.15 0"/>
<feBlend mode="normal" in2="BackgroundImageFix" result="effect1_dropShadow_4062_267321"/>
<feBlend mode="normal" in="SourceGraphic" in2="effect1_dropShadow_4062_267321" result="shape"/>
</filter>
<clipPath id="clip0_4062_267321">
<rect width="14" height="14" fill="white" transform="translate(8 7)"/>
</clipPath>
</defs>
</svg>
