<svg width="26" height="24" viewBox="0 0 26 24" fill="none" xmlns="http://www.w3.org/2000/svg">
<path d="M9 15C12.3137 15 15 12.3137 15 9C15 5.68629 12.3137 3 9 3C5.68629 3 3 5.68629 3 9C3 12.3137 5.68629 15 9 15Z" fill="#F4B731"/>
<path fill-rule="evenodd" clip-rule="evenodd" d="M6.47888 6L8.93588 6C10.4303 6 11.5631 6.7935 11.9846 7.94775H12.75V8.64563L12.1459 8.64563C12.1575 8.75588 12.1635 8.86838 12.1635 8.98238V8.99962C12.1635 9.12787 12.156 9.25463 12.141 9.37838L12.75 9.37838V10.0759H11.97C11.5376 11.2144 10.4137 12 8.93625 12H6.47888V10.0759H5.625V9.37838H6.47888L6.47888 8.64563H5.625V7.94812H6.47888V6V6ZM7.1655 10.0759V11.3741H8.9355C10.0283 11.3741 10.8398 10.854 11.2174 10.0759H7.1655V10.0759ZM11.4278 9.37838H7.1655V8.64563H11.4293C11.4446 8.76075 11.4529 8.87887 11.4529 8.99962V9.0165C11.4529 9.13988 11.4443 9.26025 11.4278 9.378V9.37838ZM8.93625 6.62437C10.0335 6.62437 10.8476 7.15837 11.223 7.94737L7.1655 7.94737V6.62475L8.9355 6.62475L8.93625 6.62437Z" fill="white"/>
<path d="M15.95 20.4737C15.9332 20.4787 15.917 20.4836 15.9011 20.4884C15.66 20.5611 15.5087 20.6067 15.0647 20.6371C14.5585 20.6718 13.6861 20.6849 11.9247 20.6849C10.9848 20.6849 10.1426 20.5458 9.54255 20.3273C9.24171 20.2177 9.01231 20.092 8.86185 19.9624C8.71077 19.8323 8.65898 19.7168 8.65898 19.6226C8.65898 19.5285 8.71077 19.413 8.86185 19.2829C9.0123 19.1533 9.24169 19.0276 9.54253 18.918C10.1426 18.6994 10.9848 18.5604 11.9247 18.5604C12.8265 18.5604 14.0119 19.0534 14.8881 19.5915C15.3248 19.8597 15.6649 20.1272 15.8455 20.3316C15.9015 20.395 15.933 20.4422 15.95 20.4737Z" fill="black" stroke="black" stroke-width="0.4"/>
<path d="M19.915 10.1507L20.0768 10.3252L19.9353 10.5165C15.346 16.7216 12.7022 19.5311 11.5805 19.1543C10.8973 18.9248 10.2121 18.2345 9.52688 17.2322C9.28603 16.8799 9.05987 16.5089 8.85417 16.1397C8.7172 15.8939 8.60126 15.6697 8.54106 15.5434C8.46428 15.3823 8.43186 15.283 8.40614 15.1527C8.40457 15.1447 8.40457 15.1447 8.40307 15.137C8.39234 15.0817 8.38863 15.0642 8.3806 15.034C8.24251 14.5135 8.17188 13.9743 8.17188 13.426C8.17188 9.97193 10.9719 7.17187 14.426 7.17187C15.5081 7.17187 16.5509 7.44727 17.475 7.96425L17.4989 7.97918C18.2555 8.50596 19.0604 9.22981 19.915 10.1507ZM17.1827 8.45816C16.3466 7.99317 15.4046 7.74565 14.426 7.74565C11.2888 7.74565 8.74565 10.2888 8.74565 13.426C8.74565 13.9245 8.8098 14.4143 8.93518 14.8868C8.94758 14.9336 8.95319 14.96 8.96634 15.0277C8.96772 15.0348 8.96772 15.0348 8.96905 15.0416C8.98565 15.1257 9.00316 15.1793 9.059 15.2965C9.11392 15.4117 9.22428 15.6251 9.3554 15.8605C9.5531 16.2153 9.77035 16.5717 10.0005 16.9084C10.6196 17.814 11.2336 18.4325 11.7632 18.6104C12.4696 18.8477 15.129 16.0326 19.3317 10.3675C18.5687 9.56211 17.8519 8.92566 17.1827 8.45816Z" fill="black"/>
<path d="M14.4264 7.94609C15.3675 7.94609 16.2728 8.18317 17.077 8.62845C17.6961 9.062 18.3611 9.64631 19.071 10.3841C17.0172 13.1464 15.341 15.2144 14.09 16.567C13.4535 17.2551 12.9324 17.7523 12.5312 18.0612C12.3301 18.2161 12.1664 18.318 12.0388 18.3741C11.9047 18.433 11.8439 18.4268 11.8274 18.4213C11.603 18.3459 11.3425 18.1698 11.0556 17.8896C10.7708 17.6115 10.4708 17.2417 10.1661 16.796C9.93982 16.465 9.72573 16.1139 9.53056 15.7636C9.40072 15.5305 9.29251 15.3211 9.23999 15.2109C9.18944 15.1048 9.17833 15.0673 9.16571 15.0033L9.16313 14.9901C9.16313 14.9901 9.16312 14.9901 9.16312 14.9901C9.16312 14.9901 9.16312 14.9901 9.16312 14.9901C9.14964 14.9206 9.14304 14.8891 9.12894 14.836C9.00802 14.3802 8.94609 13.9077 8.94609 13.4264C8.94609 10.3997 11.3997 7.94609 14.4264 7.94609Z" fill="#EC1C79" stroke="black" stroke-width="0.4"/>
<path d="M15.5734 20.6275C12.2298 20.6275 9.51934 17.917 9.51934 14.5734C9.51934 11.2298 12.2298 8.51934 15.5734 8.51934C18.917 8.51934 21.6275 11.2298 21.6275 14.5734C21.6275 17.917 18.917 20.6275 15.5734 20.6275ZM15.5734 20.4538C18.821 20.4538 21.4538 17.821 21.4538 14.5734C21.4538 11.3258 18.821 8.69311 15.5734 8.69311C12.3258 8.69311 9.69311 11.3258 9.69311 14.5734C9.69311 17.821 12.3258 20.4538 15.5734 20.4538Z" fill="black" stroke="black" stroke-width="0.4"/>
<path d="M21.0542 14.5739C21.0542 17.6006 18.6006 20.0542 15.5739 20.0542C12.5472 20.0542 10.0936 17.6006 10.0936 14.5739C10.0936 11.5472 12.5472 9.09355 15.5739 9.09355C18.6006 9.09355 21.0542 11.5472 21.0542 14.5739Z" fill="white" stroke="black" stroke-width="0.4"/>
<path d="M11.8128 14.8365L12.2011 13.6658H12.4489L12.8373 14.8365L13.0363 15.4365L13.2186 14.8312L13.5677 13.6722H13.7878L13.1687 15.5375H12.9119L12.5058 14.3766L12.3163 13.8351L12.1281 14.377L11.7249 15.5375H11.4685L10.8494 13.6722H11.0823L11.4315 14.8312L11.6138 15.4365L11.8128 14.8365ZM20.1995 14.3141V13.6722H20.4229V15.5214H20.1995V14.8667V14.6667H19.9995H19.1995H18.9995V14.8667V15.5214H18.7761V13.6722H18.9995V14.3141V14.5141H19.1995H19.9995H20.1995V14.3141ZM17.4283 14.0185V15.5214H17.2049V14.0185V13.8185H17.0049H16.5302V13.6722H18.103V13.8185H17.6283H17.4283V14.0185ZM14.9293 14.543H15.8089V14.6346H14.9293H14.7293V14.8346V15.1913V15.3913H14.9293H15.9374V15.5214H14.5123V13.6722H15.9213V13.8024H14.9293H14.7293V14.0024V14.343V14.543H14.9293Z" fill="black" stroke="black" stroke-width="0.4"/>
<path d="M8.63432 12.6164C8.57439 12.5864 8.5501 12.5136 8.58007 12.4537C8.61003 12.3937 8.6829 12.3694 8.74282 12.3994L9.66085 12.8584C9.72078 12.8884 9.74507 12.9612 9.71511 13.0212C9.68514 13.0811 9.61228 13.1054 9.55235 13.0754L8.63432 12.6164Z" fill="black" stroke="black" stroke-width="0.4"/>
<path d="M8.52251 14.1356C8.46168 14.1076 8.43512 14.0355 8.4632 13.9747C8.49127 13.9138 8.56334 13.8873 8.62418 13.9153L9.54221 14.339C9.60304 14.3671 9.6296 14.4392 9.60152 14.5C9.57345 14.5608 9.50137 14.5874 9.44054 14.5593L8.52251 14.1356Z" fill="black" stroke="black" stroke-width="0.4"/>
<g filter="url(#filter0_d_3687_214772)">
<circle cx="18.9961" cy="8" r="2.74609" fill="white" stroke="#596AEC" stroke-width="0.507812"/>
<path d="M19.0602 6.89258C19.028 6.89258 18.9995 6.91332 18.9896 6.94395L18.5007 8.45387C18.4952 8.47098 18.471 8.47098 18.4654 8.45387L17.9762 6.94393C17.9663 6.91332 17.9378 6.89258 17.9056 6.89258H17.0733C17.0221 6.89258 16.9863 6.94322 17.0033 6.99152L17.1052 7.28027C17.1157 7.30996 17.1437 7.32981 17.1752 7.32981H17.5691C17.577 7.32981 17.584 7.33477 17.5866 7.34218L18.228 9.15821C18.2385 9.18789 18.2665 9.20772 18.298 9.20772H18.6682C18.6996 9.20772 18.7277 9.18789 18.7381 9.15821L19.5033 6.99153C19.5203 6.94323 19.4845 6.89258 19.4333 6.89258H19.0602Z" fill="#596AEC"/>
<path d="M19.9547 9.23349C20.352 9.23349 20.625 9.03928 20.696 8.74299L20.321 8.70082C20.2666 8.84508 20.1334 8.92054 19.9603 8.92054C19.7006 8.92054 19.5286 8.74964 19.5253 8.45779H20.7127V8.33461C20.7127 7.73646 20.3531 7.47346 19.9337 7.47346C19.4454 7.47346 19.1269 7.8319 19.1269 8.35791C19.1269 8.8928 19.4409 9.23349 19.9547 9.23349ZM19.5264 8.18701C19.5386 7.9695 19.6995 7.7864 19.9392 7.7864C20.17 7.7864 20.3254 7.95508 20.3276 8.18701H19.5264Z" fill="#596AEC"/>
</g>
<defs>
<filter id="filter0_d_3687_214772" x="12.2461" y="2.75" width="13.5" height="13.5" filterUnits="userSpaceOnUse" color-interpolation-filters="sRGB">
<feFlood flood-opacity="0" result="BackgroundImageFix"/>
<feColorMatrix in="SourceAlpha" type="matrix" values="0 0 0 0 0 0 0 0 0 0 0 0 0 0 0 0 0 0 127 0" result="hardAlpha"/>
<feOffset dy="1.5"/>
<feGaussianBlur stdDeviation="1.875"/>
<feComposite in2="hardAlpha" operator="out"/>
<feColorMatrix type="matrix" values="0 0 0 0 0.34902 0 0 0 0 0.415686 0 0 0 0 0.92549 0 0 0 0.15 0"/>
<feBlend mode="normal" in2="BackgroundImageFix" result="effect1_dropShadow_3687_214772"/>
<feBlend mode="normal" in="SourceGraphic" in2="effect1_dropShadow_3687_214772" result="shape"/>
</filter>
</defs>
</svg>
