<svg width="26" height="24" viewBox="0 0 26 24" fill="none" xmlns="http://www.w3.org/2000/svg">
<path d="M9 15C12.3137 15 15 12.3137 15 9C15 5.68629 12.3137 3 9 3C5.68629 3 3 5.68629 3 9C3 12.3137 5.68629 15 9 15Z" fill="#627EEA"/>
<path d="M9.1875 4.5V7.82625L11.9989 9.0825L9.1875 4.5Z" fill="white" fill-opacity="0.602"/>
<path d="M9.18675 4.5L6.375 9.0825L9.18675 7.82625V4.5Z" fill="white"/>
<path d="M9.1875 11.2375V13.4976L12.0008 9.60547L9.1875 11.2375Z" fill="white" fill-opacity="0.602"/>
<path d="M9.18675 13.4976V11.2371L6.375 9.60547L9.18675 13.4976Z" fill="white"/>
<path d="M9.1875 10.715L11.9989 9.08265L9.1875 7.82715V10.715Z" fill="white" fill-opacity="0.2"/>
<path d="M6.375 9.08265L9.18675 10.715V7.82715L6.375 9.08265Z" fill="white" fill-opacity="0.602"/>
<path d="M15 7.33333C18.6822 7.33333 21.6667 10.3184 21.6667 14C21.6667 17.6823 18.6823 20.6667 15 20.6667C11.3184 20.6667 8.33333 17.6819 8.33333 14C8.33333 10.3184 11.3184 7.33333 15 7.33333Z" fill="#F5AC37" stroke="white" stroke-width="0.666667"/>
<path d="M15.2557 14.4938H17.9156C17.9723 14.4938 17.999 14.4938 18.0031 14.4195C18.0249 14.1489 18.0249 13.8767 18.0031 13.6058C18.0031 13.5532 17.977 13.5315 17.92 13.5315L12.6263 13.5315C12.5608 13.5315 12.5432 13.5532 12.5432 13.6146V14.3933C12.5432 14.4938 12.5432 14.4938 12.6481 14.4938H15.2557V14.4938ZM17.7061 12.6214C17.7136 12.6016 17.7136 12.5799 17.7061 12.5603C17.6617 12.4636 17.6091 12.3713 17.5479 12.2847C17.456 12.1366 17.3476 12.0002 17.2241 11.8777C17.1658 11.8037 17.0984 11.7372 17.0228 11.6808C16.6442 11.3586 16.1941 11.1305 15.7102 11.0159C15.4661 10.961 15.2166 10.9349 14.9665 10.9371H12.6172C12.5517 10.9371 12.5429 10.9633 12.5429 11.0203V12.5732C12.5429 12.6388 12.5429 12.6564 12.626 12.6564L17.6746 12.6564C17.6746 12.6564 17.7184 12.6476 17.7272 12.6214H17.7058H17.7061ZM17.7061 15.4039C17.6317 15.3957 17.5568 15.3957 17.4824 15.4039H12.6307C12.5652 15.4039 12.5432 15.4039 12.5432 15.4914L12.5432 17.0097C12.5432 17.0797 12.5432 17.0973 12.6307 17.0973H14.8707C14.9778 17.1055 15.0849 17.0979 15.1898 17.0756C15.5149 17.0523 15.8346 16.9817 16.1396 16.8655C16.2504 16.827 16.3576 16.777 16.4587 16.7168H16.4892C17.0143 16.4437 17.4408 16.0146 17.7099 15.488C17.7099 15.488 17.7404 15.4218 17.7061 15.4045V15.4039ZM11.664 17.8845V17.8584V16.839V16.4934L11.664 15.4653C11.664 15.4083 11.664 15.3998 11.5941 15.3998H10.6447C10.592 15.3998 10.5703 15.3998 10.5703 15.3298V14.4985H11.5853C11.642 14.4985 11.664 14.4985 11.664 14.4242V13.6017C11.664 13.5491 11.664 13.5362 11.5941 13.5362H10.6447C10.592 13.5362 10.5703 13.5362 10.5703 13.4663V12.6964C10.5703 12.6482 10.5703 12.6353 10.6402 12.6353H11.5808C11.6464 12.6353 11.664 12.6353 11.664 12.5521V10.194C11.664 10.1241 11.664 10.1064 11.7516 10.1064H15.0326C15.2708 10.1159 15.5074 10.142 15.7414 10.1852C16.2237 10.2743 16.687 10.4466 17.1107 10.6927C17.3917 10.858 17.6503 11.0578 17.8806 11.2877C18.0538 11.4676 18.2101 11.6622 18.3487 11.8695C18.4863 12.0796 18.6007 12.3042 18.6905 12.5389C18.7015 12.6 18.7601 12.6413 18.8212 12.6309H19.6043C19.7048 12.6309 19.7048 12.6309 19.7092 12.7273V13.4448C19.7092 13.5148 19.683 13.5324 19.6128 13.5324H19.0089C18.9478 13.5324 18.9302 13.5324 18.9346 13.6112C18.9585 13.8777 18.9585 14.1451 18.9346 14.4116C18.9346 14.4859 18.9346 14.4948 19.0181 14.4948H19.7089C19.7394 14.5341 19.7089 14.5735 19.7089 14.6132C19.7133 14.6639 19.7133 14.7153 19.7089 14.766V15.2955C19.7089 15.3698 19.6871 15.3919 19.6213 15.3919L18.7944 15.3919C18.7368 15.3809 18.6807 15.4177 18.6675 15.475C18.4706 15.9869 18.1556 16.4459 17.7486 16.8138C17.5999 16.9477 17.4437 17.0737 17.2805 17.1899C17.1054 17.2907 16.935 17.3956 16.7554 17.4788C16.425 17.6275 16.0785 17.7371 15.7228 17.8067C15.3851 17.8672 15.0427 17.8946 14.6991 17.8899H11.6627V17.8854L11.664 17.8845Z" fill="#FEFEFD"/>
<g>
<circle cx="18.9961" cy="8" r="2.74609" fill="white" stroke="#596AEC" stroke-width="0.507812"/>
<path d="M19.0602 6.89258C19.028 6.89258 18.9995 6.91332 18.9896 6.94395L18.5007 8.45387C18.4952 8.47098 18.471 8.47098 18.4654 8.45387L17.9762 6.94393C17.9663 6.91332 17.9378 6.89258 17.9056 6.89258H17.0733C17.0221 6.89258 16.9863 6.94322 17.0033 6.99152L17.1052 7.28027C17.1157 7.30996 17.1437 7.32981 17.1752 7.32981H17.5691C17.577 7.32981 17.584 7.33477 17.5866 7.34218L18.228 9.15821C18.2385 9.18789 18.2665 9.20772 18.298 9.20772H18.6682C18.6996 9.20772 18.7277 9.18789 18.7381 9.15821L19.5033 6.99153C19.5203 6.94323 19.4845 6.89258 19.4333 6.89258H19.0602Z" fill="#596AEC"/>
<path d="M19.9547 9.23349C20.352 9.23349 20.625 9.03928 20.696 8.74299L20.321 8.70082C20.2666 8.84508 20.1334 8.92054 19.9603 8.92054C19.7006 8.92054 19.5286 8.74964 19.5253 8.45779H20.7127V8.33461C20.7127 7.73646 20.3531 7.47346 19.9337 7.47346C19.4454 7.47346 19.1269 7.8319 19.1269 8.35791C19.1269 8.8928 19.4409 9.23349 19.9547 9.23349ZM19.5264 8.18701C19.5386 7.9695 19.6995 7.7864 19.9392 7.7864C20.17 7.7864 20.3254 7.95508 20.3276 8.18701H19.5264Z" fill="#596AEC"/>
</g>
</svg>
