<svg width="35" height="35" xmlns="http://www.w3.org/2000/svg" fill="none">
 <mask height="24" width="24" y="11" x="11" maskUnits="userSpaceOnUse" id="mask0_5613_321719">
  <circle id="svg_1" fill="#D9D9D9" r="12" cy="23" cx="23"/>
 </mask>
 <defs>
  <clipPath id="clip0_5613_321719">
   <rect id="svg_2" fill="white" height="24" width="24"/>
  </clipPath>
 </defs>
 <g>
  <g id="svg_3">
   <circle cx="12.00001" cy="12.03126" r="11.09376" fill="#000000" id="svg_7" stroke="null"/>
   <path stroke="null" id="Path_10558" fill="#e1e1eb" data-name="Path 10558" d="m16.69901,6.14058c-0.33302,0.34974 -0.75081,0.78693 -0.92606,0.96788l-0.31819,0.33226l-0.19236,-0.11823a7.04507,7.04507 0 0 0 -1.12831,-0.52766a5.80348,5.80348 0 0 0 -3.64381,-0.00228a5.64686,5.64686 0 0 0 -1.05798,0.47406a2.11177,2.11177 0 0 1 -0.20605,0.11823c-0.00608,0 -0.45125,-0.42083 -0.98537,-0.93443s-0.98461,-0.92834 -0.99867,-0.92226c-0.03155,0.0114 -1.63468,1.69854 -1.63468,1.71603c0,0.00836 0.35849,0.35545 0.79567,0.7702s0.86904,0.82342 0.95686,0.9082l0.16081,0.15586l-0.15206,0.25661a5.70236,5.70236 0 0 0 -0.22315,5.29901c0.08478,0.17829 0.19008,0.387 0.2395,0.46341l0.08478,0.14066l-0.09276,0.10188c-0.27942,0.29652 -1.37161,1.44194 -1.63658,1.71299l-0.30413,0.31287l0.25889,0.25395c0.61852,0.59799 1.44194,1.37769 1.46208,1.38567c0.01407,0.00608 0.46569,-0.45619 1.00476,-1.01882l0.98157,-1.02642l0.20376,0.12127a5.86469,5.86469 0 0 0 2.39499,0.80175a5.79284,5.79284 0 0 0 3.40849,-0.73979l0.22809,-0.13534l0.09808,0.09352c0.05702,0.05094 0.52272,0.49649 1.03897,0.98841s0.94469,0.89451 0.95914,0.89451c0.02547,0 1.6457,-1.67915 1.6457,-1.70463c0,-0.00532 -0.41475,-0.40867 -0.92302,-0.89451s-0.96788,-0.92226 -1.0211,-0.9732l-0.09656,-0.09048l0.10188,-0.16309a6.78657,6.78657 0 0 0 0.47976,-0.99943a5.8951,5.8951 0 0 0 0.17525,-3.32942a6.15855,6.15855 0 0 0 -0.60825,-1.502a0.7147,0.7147 0 0 1 -0.08478,-0.16309c0,-0.01407 0.42616,-0.47178 0.95039,-1.01578s0.94241,-1.00171 0.93671,-1.01578c-0.0114,-0.03155 -1.69588,-1.63468 -1.71603,-1.63468c-0.00684,0.00114 -0.28588,0.28816 -0.61623,0.64209zm-3.84871,2.66984a3.43662,3.43662 0 1 1 -3.92931,4.01256a4.99831,4.99831 0 0 1 -0.02851,-1.08421a3.47844,3.47844 0 0 1 0.98461,-1.96959a3.43244,3.43244 0 0 1 1.8373,-0.95686a4.14371,4.14371 0 0 1 1.13591,-0.00228l0,0.00038z"/>
  </g>
  <g stroke="null" id="svg_9">
   <path stroke="null" id="svg_4" fill="#126969" d="m23.90243,34.39025c6.19638,0 11.21953,-5.02315 11.21953,-11.21953c0,-6.19638 -5.02315,-11.21953 -11.21953,-11.21953c-6.19638,0 -11.21953,5.02315 -11.21953,11.21953c0,6.19638 5.02315,11.21953 11.21953,11.21953z"/>
   <path stroke="null" id="svg_5" fill="#FAF3CE" d="m29.10829,18.23755c0,0 0.67317,-1.68293 0.56098,-2.04195c-0.1122,-0.35903 -0.08415,-0.48244 -0.69,-0.93683c-0.31611,0.163 -0.67261,0.23118 -1.02659,0.19634c-0.38763,-0.0567 -0.74924,-0.2287 -1.03781,-0.49366c-0.21233,-0.19342 -0.35442,-0.45193 -0.4039,-0.73488c-0.00112,-0.01089 0.00095,-0.02187 0.00595,-0.0316c0.00505,-0.00973 0.01279,-0.01777 0.02238,-0.02313c0.00954,-0.00537 0.02042,-0.00783 0.03136,-0.00707c0.01088,0.00076 0.02137,0.00469 0.03007,0.01132c0.27993,0.30085 0.62824,0.52983 1.01537,0.66756c0.2599,0.08976 0.54235,0.08976 0.8022,0c-0.79266,-0.58308 -1.64669,-1.07781 -2.54683,-1.47537c-0.20593,-0.09366 -0.43661,-0.11858 -0.6578,-0.0711c-0.22125,0.04748 -0.42129,0.16484 -0.57074,0.33476l-0.79659,1.2622c0.94771,0.16972 1.86115,0.49378 2.70391,0.95927c0.98771,0.63628 1.85392,1.44364 2.55805,2.38415z"/>
   <path stroke="null" id="svg_6" fill="#FAF3CE" d="m31.24561,20.26487c-0.25592,0.02704 -0.51464,0.00611 -0.76293,-0.06171c-1.33512,-0.37585 -2.15415,-2.57488 -4.48781,-3.9605c-3.69123,-1.90732 -5.67147,-0.18512 -5.67147,-0.18512c-0.25244,0.1739 0,0.28049 0,0.28049l1.21171,0.61146l0.56098,0.30293c-0.14266,0.15015 -0.33485,0.24365 -0.54101,0.26324c-0.20621,0.01959 -0.41254,-0.03605 -0.58095,-0.15665c-0.18798,-0.06965 -0.39123,-0.08765 -0.58852,-0.05214c-0.1973,0.03552 -0.38152,0.12325 -0.53343,0.25409c-0.40951,0.2244 -0.23,0.88074 -0.52732,1.29586c-0.29732,0.41512 -0.88634,0.34781 -0.94805,0.94805c-0.06171,0.60024 0.43195,0.72366 0.44317,1.17805c0.00348,0.29289 -0.06591,0.58207 -0.20195,0.84146c-0.00965,0.05946 -0.00965,0.12005 0,0.17951c0.00931,0.08858 0.04443,0.17244 0.10098,0.24122c0.04033,0.04258 0.08549,0.08022 0.13463,0.1122c0.19735,0.13043 0.35925,0.30775 0.47122,0.5161c0.01851,0.03489 0.0391,0.06861 0.06171,0.10098l0.0561,0.10659c0.13138,0.22714 0.17906,0.4931 0.13463,0.75171c-0.01644,0.07388 -0.01644,0.15051 0,0.22439c0.02446,0.0685 0.06541,0.12987 0.11921,0.17878c0.0538,0.04892 0.11881,0.08387 0.18933,0.10171c0.21239,0.0543 0.39897,0.18136 0.52732,0.35903l0,0.03927c0.12291,0.28615 0.1932,0.59211 0.20756,0.90317c0.06732,0.27488 0.30293,0.36463 0.6339,0.56098c0.33098,0.19634 0.4039,0.48805 0.26927,0.6339c-0.13463,0.14585 -0.95927,-0.20756 -1.29025,0.18512c-0.24122,0.22439 -0.14024,0.37024 -0.25805,0.79659c-0.11781,0.42634 -0.49366,0.1122 -0.69,0.41512c-0.10344,0.19163 -0.16762,0.40194 -0.18882,0.61864c-0.02115,0.21676 0.00107,0.43554 0.06541,0.64355c0.0097,0.06289 0.02468,0.12482 0.04488,0.18512c0.11663,-0.43212 0.34208,-0.82716 0.65472,-1.14742c0.31269,-0.32021 0.70223,-0.55503 1.13138,-0.68198c0.4292,-0.12701 0.88376,-0.14187 1.32037,-0.04325c0.43655,0.09862 0.84062,0.30747 1.17356,0.60658c0.33294,0.29911 0.5837,0.67856 0.72837,1.10209c0.14468,0.42354 0.17839,0.87714 0.09795,1.3174c-0.08039,0.44031 -0.2723,0.85268 -0.55733,1.19774c-0.28503,0.34506 -0.65376,0.61135 -1.07096,0.77347c0.24015,0.04785 0.4844,0.07231 0.72927,0.07293c0.16521,0.00157 0.33025,-0.0097 0.49366,-0.03366c0.46421,-0.08549 0.90901,-0.25463 1.31269,-0.49927c0.4071,-0.25558 0.73802,-0.6159 0.95809,-1.04325c0.22007,-0.4273 0.32122,-0.90598 0.29289,-1.38578c0,-1.53708 -0.67317,-2.56927 -2.05878,-4.17367c-0.26366,-0.32537 -1.34634,-1.68293 -1.54269,-1.91854c-0.95927,-1.25098 -2.04195,-2.71513 -1.50342,-3.83147l0.05049,-0.09537c0.8022,-1.46976 3.06293,-1.12195 2.56927,-1.01537c-0.56709,0.07489 -1.09968,0.31482 -1.53147,0.69c-0.15118,0.16167 -0.26759,0.35257 -0.3422,0.56098c-0.07399,0.29631 -0.08168,0.60529 -0.02255,0.90491c0.05913,0.29967 0.18372,0.58252 0.36475,0.82851c1.68293,2.35049 4.10635,5.27318 4.40367,5.98001c0.2912,0.63547 0.44233,1.32609 0.44317,2.02513c-0.01745,0.37569 -0.05486,0.75025 -0.1122,1.12195c0.34253,-0.27965 0.62818,-0.62246 0.84146,-1.00976c0.27488,-0.56098 0.31976,-0.81903 0.23561,-1.02659c-0.08415,-0.20756 -0.29732,-0.21878 -0.38146,-0.56098c-0.08415,-0.3422 0.15146,-0.63951 -0.10098,-1.18366c-0.10659,-0.23561 -0.69,-0.56098 -0.99293,-0.96488c-0.30293,-0.4039 -0.84707,-1.06025 -1.25659,-1.61c-0.74049,-0.98171 -0.98171,-1.31829 -1.40805,-1.86805c0.46,0.13463 1.03781,0.32537 2.36732,-0.29171c0.72001,0.40233 1.53769,0.59654 2.36171,0.56098c0.28817,-0.0244 0.5621,-0.13592 0.78537,-0.31976c0.13794,-0.13104 0.24358,-0.29238 0.30854,-0.47122c0.00381,-0.01094 0.00443,-0.02278 0.00185,-0.03405c-0.00258,-0.01128 -0.0083,-0.02165 -0.01649,-0.02984c-0.00819,-0.00819 -0.01857,-0.01391 -0.02984,-0.01649c-0.01128,-0.00258 -0.02311,-0.00196 -0.03405,0.00185c-1.03781,0.42634 -1.98586,0.07854 -3.1583,-0.56098l-0.20756,-0.11781l-0.20756,0.1122c-0.41019,0.19662 -0.85656,0.30657 -1.31117,0.32295c-0.45462,0.01644 -0.90772,-0.06103 -1.33103,-0.22759c-0.23353,-0.11332 -0.42864,-0.29277 -0.56098,-0.5161c-0.07758,-0.13901 -0.12476,-0.29294 -0.13828,-0.45153c-0.01358,-0.15864 0.00684,-0.31835 0.05974,-0.46847c0.06547,-0.12532 0.16145,-0.23219 0.27914,-0.31061c0.11764,-0.07842 0.25317,-0.12594 0.39403,-0.13817c0.33608,-0.00982 0.66997,0.05733 0.9761,0.19634c0.01492,0.00813 0.03203,0.01122 0.04886,0.00881c0.01677,-0.00241 0.03237,-0.01021 0.04437,-0.02221c0.012,-0.012 0.0198,-0.02754 0.02221,-0.04437c0.00241,-0.01677 -0.00073,-0.03394 -0.00886,-0.0488c-0.03585,-0.09312 -0.05486,-0.19191 -0.0561,-0.29171c0.00028,-0.16465 0.05116,-0.32525 0.14585,-0.46l0.41512,0.19073c-0.03781,0.03781 -0.06653,0.0837 -0.08403,0.13424c-0.01745,0.05054 -0.02328,0.10434 -0.01694,0.15747c0.01066,0.08252 0.05094,0.15831 0.11343,0.21323c0.06244,0.05492 0.14277,0.08521 0.22596,0.08521c0.08319,0 0.16352,-0.03029 0.22602,-0.08521c0.06244,-0.05492 0.10277,-0.13071 0.11337,-0.21323l0.38707,0.17951c-0.03472,0.13514 -0.10513,0.2585 -0.2038,0.35717c-0.09868,0.09868 -0.22203,0.16902 -0.35717,0.2038c-0.01341,0 -0.0262,0.00533 -0.03568,0.01481c-0.00948,0.00942 -0.01481,0.02227 -0.01481,0.03568c0,0.01341 0.00533,0.02625 0.01481,0.03568c0.00948,0.00948 0.02227,0.01481 0.03568,0.01481l2.06439,0.96488c0.51486,0.28189 1.09632,0.4195 1.68293,0.39829c0.75171,-0.03927 1.08829,-0.6339 0.63951,-0.56098c-0.51644,-0.04695 -1.02103,-0.18164 -1.4922,-0.39829l-0.70683,-0.33098l0.29732,-0.45439c0.59564,0.33406 1.23073,0.59222 1.89049,0.76854c0.22041,0.04533 0.44912,0.02726 0.65965,-0.05217c0.21048,-0.07943 0.39414,-0.21699 0.52962,-0.39661c0.01161,-0.0083 0.02104,-0.01924 0.02754,-0.03192c0.00651,-0.01273 0.00987,-0.02676 0.00987,-0.04101c0,-0.01425 -0.00337,-0.02833 -0.00987,-0.04101c-0.00651,-0.01268 -0.01593,-0.02362 -0.02754,-0.03192zm-8.20709,-2.00269c-0.43969,0.0662 -0.86822,0.1927 -1.27342,0.37585c-0.10659,0.04892 -0.20969,0.10513 -0.30854,0.16829c-0.31656,0.21042 -0.57203,0.50067 -0.74049,0.84146c-0.79098,1.53147 0.65634,3.41635 1.82317,4.92537l0.56098,0.71244c0.24683,0.3422 0.5161,0.67317 0.78537,0.99293c0.7291,0.80107 1.31196,1.72382 1.7222,2.72635c0.07786,0.30209 0.09688,0.61634 0.0561,0.92561c-0.04219,0.23578 -0.14075,0.45787 -0.28728,0.64731c-0.14647,0.1895 -0.33664,0.34079 -0.55419,0.44098c0.11915,-0.41148 0.15163,-0.84315 0.09537,-1.26781c-0.20442,-0.81128 -0.60069,-1.56165 -1.15561,-2.18781l-0.66195,-0.8639c-1.98025,-2.54683 -2.17659,-2.83293 -2.6422,-3.68001c-0.01273,-0.02917 -0.02777,-0.05733 -0.04488,-0.08415c-0.27488,-0.45439 -0.99854,-1.68293 -0.68439,-2.95074c0.07169,-0.29019 0.20784,-0.56058 0.39829,-0.79098c1.15561,-1.53708 3.37708,-1.02659 2.91147,-0.93122z"/>
  </g>
  <g id="svg_10">
   <circle id="svg_36" stroke-width="0.67708" stroke="#596AEC" fill="white" r="3.66146" cy="13" cx="31"/>
   <path id="svg_37" fill="#596AEC" d="m31.0861,11.5225c-0.0429,0 -0.0809,0.0276 -0.0941,0.0685l-0.6518,2.0132c-0.0074,0.0228 -0.0397,0.0228 -0.0471,0l-0.6523,-2.0133c-0.0132,-0.0408 -0.0512,-0.0684 -0.0941,-0.0684l-1.1097,0c-0.0683,0 -0.1161,0.0675 -0.0934,0.1319l0.1359,0.385c0.0139,0.0396 0.0514,0.066 0.0933,0.066l0.5252,0c0.0105,0 0.0198,0.0066 0.0233,0.0165l0.8552,2.4214c0.014,0.0396 0.0514,0.066 0.0934,0.066l0.4935,0c0.0419,0 0.0794,-0.0264 0.0933,-0.066l1.0202,-2.8889c0.0228,-0.0644 -0.025,-0.1319 -0.0933,-0.1319l-0.4975,0z"/>
   <path id="svg_38" fill="#596AEC" d="m32.4458,14.644c-0.2278,0 -0.4246,-0.0473 -0.5903,-0.142c-0.1648,-0.0957 -0.2915,-0.2309 -0.3803,-0.4055c-0.0888,-0.1756 -0.1332,-0.3822 -0.1332,-0.6199c0,-0.2338 0.0444,-0.439 0.1332,-0.6156c0.0898,-0.1775 0.215,-0.3156 0.3758,-0.4143c0.1608,-0.0996 0.3497,-0.1494 0.5667,-0.1494c0.1401,0 0.2723,0.0227 0.3966,0.0681c0.1252,0.0443 0.2357,0.1134 0.3314,0.2071c0.0967,0.0937 0.1726,0.2131 0.2279,0.3581c0.0552,0.144 0.0828,0.3156 0.0828,0.5149l0,0.1642l-1.8628,0l0,-0.361l1.3494,0c-0.001,-0.1026 -0.0232,-0.1938 -0.0666,-0.2737c-0.0434,-0.0809 -0.1041,-0.1445 -0.182,-0.1909c-0.0769,-0.0464 -0.1667,-0.0696 -0.2693,-0.0696c-0.1095,0 -0.2056,0.0267 -0.2885,0.0799c-0.0829,0.0523 -0.1475,0.1214 -0.1938,0.2072c-0.0454,0.0848 -0.0686,0.178 -0.0696,0.2797l0,0.3151c0,0.1322 0.0242,0.2456 0.0725,0.3403c0.0484,0.0937 0.1159,0.1658 0.2027,0.2161c0.0868,0.0493 0.1884,0.0739 0.3048,0.0739c0.078,0 0.1485,-0.0108 0.2116,-0.0325c0.0632,-0.0227 0.1179,-0.0557 0.1643,-0.0991c0.0463,-0.0435 0.0813,-0.0972 0.105,-0.1613l0.5001,0.0562c-0.0315,0.1322 -0.0917,0.2476 -0.1805,0.3462c-0.0878,0.0977 -0.2002,0.1736 -0.3373,0.2279c-0.1371,0.0533 -0.294,0.0799 -0.4706,0.0799z"/>
  </g>
 </g>
</svg>