<svg width="24" height="24" xmlns="http://www.w3.org/2000/svg"  style="vector-effect: non-scaling-stroke;" fill="none">
 <g>
  <g style="vector-effect: non-scaling-stroke;">
   <path style="vector-effect: non-scaling-stroke;" fill="#2A5ADA" d="m8.16667,16c4.14213,0 7.5,-3.35788 7.5,-7.5c0,-4.14214 -3.35788,-7.5 -7.5,-7.5c-4.14214,0 -7.5,3.35786 -7.5,7.5c0,4.14213 3.35786,7.5 7.5,7.5z"/>
   <path style="vector-effect: non-scaling-stroke;" fill="white" d="m8.16667,3.8125l-0.84325,0.49453l-2.29738,1.35469l-0.84375,0.49453l0,4.6875l0.84328,0.49456l2.31891,1.35463l0.84331,0.49456l0.84325,-0.49456l2.27675,-1.35463l0.84325,-0.49456l0,-4.6875l-0.84325,-0.49453l-2.29788,-1.35469l-0.84325,-0.49453zm-2.29781,6.04219l0,-2.70938l2.29781,-1.35469l2.29781,1.35469l0,2.70938l-2.29781,1.35469l-2.29781,-1.35469z"/>
  </g>
  <g>
   <path stroke="#fff" d="m15.9471,7.27108a7.667,7.667 0 1 1 0,15.33285a7.667,7.667 0 0 1 0,-15.33285z" stroke-width="0.667" fill="#F5AC37"/>
   <path d="m16.2392,15.50502l3.05898,0c0.0667,0 0.0966,0 0.10235,-0.0851a5.83046,5.83046 0 0 0 0,-0.93609c0,-0.0598 -0.03105,-0.0851 -0.0966,-0.0851l-6.08576,0c-0.0759,0 -0.09545,0.0253 -0.09545,0.09545l0,0.89699c0,0.115 0,0.115 0.12075,0.115l2.99803,0l-0.00115,0l-0.00115,-0.00115zm2.81748,-2.15279a0.0989,0.0989 0 0 0 0,-0.069a1.97914,1.97914 0 0 0 -0.18055,-0.31855a2.55873,2.55873 0 0 0 -0.37145,-0.46805a1.23739,1.23739 0 0 0 -0.2323,-0.22655a3.61558,3.61558 0 0 0 -1.50879,-0.76474a3.74668,3.74668 0 0 0 -0.85559,-0.0897l-2.70248,0c-0.07475,0 -0.0851,0.0299 -0.0851,0.09545l0,1.78594c0,0.07475 0,0.09545 0.0966,0.09545l5.80516,0s0.0506,-0.01035 0.06095,-0.04025l-0.0253,0l-0.00115,0zm0,3.19928a1.17299,1.17299 0 0 0 -0.2553,0l-5.57976,0c-0.07475,0 -0.10005,0 -0.10005,0.1012l0,1.74569c0,0.0805 0,0.1012 0.10005,0.1012l2.57598,0c0.12305,0.0092 0.2461,0 0.368,-0.0253a3.85247,3.85247 0 0 0 1.09249,-0.2415c0.1265,-0.04485 0.24955,-0.10235 0.3657,-0.17135l0.0345,0a3.26943,3.26943 0 0 0 1.40299,-1.41334s0.0345,-0.0759 -0.0023,-0.09545l-0.00115,0l-0.00115,-0.00115zm-6.94595,2.85313l0,-2.78183c0,-0.06555 0,-0.0759 -0.0805,-0.0759l-1.09249,0c-0.0598,0 -0.08395,0 -0.08395,-0.0805l0,-0.95449l1.16494,0c0.0644,0 0.0897,0 0.0897,-0.08625l0,-0.94529c0,-0.0598 0,-0.07475 -0.0805,-0.07475l-1.09249,0c-0.0598,0 -0.08395,0 -0.08395,-0.0805l0,-0.88549c0,-0.0552 0,-0.069 0.0805,-0.069l1.08099,0c0.0759,0 0.09545,0 0.09545,-0.0966l0,-2.71398c0,-0.0805 0,-0.10005 0.1012,-0.10005l3.77198,0c0.27485,0.0115 0.5474,0.04025 0.81649,0.092a4.93347,4.93347 0 0 1 1.57549,0.5819c0.322,0.18975 0.61985,0.41975 0.88549,0.68425c0.1978,0.207 0.37835,0.43125 0.53705,0.6693c0.1587,0.2415 0.2898,0.50025 0.3933,0.77049c0.0115,0.069 0.0805,0.1173 0.1495,0.10465l0.90159,0c0.115,0 0.115,0 0.12075,0.11155l0,0.82454c0,0.0805 -0.03105,0.1012 -0.11155,0.1012l-0.6946,0c-0.069,0 -0.0897,0 -0.0851,0.092c0.0276,0.30475 0.0276,0.61295 0,0.91999c0,0.08395 0,0.0943 0.0966,0.0943l0.79349,0c0.0345,0.046 0,0.092 0,0.138a1.01889,1.01889 0 0 1 0,0.17365l0,0.6095c0,0.0851 -0.02415,0.1104 -0.10005,0.1104l-0.95104,0a0.1265,0.1265 0 0 0 -0.14605,0.09545a4.03877,4.03877 0 0 1 -1.05799,1.54099c-0.1702,0.15295 -0.3496,0.299 -0.53705,0.43125c-0.20125,0.11615 -0.39675,0.2369 -0.60375,0.3335c-0.3795,0.1702 -0.77854,0.2967 -1.18794,0.37605c-0.38755,0.069 -0.78199,0.1012 -1.17644,0.09545l-3.49138,0l0,-0.0046l0.0023,0l-0.00115,0l0.00115,-0.00115z" fill="#FEFEFD"/>
  </g>
  <g>
   <circle stroke="#596AEC" stroke-width="0.508" fill="#fff" r="3.027" cy="6.625" cx="20.277"/>
   <path d="m20.348,5.341a0.082,0.082 0 0 0 -0.078,0.06l-0.539,1.75a0.02,0.02 0 0 1 -0.039,0l-0.539,-1.75a0.082,0.082 0 0 0 -0.078,-0.06l-0.917,0c-0.057,0 -0.096,0.059 -0.078,0.115l0.113,0.335a0.082,0.082 0 0 0 0.077,0.057l0.434,0a0.02,0.02 0 0 1 0.02,0.014l0.707,2.106a0.082,0.082 0 0 0 0.077,0.057l0.408,0a0.082,0.082 0 0 0 0.077,-0.057l0.844,-2.512c0.018,-0.056 -0.021,-0.115 -0.078,-0.115l-0.411,0zm0.986,2.714c0.438,0 0.74,-0.225 0.817,-0.569l-0.413,-0.049c-0.06,0.168 -0.207,0.255 -0.398,0.255c-0.286,0 -0.476,-0.198 -0.48,-0.536l1.31,0l0,-0.143c0,-0.694 -0.397,-0.998 -0.859,-0.998c-0.538,0 -0.89,0.415 -0.89,1.025c0,0.62 0.347,1.015 0.913,1.015zm-0.472,-1.213c0.013,-0.252 0.19,-0.465 0.455,-0.465c0.254,0 0.426,0.196 0.428,0.465l-0.883,0z" fill="#596AEC"/>
  </g>
 </g>
</svg>