<svg width="35" height="35" viewBox="0 0 35 35" fill="none" xmlns="http://www.w3.org/2000/svg">
<g clip-path="url(#clip0_5613_321719)">
<path d="M12 24C14.3734 24 16.6935 23.2962 18.6669 21.9776C20.6403 20.6591 22.1783 18.7849 23.0866 16.5922C23.9948 14.3995 24.2325 11.9867 23.7695 9.65892C23.3064 7.33115 22.1635 5.19295 20.4853 3.51472C18.8071 1.83649 16.6689 0.693605 14.3411 0.230582C12.0133 -0.232441 9.60055 0.00519936 7.40784 0.913451C5.21512 1.8217 3.34098 3.35977 2.0224 5.33316C0.703824 7.30655 3.63305e-05 9.62663 3.63305e-05 12C-0.00384869 13.577 0.303889 15.1391 0.905569 16.5968C1.50725 18.0545 2.39101 19.3789 3.50609 20.4939C4.62117 21.609 5.94558 22.4928 7.40324 23.0945C8.8609 23.6962 10.4231 24.0039 12 24V24Z" fill="#2775CA"/>
<path d="M15.2995 13.9001C15.2995 12.1546 14.2501 11.5492 12.1501 11.2993C10.649 11.0997 10.3501 10.6993 10.3501 10.0001C10.3501 9.30079 10.8497 8.84916 11.849 8.84916C12.7501 8.84916 13.2497 9.14916 13.4995 9.8997C13.5264 9.97201 13.5748 10.0343 13.6382 10.0782C13.7016 10.1221 13.777 10.1455 13.8541 10.1452H14.6537C14.7 10.1464 14.7461 10.1381 14.7891 10.1209C14.8322 10.1038 14.8713 10.078 14.904 10.0453C14.9368 10.0125 14.9625 9.97342 14.9797 9.93039C14.9969 9.88736 15.0051 9.84129 15.0039 9.79498V9.74588C14.9073 9.20396 14.6344 8.70912 14.2276 8.33825C13.8209 7.96737 13.303 7.74124 12.7544 7.69498V6.49498C12.7544 6.29534 12.6039 6.14588 12.3541 6.0957H11.6035C11.4039 6.0957 11.2544 6.24516 11.2043 6.49498V7.64916C9.6999 7.85425 8.74972 8.84916 8.74972 10.0993C8.74972 11.7499 9.75009 12.4001 11.8501 12.6499C13.2497 12.8997 13.7046 13.1953 13.7046 13.9993C13.7046 14.8033 13.0054 15.3499 12.0552 15.3499C10.7548 15.3499 10.3097 14.8044 10.1548 14.0495C10.1405 13.9652 10.0971 13.8885 10.0321 13.8329C9.96714 13.7773 9.8847 13.7463 9.79918 13.7452H8.945C8.89872 13.7441 8.85272 13.7525 8.80976 13.7697C8.7668 13.7869 8.72778 13.8127 8.69506 13.8454C8.66233 13.8781 8.63657 13.9171 8.61934 13.9601C8.60211 14.0031 8.59377 14.0491 8.59481 14.0953V14.1455C8.79554 15.3957 9.59518 16.2957 11.2457 16.5455V17.7455C11.2457 17.9452 11.3952 18.0957 11.645 18.1459H12.3955C12.5952 18.1459 12.7457 17.9953 12.7948 17.7455V16.5455C14.2948 16.2957 15.2952 15.2452 15.2952 13.8957L15.2995 13.9001Z" fill="white"/>
<path d="M9.44946 19.1498C8.01079 18.6222 6.76882 17.6655 5.89144 16.4091C5.01406 15.1528 4.54356 13.6573 4.54356 12.1249C4.54356 10.5925 5.01406 9.0971 5.89144 7.84075C6.76882 6.5844 8.01079 5.62772 9.44946 5.10003C9.54545 5.05851 9.62608 4.98804 9.68006 4.89846C9.73404 4.80887 9.75869 4.70466 9.75055 4.60039V3.90003C9.75728 3.80816 9.73049 3.71697 9.67512 3.64335C9.61976 3.56974 9.53958 3.51869 9.44946 3.49967C9.37908 3.49233 9.30837 3.5101 9.24982 3.54985C7.42954 4.12841 5.84059 5.27121 4.71297 6.81284C3.58534 8.35446 2.97754 10.2149 2.97754 12.1249C2.97754 14.035 3.58534 15.8954 4.71297 17.437C5.84059 18.9787 7.42954 20.1215 9.24982 20.7C9.29139 20.7242 9.3381 20.7381 9.3861 20.7408C9.43411 20.7434 9.48205 20.7346 9.52601 20.7151C9.56997 20.6956 9.60868 20.666 9.63899 20.6287C9.6693 20.5914 9.69033 20.5474 9.70037 20.5004C9.75055 20.4502 9.75055 20.4 9.75055 20.2997V19.6004C9.75055 19.4498 9.6 19.2502 9.44946 19.1498ZM14.7502 3.54985C14.7085 3.5257 14.6618 3.51177 14.6137 3.50921C14.5656 3.50665 14.5176 3.51553 14.4736 3.53512C14.4297 3.55472 14.391 3.58446 14.3607 3.62191C14.3305 3.65937 14.3095 3.70346 14.2996 3.75058C14.2505 3.79967 14.2505 3.84985 14.2505 3.95021V4.64948C14.259 4.75032 14.2904 4.84789 14.3424 4.93469C14.3944 5.02149 14.4656 5.09522 14.5505 5.15021C15.9892 5.6779 17.2312 6.63458 18.1086 7.89093C18.986 9.14728 19.4564 10.6427 19.4564 12.1751C19.4564 13.7075 18.986 15.203 18.1086 16.4593C17.2312 17.7157 15.9892 18.6723 14.5505 19.2C14.4547 19.2416 14.3742 19.3121 14.3204 19.4017C14.2666 19.4913 14.2422 19.5955 14.2505 19.6997V20.4C14.2438 20.4917 14.2704 20.5828 14.3256 20.6564C14.3807 20.73 14.4606 20.7811 14.5505 20.8004C14.6209 20.8077 14.6916 20.79 14.7502 20.7502C16.5698 20.1636 18.1564 19.0151 19.2819 17.4697C20.4074 15.9243 21.0138 14.0618 21.0138 12.15C21.0138 10.2382 20.4074 8.37572 19.2819 6.83035C18.1564 5.28498 16.5698 4.13642 14.7502 3.54985V3.54985Z" fill="white"/>
</g>
<mask id="mask0_5613_321719" style="mask-type:alpha" maskUnits="userSpaceOnUse" x="11" y="11" width="24" height="24">
<circle cx="23" cy="23" r="12" fill="#D9D9D9"/>
</mask>
<g mask="url(#mask0_5613_321719)">
<path d="M35 11V35H11V11H35Z" fill="url(#paint0_linear_5613_321719)"/>
<path d="M15.7998 18.7456C16.113 18.7456 16.3669 18.4919 16.3669 18.1784C16.3669 17.8652 16.113 17.6113 15.7998 17.6113C15.4863 17.6113 15.2324 17.8652 15.2324 18.1784C15.2324 18.4919 15.4863 18.7456 15.7998 18.7456Z" fill="white"/>
<path d="M26.5532 25.8975C25.9268 25.8975 25.4189 26.4055 25.4189 27.0319C25.4189 27.6583 25.9268 28.1664 26.5532 28.1664C27.1798 28.1664 27.6879 27.6583 27.6879 27.0319C27.6879 26.4055 27.1798 25.8975 26.5532 25.8975Z" fill="white"/>
<path d="M15.1855 27.0781C15.1855 27.3913 15.4397 27.6452 15.7531 27.6452C16.0661 27.6452 16.3203 27.3913 16.3203 27.0781C16.3203 26.7647 16.0661 26.5107 15.7531 26.5107C15.4397 26.5107 15.1855 26.7647 15.1855 27.0781Z" fill="white"/>
<path d="M23.5636 16.1325C23.5636 15.5059 23.0558 14.998 22.4292 14.998C21.8028 14.998 21.2949 15.5059 21.2949 16.1325C21.2949 16.7592 21.8028 17.267 22.4292 17.267C23.0558 17.267 23.5636 16.7592 23.5636 16.1325Z" fill="white"/>
<path d="M19.5935 16.6992C18.9671 16.6992 18.459 17.2071 18.459 17.8335C18.459 18.4601 18.9671 18.9679 19.5935 18.9679C20.2201 18.9679 20.7279 18.4601 20.7279 17.8335C20.7279 17.2071 20.2203 16.6992 19.5935 16.6992Z" fill="white"/>
<path d="M22.3759 28.1658C22.3759 27.8523 22.1218 27.5986 21.8086 27.5986C21.4954 27.5986 21.2412 27.8523 21.2412 28.1658C21.2412 28.479 21.4954 28.7329 21.8086 28.7329C22.1218 28.7329 22.3759 28.479 22.3759 28.1658Z" fill="white"/>
<path d="M14.9102 24.395C14.9102 25.0216 15.418 25.5295 16.0444 25.5295C16.6708 25.5295 17.1789 25.0216 17.1789 24.395C17.1789 23.7686 16.6708 23.2607 16.0444 23.2607C15.418 23.2607 14.9102 23.7686 14.9102 24.395Z" fill="white"/>
<path d="M17.8913 17.0671C18.2048 17.0671 18.4585 16.8129 18.4585 16.4997C18.4585 16.1865 18.2048 15.9326 17.8913 15.9326C17.5781 15.9326 17.3242 16.1865 17.3242 16.4997C17.3242 16.8129 17.5781 17.0671 17.8913 17.0671Z" fill="white"/>
<path d="M17.8913 20.1023C18.2048 20.1023 18.4585 19.8483 18.4585 19.5349C18.4585 19.2219 18.2048 18.9678 17.8913 18.9678C17.5781 18.9678 17.3242 19.2219 17.3242 19.5349C17.3242 19.8483 17.5781 20.1023 17.8913 20.1023Z" fill="white"/>
<path d="M20.0153 31.0024C20.6417 31.0024 21.1498 30.4945 21.1498 29.8681C21.1498 29.2415 20.6417 28.7334 20.0153 28.7334C19.3889 28.7334 18.8809 29.2415 18.8809 29.8681C18.8809 30.4945 19.3889 31.0024 20.0153 31.0024Z" fill="white"/>
<path d="M18.0449 25.9587C18.0449 26.2719 18.2988 26.5258 18.612 26.5258C18.9252 26.5258 19.1792 26.2719 19.1792 25.9587C19.1792 25.6455 18.9252 25.3916 18.612 25.3916C18.2988 25.3916 18.0449 25.6455 18.0449 25.9587Z" fill="white"/>
<path d="M18.3132 28.4658C18.6264 28.4658 18.8803 28.2116 18.8803 27.8984C18.8803 27.5852 18.6264 27.3311 18.3132 27.3311C18 27.3311 17.7461 27.5852 17.7461 27.8984C17.7461 28.2116 18 28.4658 18.3132 28.4658Z" fill="white"/>
<path d="M17.8913 22.4782C18.2048 22.4782 18.4585 22.2243 18.4585 21.9109C18.4585 21.5979 18.2048 21.3438 17.8913 21.3438C17.5781 21.3438 17.3242 21.5979 17.3242 21.9109C17.3242 22.2243 17.5781 22.4782 17.8913 22.4782Z" fill="white"/>
<path d="M26.5534 18.7461C26.24 18.7461 25.9863 19 25.9863 19.3135C25.9863 19.6264 26.24 19.8806 26.5534 19.8806C26.8666 19.8806 27.1206 19.6264 27.1206 19.3135C27.1203 19 26.8666 18.7461 26.5534 18.7461Z" fill="white"/>
<path d="M31.9037 22.1408C31.9037 21.5144 31.3959 21.0068 30.7692 21.0068C30.1426 21.0068 29.6348 21.5147 29.6348 22.1411C29.6348 22.7677 30.1426 23.2756 30.7692 23.2756C31.3959 23.2756 31.9035 22.768 31.9037 22.1413V22.1408Z" fill="white"/>
<path d="M26.6594 29.2695C26.2538 29.2695 25.9248 29.5983 25.9248 30.0042C25.9248 30.4098 26.2536 30.7388 26.6594 30.7388C27.0653 30.7388 27.3941 30.41 27.3941 30.0042C27.3941 29.5986 27.0653 29.2695 26.6594 29.2695Z" fill="white"/>
<path d="M19.4482 14.9978C19.4482 15.3112 19.7022 15.5649 20.0154 15.5649C20.3288 15.5649 20.5827 15.3112 20.5827 14.9978C20.5827 14.6846 20.3288 14.4307 20.0154 14.4307C19.7022 14.4307 19.4482 14.6846 19.4482 14.9978Z" fill="white"/>
<path d="M15.2319 22.7162C15.8585 22.7162 16.3664 22.2084 16.3664 21.5817C16.3664 20.9553 15.8585 20.4473 15.2319 20.4473C14.6055 20.4473 14.0977 20.9553 14.0977 21.5817C14.0977 22.2084 14.6055 22.7162 15.2319 22.7162Z" fill="white"/>
<path d="M24.3761 30.4355C24.3761 29.8089 23.8681 29.3008 23.2417 29.3008C22.6153 29.3008 22.1074 29.8089 22.1074 30.4355C22.1074 31.0619 22.6153 31.5697 23.2417 31.5697C23.8681 31.5697 24.3761 31.0619 24.3761 30.4355Z" fill="white"/>
<path d="M29.0676 19.5889C28.7542 19.5889 28.5 19.8428 28.5 20.156C28.5 20.4694 28.7542 20.7233 29.0676 20.7233C29.3806 20.7233 29.6347 20.4694 29.6347 20.156C29.6347 19.8428 29.3806 19.5889 29.0676 19.5889Z" fill="white"/>
<path d="M24.3689 28.7329C24.6821 28.7329 24.936 28.479 24.936 28.1658C24.936 27.8523 24.6821 27.5986 24.3689 27.5986C24.0554 27.5986 23.8018 27.8523 23.8018 28.1658C23.8018 28.479 24.0554 28.7329 24.3689 28.7329Z" fill="white"/>
<path d="M25.4189 15.7109C25.1055 15.7109 24.8516 15.9651 24.8516 16.2783C24.8516 16.5915 25.1055 16.8457 25.4189 16.8457C25.7319 16.8457 25.986 16.5915 25.986 16.2783C25.986 15.9651 25.7319 15.7109 25.4189 15.7109Z" fill="white"/>
<path d="M28.2009 18.4552C28.8275 18.4552 29.3354 17.9474 29.3354 17.321C29.3354 16.6944 28.8275 16.1865 28.2009 16.1865C27.5745 16.1865 27.0664 16.6944 27.0664 17.321C27.0664 17.9474 27.5745 18.4552 28.2009 18.4552Z" fill="white"/>
<path d="M24.3682 18.1784C24.3682 18.4919 24.6223 18.7456 24.9353 18.7456C25.2487 18.7456 25.5026 18.4919 25.5026 18.1784C25.5026 17.8652 25.2487 17.6113 24.9353 17.6113C24.6223 17.6113 24.3682 17.8652 24.3682 18.1784Z" fill="white"/>
<path d="M29.0671 28.7338C29.6935 28.7338 30.2013 28.2257 30.2013 27.5993C30.2013 26.9727 29.6935 26.4648 29.0671 26.4648C28.4405 26.4648 27.9326 26.9727 27.9326 27.5993C27.9329 28.2257 28.4405 28.7338 29.0671 28.7338Z" fill="white"/>
<path d="M28.6732 23.519C29.1162 23.0759 29.1162 22.3576 28.6732 21.9146C28.2301 21.4716 27.5118 21.4716 27.0688 21.9146C26.6258 22.3576 26.6258 23.0759 27.0688 23.519C27.5118 23.962 28.2301 23.962 28.6732 23.519Z" fill="white"/>
<path d="M30.3667 24.8228C30.3425 24.5264 30.0943 24.3018 29.802 24.3018C29.7866 24.3018 29.7708 24.3025 29.7552 24.3037C29.443 24.3291 29.2106 24.603 29.2363 24.9152C29.2618 25.2274 29.5356 25.46 29.8478 25.4343C30.1596 25.4091 30.3922 25.135 30.3667 24.8228Z" fill="white"/>
</g>
<circle cx="31" cy="13" r="3.66146" fill="white" stroke="#596AEC" stroke-width="0.677083"/>
<path d="M31.0861 11.5225C31.0432 11.5225 31.0052 11.5501 30.992 11.591L30.3402 13.6042C30.3328 13.627 30.3005 13.627 30.2931 13.6042L29.6408 11.5909C29.6276 11.5501 29.5896 11.5225 29.5467 11.5225H28.437C28.3687 11.5225 28.3209 11.59 28.3436 11.6544L28.4795 12.0394C28.4934 12.079 28.5309 12.1054 28.5728 12.1054H29.098C29.1085 12.1054 29.1178 12.112 29.1213 12.1219L29.9765 14.5433C29.9905 14.5829 30.0279 14.6093 30.0699 14.6093H30.5634C30.6053 14.6093 30.6428 14.5829 30.6567 14.5433L31.6769 11.6544C31.6997 11.59 31.6519 11.5225 31.5836 11.5225H31.0861Z" fill="#596AEC"/>
<path d="M32.4458 14.644C32.218 14.644 32.0212 14.5967 31.8555 14.502C31.6907 14.4063 31.564 14.2711 31.4752 14.0965C31.3864 13.9209 31.342 13.7143 31.342 13.4766C31.342 13.2428 31.3864 13.0376 31.4752 12.861C31.565 12.6835 31.6902 12.5454 31.851 12.4467C32.0118 12.3471 32.2007 12.2973 32.4177 12.2973C32.5578 12.2973 32.69 12.32 32.8143 12.3654C32.9395 12.4097 33.05 12.4788 33.1457 12.5725C33.2424 12.6662 33.3183 12.7856 33.3736 12.9306C33.4288 13.0746 33.4564 13.2462 33.4564 13.4455V13.6097H31.5936V13.2487H32.943C32.942 13.1461 32.9198 13.0549 32.8764 12.975C32.833 12.8941 32.7723 12.8305 32.6944 12.7841C32.6175 12.7377 32.5277 12.7145 32.4251 12.7145C32.3156 12.7145 32.2195 12.7412 32.1366 12.7944C32.0537 12.8467 31.9891 12.9158 31.9428 13.0016C31.8974 13.0864 31.8742 13.1796 31.8732 13.2813V13.5964C31.8732 13.7286 31.8974 13.842 31.9457 13.9367C31.9941 14.0304 32.0616 14.1025 32.1484 14.1528C32.2352 14.2021 32.3368 14.2267 32.4532 14.2267C32.5312 14.2267 32.6017 14.2159 32.6648 14.1942C32.728 14.1715 32.7827 14.1385 32.8291 14.0951C32.8754 14.0516 32.9104 13.9979 32.9341 13.9338L33.4342 13.99C33.4027 14.1222 33.3425 14.2376 33.2537 14.3362C33.1659 14.4339 33.0535 14.5098 32.9164 14.5641C32.7793 14.6174 32.6224 14.644 32.4458 14.644Z" fill="#596AEC"/>
<defs>
<linearGradient id="paint0_linear_5613_321719" x1="23" y1="35" x2="23" y2="11" gradientUnits="userSpaceOnUse">
<stop stop-color="#1E444C"/>
<stop offset="1" stop-color="#62BDD0"/>
</linearGradient>
<clipPath id="clip0_5613_321719">
<rect width="24" height="24" fill="white"/>
</clipPath>
</defs>
</svg>
