<svg width="24" height="24" xmlns="http://www.w3.org/2000/svg" fill="none">
 <g>
  <defs>
   <clipPath id="prefix__a">
    <path fill="#fff" d="m0,0l24,0l0,24l-24,0l0,-24z" id="svg_6"/>
   </clipPath>
   <linearGradient id="paint0_linear" x1="-0.08155" y1="1.00101" x2="0.79722" y2="0.32662">
    <stop stop-color="#0C5863"/>
    <stop offset="1" stop-color="#04BBC3"/>
   </linearGradient>
  </defs>
  <g stroke="null" clip-path="url(#prefix__a)" id="svg_8">
   <path stroke="null" fill="#2775CA" d="m7.58141,15.16284a7.58142,7.58142 0 1 0 -7.58142,-7.58142a7.56247,7.56247 0 0 0 7.58142,7.58142z" id="svg_9"/>
   <path stroke="null" fill="#fff" d="m9.6663,8.78181c0,-1.10246 -0.66337,-1.48469 -1.99012,-1.64264c-0.94831,-0.12636 -1.13721,-0.37907 -1.13721,-0.82132c0,-0.44225 0.31589,-0.72655 0.94705,-0.72655c0.56924,0 0.8845,0.18954 1.04245,0.66337a0.23818,0.23818 0 0 0 0.22428,0.15479l0.50543,0a0.21481,0.21481 0 0 0 0.22112,-0.22112l0,-0.03159a1.5782,1.5782 0 0 0 -1.42152,-1.29516l0,-0.75814c0,-0.12636 -0.09477,-0.22112 -0.25271,-0.25271l-0.47384,0c-0.12636,0 -0.22112,0.09477 -0.25271,0.25271l0,0.72908c-0.9502,0.12952 -1.5504,0.75877 -1.5504,1.54851c0,1.04245 0.63179,1.45374 1.95853,1.61105c0.8845,0.15795 1.17196,0.34495 1.17196,0.85291s-0.44225,0.85291 -1.04245,0.85291c-0.82132,0 -1.10246,-0.34432 -1.20039,-0.82132a0.2306,0.2306 0 0 0 -0.22492,-0.19206l-0.53954,0a0.21607,0.21607 0 0 0 -0.22112,0.22112l0,0.03159c0.12636,0.78973 0.63179,1.35834 1.67423,1.51628l0,0.75814c0,0.12636 0.09477,0.22112 0.25271,0.25271l0.47384,0c0.12636,0 0.22112,-0.09477 0.25271,-0.25271l0,-0.75814c0.94768,-0.15795 1.57946,-0.82132 1.57946,-1.67423l0.00316,0.00316l0,-0.00063z" id="svg_10"/>
   <path stroke="null" fill="#fff" d="m5.97036,12.09868a4.72702,4.72702 0 0 1 0,-8.87658a0.31716,0.31716 0 0 0 0.18954,-0.31589l0,-0.44225a0.24008,0.24008 0 0 0 -0.18954,-0.25271a0.18954,0.18954 0 0 0 -0.12636,0.03159a5.6848,5.6848 0 0 0 0,10.83511a0.19269,0.19269 0 0 0 0.2843,-0.12636c0.03159,-0.03159 0.03159,-0.06318 0.03159,-0.12636l0,-0.44225c0,-0.09477 -0.09477,-0.22112 -0.18954,-0.2843zm3.34846,-9.85585a0.19206,0.19206 0 0 0 -0.2843,0.12636c-0.03159,0.03159 -0.03159,0.06318 -0.03159,0.12636l0,0.44225a0.41887,0.41887 0 0 0 0.18954,0.31589a4.72765,4.72765 0 0 1 0,8.87658a0.31652,0.31652 0 0 0 -0.18954,0.31589l0,0.44225a0.24071,0.24071 0 0 0 0.18954,0.25271a0.18954,0.18954 0 0 0 0.12636,-0.03159a5.70881,5.70881 0 0 0 0,-10.8667z" id="svg_11"/>
  </g>
  <g stroke="null" id="svg_12">
   <g stroke="null" id="svg_7">
    <circle stroke="null" cx="15.07824" cy="15.40082" r="8.3135" fill="black" id="svg_1"/>
    <path stroke="null" fill-rule="evenodd" clip-rule="evenodd" d="m13.08947,10.43789c0.20891,0 0.37832,-0.16938 0.37832,-0.37833c0,-0.20895 -0.16942,-0.37833 -0.37832,-0.37833c-0.20897,0 -0.37838,0.16938 -0.37838,0.37833c0,0.20895 0.16942,0.37833 0.37838,0.37833zm3.98264,0.47548c0,0.20895 -0.16936,0.37833 -0.37832,0.37833c-0.20897,0 -0.37832,-0.16938 -0.37832,-0.37833c0,-0.20895 0.16936,-0.37833 0.37832,-0.37833c0.20897,0 0.37832,0.16938 0.37832,0.37833zm-5.39883,0.5266c0.20895,0 0.37833,-0.16938 0.37833,-0.37833c0,-0.20895 -0.16938,-0.37833 -0.37833,-0.37833c-0.20895,0 -0.37833,0.16938 -0.37833,0.37833c0,0.20895 0.16938,0.37833 0.37833,0.37833zm1.89178,0.51128c0,0.4179 -0.33878,0.75667 -0.75666,0.75667c-0.41792,0 -0.75669,-0.33878 -0.75669,-0.75667c0,-0.4179 0.33878,-0.75667 0.75669,-0.75667c0.41788,0 0.75666,0.33878 0.75666,0.75667zm-2.36717,4.3764c0,0.41793 -0.33878,0.75671 -0.75667,0.75671c-0.4179,0 -0.75667,-0.33878 -0.75667,-0.75671c0,-0.41788 0.33878,-0.75666 0.75667,-0.75666c0.4179,0 0.75667,0.33878 0.75667,0.75666zm-1.29889,-1.11965c0.4179,0 0.75667,-0.33878 0.75667,-0.75671c0,-0.41788 -0.33877,-0.75666 -0.75667,-0.75666c-0.4179,0 -0.75667,0.33878 -0.75667,0.75666c0,0.41793 0.33877,0.75671 0.75667,0.75671zm2.1526,-2.12172c0,0.20891 -0.16938,0.37832 -0.37833,0.37832c-0.20895,0 -0.37833,-0.16942 -0.37833,-0.37832c0,-0.20897 0.16938,-0.37836 0.37833,-0.37836c0.20895,0 0.37833,0.16938 0.37833,0.37836zm3.94165,6.13512c0.20897,0 0.37832,-0.16936 0.37832,-0.37832c0,-0.20897 -0.16936,-0.37832 -0.37832,-0.37832c-0.20891,0 -0.37832,0.16936 -0.37832,0.37832c0,0.20897 0.16942,0.37832 0.37832,0.37832zm3.51245,-5.72105c0,0.20897 -0.16942,0.37838 -0.37832,0.37838c-0.20897,0 -0.37838,-0.16942 -0.37838,-0.37838c0,-0.20891 0.16942,-0.37832 0.37838,-0.37832c0.20891,0 0.37832,0.16942 0.37832,0.37832zm-2.05516,-0.18402c0.20897,0 0.37832,-0.16942 0.37832,-0.37834c0,-0.20895 -0.16936,-0.37833 -0.37832,-0.37833c-0.20891,0 -0.37832,0.16938 -0.37832,0.37833c0,0.20893 0.16942,0.37834 0.37832,0.37834zm-6.8255,4.80075c0,0.20897 -0.16938,0.37838 -0.37833,0.37838c-0.20895,0 -0.37833,-0.16942 -0.37833,-0.37838c0,-0.20891 0.16938,-0.37832 0.37833,-0.37832c0.20895,0 0.37833,0.16942 0.37833,0.37832zm9.02294,-1.09643c0.20825,-0.01704 0.3633,-0.19971 0.3462,-0.40796c-0.01704,-0.20825 -0.19971,-0.36324 -0.40796,-0.3462c-0.20825,0.0171 -0.36324,0.19971 -0.3462,0.40796c0.0171,0.20825 0.19971,0.36324 0.40796,0.3462zm-4.98418,1.82244c0,0.20897 -0.16942,0.37832 -0.37832,0.37832c-0.20897,0 -0.37838,-0.16936 -0.37838,-0.37832c0,-0.20897 0.16942,-0.37832 0.37838,-0.37832c0.20891,0 0.37832,0.16936 0.37832,0.37832zm-4.38636,-6.28344c0.20895,0 0.37833,-0.16938 0.37833,-0.37833c0,-0.20895 -0.16938,-0.37833 -0.37833,-0.37833c-0.20895,0 -0.37833,0.16938 -0.37833,0.37833c0,0.20895 0.16938,0.37833 0.37833,0.37833zm2.05542,6.10452c0,0.20891 -0.16938,0.37832 -0.37833,0.37832c-0.20895,0 -0.37833,-0.16942 -0.37833,-0.37832c0,-0.20897 0.16938,-0.37838 0.37833,-0.37838c0.20895,0 0.37833,0.16942 0.37833,0.37838zm-0.17913,-0.91519c0.20895,0 0.37833,-0.16936 0.37833,-0.37832c0,-0.20897 -0.16938,-0.37832 -0.37833,-0.37832c-0.20895,0 -0.37833,0.16936 -0.37833,0.37832c0,0.20897 0.16938,0.37832 0.37833,0.37832zm4.59653,-5.56766c0,0.20895 -0.16936,0.37833 -0.37832,0.37833c-0.20891,0 -0.37832,-0.16938 -0.37832,-0.37833c0,-0.20895 0.16942,-0.37833 0.37832,-0.37833c0.20897,0 0.37832,0.16938 0.37832,0.37833zm-4.69865,2.48987c0,0.20891 -0.16938,0.37832 -0.37833,0.37832c-0.20895,0 -0.37833,-0.16942 -0.37833,-0.37832c0,-0.20897 0.16938,-0.37838 0.37833,-0.37838c0.20895,0 0.37833,0.16942 0.37833,0.37838zm3.19005,6.4419c0.41793,0 0.75671,-0.33878 0.75671,-0.75666c0,-0.41793 -0.33878,-0.75671 -0.75671,-0.75671c-0.41788,0 -0.75666,0.33878 -0.75666,0.75671c0,0.41788 0.33878,0.75666 0.75666,0.75666zm4.64232,-2.64832c0,0.41788 -0.33878,0.75666 -0.75666,0.75666c-0.41793,0 -0.75671,-0.33878 -0.75671,-0.75666c0,-0.41793 0.33878,-0.75671 0.75671,-0.75671c0.41788,0 0.75666,0.33878 0.75666,0.75671zm-1.55433,-2.50011c0.41793,0 0.75666,-0.33878 0.75666,-0.75666c0,-0.41788 -0.33871,-0.75666 -0.75666,-0.75666c-0.41788,0 -0.75666,0.33878 -0.75666,0.75666c0,0.41788 0.33878,0.75666 0.75666,0.75666zm0.97648,-4.35595c0,0.4179 -0.33878,0.75667 -0.75671,0.75667c-0.41788,0 -0.75666,-0.33878 -0.75666,-0.75667c0,-0.4179 0.33878,-0.75667 0.75666,-0.75667c0.41793,0 0.75671,0.33878 0.75671,0.75667zm-4.60609,-0.03578c0.41788,0 0.75666,-0.33877 0.75666,-0.75667c0,-0.4179 -0.33878,-0.75667 -0.75666,-0.75667c-0.41788,0 -0.75666,0.33878 -0.75666,0.75667c0,0.4179 0.33878,0.75667 0.75666,0.75667zm6.31879,3.25165c0,0.41788 -0.33878,0.75666 -0.75666,0.75666c-0.41788,0 -0.75666,-0.33878 -0.75666,-0.75666c0,-0.41793 0.33878,-0.75671 0.75666,-0.75671c0.41788,0 0.75666,0.33878 0.75666,0.75671zm-3.56833,4.01851c0.41793,0 0.75671,-0.33878 0.75671,-0.75666c0,-0.41793 -0.33878,-0.75671 -0.75671,-0.75671c-0.41788,0 -0.75666,0.33878 -0.75666,0.75671c0,0.41788 0.33878,0.75666 0.75666,0.75666zm1.0991,1.50825c0,0.41788 -0.33878,0.75666 -0.75666,0.75666c-0.41788,0 -0.75666,-0.33878 -0.75666,-0.75666c0,-0.41793 0.33878,-0.75671 0.75666,-0.75671c0.41788,0 0.75666,0.33878 0.75666,0.75671zm-5.46025,0.38343c0.41788,0 0.75666,-0.33878 0.75666,-0.75666c0,-0.41793 -0.33878,-0.75671 -0.75666,-0.75671c-0.4179,0 -0.75667,0.33878 -0.75667,0.75671c0,0.41788 0.33878,0.75666 0.75667,0.75666z" fill="url(#paint0_linear)" id="svg_2"/>
    <circle stroke="null" cx="15.07824" cy="15.40082" r="8.3135" fill="black" id="svg_3"/>
    <path stroke="null" fill-rule="evenodd" clip-rule="evenodd" d="m13.08947,10.43789c0.20891,0 0.37832,-0.16938 0.37832,-0.37833c0,-0.20895 -0.16942,-0.37833 -0.37832,-0.37833c-0.20897,0 -0.37838,0.16938 -0.37838,0.37833c0,0.20895 0.16942,0.37833 0.37838,0.37833zm3.98264,0.47548c0,0.20895 -0.16936,0.37833 -0.37832,0.37833c-0.20897,0 -0.37832,-0.16938 -0.37832,-0.37833c0,-0.20895 0.16936,-0.37833 0.37832,-0.37833c0.20897,0 0.37832,0.16938 0.37832,0.37833zm-5.39883,0.5266c0.20895,0 0.37833,-0.16938 0.37833,-0.37833c0,-0.20895 -0.16938,-0.37833 -0.37833,-0.37833c-0.20895,0 -0.37833,0.16938 -0.37833,0.37833c0,0.20895 0.16938,0.37833 0.37833,0.37833zm1.89178,0.51128c0,0.4179 -0.33878,0.75667 -0.75666,0.75667c-0.41792,0 -0.75669,-0.33878 -0.75669,-0.75667c0,-0.4179 0.33878,-0.75667 0.75669,-0.75667c0.41788,0 0.75666,0.33878 0.75666,0.75667zm-2.36717,4.3764c0,0.41793 -0.33878,0.75671 -0.75667,0.75671c-0.4179,0 -0.75667,-0.33878 -0.75667,-0.75671c0,-0.41788 0.33878,-0.75666 0.75667,-0.75666c0.4179,0 0.75667,0.33878 0.75667,0.75666zm-1.29889,-1.11965c0.4179,0 0.75667,-0.33878 0.75667,-0.75671c0,-0.41788 -0.33877,-0.75666 -0.75667,-0.75666c-0.4179,0 -0.75667,0.33878 -0.75667,0.75666c0,0.41793 0.33877,0.75671 0.75667,0.75671zm2.1526,-2.12172c0,0.20891 -0.16938,0.37832 -0.37833,0.37832c-0.20895,0 -0.37833,-0.16942 -0.37833,-0.37832c0,-0.20897 0.16938,-0.37836 0.37833,-0.37836c0.20895,0 0.37833,0.16938 0.37833,0.37836zm3.94165,6.13512c0.20897,0 0.37832,-0.16936 0.37832,-0.37832c0,-0.20897 -0.16936,-0.37832 -0.37832,-0.37832c-0.20891,0 -0.37832,0.16936 -0.37832,0.37832c0,0.20897 0.16942,0.37832 0.37832,0.37832zm3.51245,-5.72105c0,0.20897 -0.16942,0.37838 -0.37832,0.37838c-0.20897,0 -0.37838,-0.16942 -0.37838,-0.37838c0,-0.20891 0.16942,-0.37832 0.37838,-0.37832c0.20891,0 0.37832,0.16942 0.37832,0.37832zm-2.05516,-0.18402c0.20897,0 0.37832,-0.16942 0.37832,-0.37834c0,-0.20895 -0.16936,-0.37833 -0.37832,-0.37833c-0.20891,0 -0.37832,0.16938 -0.37832,0.37833c0,0.20893 0.16942,0.37834 0.37832,0.37834zm-6.8255,4.80075c0,0.20897 -0.16938,0.37838 -0.37833,0.37838c-0.20895,0 -0.37833,-0.16942 -0.37833,-0.37838c0,-0.20891 0.16938,-0.37832 0.37833,-0.37832c0.20895,0 0.37833,0.16942 0.37833,0.37832zm9.02294,-1.09643c0.20825,-0.01704 0.3633,-0.19971 0.3462,-0.40796c-0.01704,-0.20825 -0.19971,-0.36324 -0.40796,-0.3462c-0.20825,0.0171 -0.36324,0.19971 -0.3462,0.40796c0.0171,0.20825 0.19971,0.36324 0.40796,0.3462zm-4.98418,1.82244c0,0.20897 -0.16942,0.37832 -0.37832,0.37832c-0.20897,0 -0.37838,-0.16936 -0.37838,-0.37832c0,-0.20897 0.16942,-0.37832 0.37838,-0.37832c0.20891,0 0.37832,0.16936 0.37832,0.37832zm-4.38636,-6.28344c0.20895,0 0.37833,-0.16938 0.37833,-0.37833c0,-0.20895 -0.16938,-0.37833 -0.37833,-0.37833c-0.20895,0 -0.37833,0.16938 -0.37833,0.37833c0,0.20895 0.16938,0.37833 0.37833,0.37833zm2.05542,6.10452c0,0.20891 -0.16938,0.37832 -0.37833,0.37832c-0.20895,0 -0.37833,-0.16942 -0.37833,-0.37832c0,-0.20897 0.16938,-0.37838 0.37833,-0.37838c0.20895,0 0.37833,0.16942 0.37833,0.37838zm-0.17913,-0.91519c0.20895,0 0.37833,-0.16936 0.37833,-0.37832c0,-0.20897 -0.16938,-0.37832 -0.37833,-0.37832c-0.20895,0 -0.37833,0.16936 -0.37833,0.37832c0,0.20897 0.16938,0.37832 0.37833,0.37832zm4.59653,-5.56766c0,0.20895 -0.16936,0.37833 -0.37832,0.37833c-0.20891,0 -0.37832,-0.16938 -0.37832,-0.37833c0,-0.20895 0.16942,-0.37833 0.37832,-0.37833c0.20897,0 0.37832,0.16938 0.37832,0.37833zm-4.69865,2.48987c0,0.20891 -0.16938,0.37832 -0.37833,0.37832c-0.20895,0 -0.37833,-0.16942 -0.37833,-0.37832c0,-0.20897 0.16938,-0.37838 0.37833,-0.37838c0.20895,0 0.37833,0.16942 0.37833,0.37838zm3.19005,6.4419c0.41793,0 0.75671,-0.33878 0.75671,-0.75666c0,-0.41793 -0.33878,-0.75671 -0.75671,-0.75671c-0.41788,0 -0.75666,0.33878 -0.75666,0.75671c0,0.41788 0.33878,0.75666 0.75666,0.75666zm4.64232,-2.64832c0,0.41788 -0.33878,0.75666 -0.75666,0.75666c-0.41793,0 -0.75671,-0.33878 -0.75671,-0.75666c0,-0.41793 0.33878,-0.75671 0.75671,-0.75671c0.41788,0 0.75666,0.33878 0.75666,0.75671zm-1.55433,-2.50011c0.41793,0 0.75666,-0.33878 0.75666,-0.75666c0,-0.41788 -0.33871,-0.75666 -0.75666,-0.75666c-0.41788,0 -0.75666,0.33878 -0.75666,0.75666c0,0.41788 0.33878,0.75666 0.75666,0.75666zm0.97648,-4.35595c0,0.4179 -0.33878,0.75667 -0.75671,0.75667c-0.41788,0 -0.75666,-0.33878 -0.75666,-0.75667c0,-0.4179 0.33878,-0.75667 0.75666,-0.75667c0.41793,0 0.75671,0.33878 0.75671,0.75667zm-4.60609,-0.03578c0.41788,0 0.75666,-0.33877 0.75666,-0.75667c0,-0.4179 -0.33878,-0.75667 -0.75666,-0.75667c-0.41788,0 -0.75666,0.33878 -0.75666,0.75667c0,0.4179 0.33878,0.75667 0.75666,0.75667zm6.31879,3.25165c0,0.41788 -0.33878,0.75666 -0.75666,0.75666c-0.41788,0 -0.75666,-0.33878 -0.75666,-0.75666c0,-0.41793 0.33878,-0.75671 0.75666,-0.75671c0.41788,0 0.75666,0.33878 0.75666,0.75671zm-3.56833,4.01851c0.41793,0 0.75671,-0.33878 0.75671,-0.75666c0,-0.41793 -0.33878,-0.75671 -0.75671,-0.75671c-0.41788,0 -0.75666,0.33878 -0.75666,0.75671c0,0.41788 0.33878,0.75666 0.75666,0.75666zm1.0991,1.50825c0,0.41788 -0.33878,0.75666 -0.75666,0.75666c-0.41788,0 -0.75666,-0.33878 -0.75666,-0.75666c0,-0.41793 0.33878,-0.75671 0.75666,-0.75671c0.41788,0 0.75666,0.33878 0.75666,0.75671zm-5.46025,0.38343c0.41788,0 0.75666,-0.33878 0.75666,-0.75666c0,-0.41793 -0.33878,-0.75671 -0.75666,-0.75671c-0.4179,0 -0.75667,0.33878 -0.75667,0.75671c0,0.41788 0.33878,0.75666 0.75667,0.75666z" fill="url(#paint0_linear)" id="svg_4"/>
   </g>
  </g>
  <g id="svg_13">
   <circle stroke-width="0.508" stroke="#596AEC" fill="#fff" r="3.027" cy="6.625" cx="20.277" id="svg_14"/>
   <path d="m20.348,5.341a0.082,0.082 0 0 0 -0.078,0.06l-0.539,1.75a0.02,0.02 0 0 1 -0.039,0l-0.539,-1.75a0.082,0.082 0 0 0 -0.078,-0.06l-0.917,0c-0.057,0 -0.096,0.059 -0.078,0.115l0.113,0.335a0.082,0.082 0 0 0 0.077,0.057l0.434,0a0.02,0.02 0 0 1 0.02,0.014l0.707,2.106a0.082,0.082 0 0 0 0.077,0.057l0.408,0a0.082,0.082 0 0 0 0.077,-0.057l0.844,-2.512c0.018,-0.056 -0.021,-0.115 -0.078,-0.115l-0.411,0zm0.986,2.714c0.438,0 0.74,-0.225 0.817,-0.569l-0.413,-0.049c-0.06,0.168 -0.207,0.255 -0.398,0.255c-0.286,0 -0.476,-0.198 -0.48,-0.536l1.31,0l0,-0.143c0,-0.694 -0.397,-0.998 -0.859,-0.998c-0.538,0 -0.89,0.415 -0.89,1.025c0,0.62 0.347,1.015 0.913,1.015zm-0.472,-1.213c0.013,-0.252 0.19,-0.465 0.455,-0.465c0.254,0 0.426,0.196 0.428,0.465l-0.883,0z" fill="#596AEC" id="svg_15"/>
  </g>
 </g>
</svg>