<svg xmlns="http://www.w3.org/2000/svg" width="24" height="24" fill="none">
  <g stroke="null">
    <path fill="#5A5564"
      d="M12.768 4.75l-.382.385a5.394 5.443 0 010 7.345l.382.385a5.938 5.991 0 000-8.123v.009zm-8.013.034a5.393 5.442 0 017.28 0l.381-.384a5.938 5.991 0 00-8.05 0l.39.385h0zm-.356 7.7a5.394 5.443 0 010-7.341l-.381-.385a5.938 5.991 0 000 8.123l.381-.397h0zm7.63.354a5.393 5.442 0 01-7.279 0l-.38.385a5.937 5.99 0 008.05 0l-.39-.385z" />
    <path fill="#F09242"
      d="M10.796 7.53c-.075-.802-.761-1.071-1.629-1.153V5.272h-.67v1.084H7.96V5.272h-.665v1.112h-1.36v.724s.495-.009.487 0a.347.35 0 01.381.298v3.045a.235.237 0 01-.081.165.233.235 0 01-.173.058c.009.008-.487 0-.487 0l-.128.81h1.347v1.13h.671V11.5h.536v1.108h.672V11.49c1.133-.07 1.923-.351 2.021-1.421.08-.861-.32-1.246-.962-1.4.39-.194.631-.553.576-1.14zm-.94 2.406c0 .84-1.427.745-1.881.745V9.19c.454 0 1.882-.131 1.882.746zm-.31-2.101c0 .769-1.191.676-1.57.676V7.154c.379 0 1.57-.12 1.57.681z" />
    <path fill="#282138"
      d="M8.39 15.813a6.938 7 0 11.002-14 6.938 7 0 01-.002 14zm0-13.454a6.393 6.45 0 10.01 12.9 6.393 6.45 0 00-.01-12.9z" />
  </g>
  <path fill="#F5AC37" stroke="#fff" stroke-width=".667"
    d="M15.563 8.646a6.667 6.667 0 110 13.333 6.667 6.667 0 010-13.333z" />
  <path fill="#FEFEFD"
    d="M15.818 15.806h2.66c.057 0 .083 0 .088-.074a5.07 5.07 0 000-.814c0-.052-.027-.074-.084-.074H13.19c-.066 0-.083.022-.083.083v.779c0 .1 0 .1.105.1h2.607zm2.45-1.872a.086.086 0 000-.061 1.721 1.721 0 00-.158-.276 2.225 2.225 0 00-.323-.407 1.076 1.076 0 00-.202-.197 3.144 3.144 0 00-1.312-.665 3.258 3.258 0 00-.744-.078h-2.35c-.065 0-.074.026-.074.083v1.553c0 .065 0 .083.084.083h5.048s.044-.009.053-.035h-.022zm0 2.782a1.02 1.02 0 00-.223 0h-4.852c-.065 0-.087 0-.087.088v1.518c0 .07 0 .088.087.088h2.24c.107.008.214 0 .32-.022.324-.023.644-.094.95-.21.11-.039.217-.089.318-.149h.03a2.843 2.843 0 001.221-1.229s.03-.066-.003-.083zm-6.042 2.481v-2.419c0-.057 0-.066-.07-.066h-.949c-.053 0-.074 0-.074-.07v-.831h1.015c.056 0 .078 0 .078-.074v-.823c0-.052 0-.065-.07-.065h-.949c-.053 0-.074 0-.074-.07v-.77c0-.048 0-.061.07-.061h.94c.066 0 .083 0 .083-.083v-2.359c0-.07 0-.087.088-.087h3.281c.238.01.475.035.709.079.482.089.945.261 1.37.507.28.165.539.365.77.595.172.18.329.375.467.582.138.21.252.435.342.67.011.06.07.102.13.091h.784c.1 0 .1 0 .105.097v.717c0 .07-.027.088-.097.088h-.604c-.06 0-.078 0-.074.079.024.266.024.534 0 .8 0 .074 0 .083.084.083h.69c.03.04 0 .079 0 .119a.886.886 0 010 .152v.53c0 .074-.021.096-.087.096h-.827a.11.11 0 00-.127.083c-.197.512-.512.971-.919 1.34-.149.133-.305.26-.468.375-.175.101-.345.206-.525.29-.33.148-.677.258-1.033.327-.337.06-.68.088-1.023.083h-3.037v-.004l.002-.001z" />
  <g stroke="null">
    <circle cx="19.277" cy="7.625" r="3.027" fill="#fff" stroke="#596AEC" stroke-width=".508" />
    <path fill="#596AEC"
      d="M19.348 6.341a.082.082 0 00-.078.06l-.539 1.75a.02.02 0 01-.039 0l-.539-1.75a.082.082 0 00-.078-.06h-.917c-.057 0-.096.059-.078.115l.113.335a.082.082 0 00.077.057h.434a.02.02 0 01.02.014l.707 2.106a.082.082 0 00.077.057h.408a.082.082 0 00.077-.057l.844-2.512c.018-.056-.021-.115-.078-.115h-.411zM20.334 9.055c.438 0 .74-.225.817-.569l-.413-.049c-.06.168-.207.255-.398.255-.286 0-.476-.198-.48-.536h1.31v-.143c0-.694-.397-.998-.859-.998-.538 0-.89.415-.89 1.025 0 .62.347 1.015.913 1.015zm-.472-1.213c.013-.252.19-.465.455-.465.254 0 .426.196.428.465h-.883z" />
  </g>
</svg>