<svg width="25" height="24" viewBox="0 0 25 24" fill="none" xmlns="http://www.w3.org/2000/svg">
<path d="M12 24C18.6274 24 24 18.6274 24 12C24 5.37258 18.6274 0 12 0C5.37258 0 0 5.37258 0 12C0 18.6274 5.37258 24 12 24Z" fill="#2A5ADA"/>
<path d="M12 4.5L10.6508 5.29125L6.975 7.45875L5.625 8.25V15.75L6.97425 16.5413L10.6845 18.7087L12.0338 19.5L13.383 18.7087L17.0258 16.5413L18.375 15.75V8.25L17.0258 7.45875L13.3492 5.29125L12 4.5ZM8.3235 14.1675V9.8325L12 7.665L15.6765 9.8325V14.1675L12 16.335L8.3235 14.1675Z" fill="white"/>
<circle cx="21" cy="19" r="3.66146" fill="white" stroke="#596AEC" stroke-width="0.677083"/>
<path d="M21.9931 17.4004C21.9432 17.4004 21.899 17.4325 21.8837 17.48L21.1263 19.8192C21.1177 19.8457 21.0802 19.8457 21.0716 19.8192L20.3137 17.48C20.2984 17.4325 20.2542 17.4004 20.2043 17.4004H18.9149C18.8356 17.4004 18.78 17.4788 18.8065 17.5537L18.9643 18.001C18.9806 18.047 19.024 18.0778 19.0728 18.0778H19.683C19.6952 18.0778 19.7061 18.0855 19.7101 18.0969L20.7038 20.9104C20.7201 20.9564 20.7635 20.9871 20.8123 20.9871H21.3857C21.4344 20.9871 21.4779 20.9564 21.4941 20.9104L22.6795 17.5537C22.706 17.4789 22.6504 17.4004 22.5711 17.4004H21.9931Z" fill="#596AEC"/>
</svg>
