<svg xmlns="http://www.w3.org/2000/svg" width="73" height="73">
  <g data-name="Group 5245">
    <g data-name="Group 4662">
      <g data-name="Group 68">
        <g data-name="Group 64">
          <circle cx="36.5" cy="36.5" r="36.5" fill="#fff" data-name="Ellipse 58" />
          <path fill="#0d124d"
            d="M36.499 2.281A34.219 34.219 0 112.281 36.499 34.258 34.258 0 0136.499 2.281m0-2.281a36.5 36.5 0 1036.5 36.5A36.5 36.5 0 0036.499 0z"
            data-name="Path 27" />
        </g>
      </g>
    </g>
    <path fill="#0d124d"
      d="M36.504 23.886l10.931 6.275v12.611l-10.9 6.313-10.923-6.259v-12.6l10.892-6.34m0-9.25l-4.008 2.313-10.916 6.336-4.008 2.312v21.869l4.008 2.313 10.931 6.275 4.008 2.313 4.008-2.313 10.893-6.318 4.008-2.313v-21.9l-4.008-2.315-10.923-6.259-4.008-2.313z"
      data-name="Path 10540" />
  </g>
</svg>