<svg xmlns="http://www.w3.org/2000/svg" width="25" height="24" fill="none">
  <g>
    <path fill="#8247e5" d="M12 24c6.627 0 12-5.373 12-12S18.627 0 12 0 0 5.373 0 12s5.373 12 12 12z" />
    <path fill="#fff" stroke="null"
      d="M16.217 9.068c-.298-.17-.68-.17-1.021 0l-2.384 1.405-1.617.893-2.34 1.405c-.299.17-.682.17-1.022 0l-1.83-1.107c-.298-.17-.51-.51-.51-.893V8.643c0-.34.17-.681.51-.894l1.83-1.064c.298-.17.68-.17 1.021 0l1.83 1.106c.298.17.511.511.511.894v1.405l1.617-.937V7.706c0-.34-.17-.68-.51-.893l-3.405-2c-.298-.171-.681-.171-1.021 0l-3.49 2.042c-.34.17-.511.51-.511.851v4c0 .341.17.682.51.895l3.448 2c.298.17.68.17 1.021 0l2.341-1.362 1.617-.936 2.341-1.362c.298-.17.681-.17 1.022 0l1.83 1.064c.298.17.51.51.51.894v2.128c0 .34-.17.68-.51.893l-1.788 1.064c-.298.17-.68.17-1.021 0l-1.83-1.064c-.298-.17-.511-.51-.511-.893v-1.362l-1.617.936v1.404c0 .34.17.681.51.894l3.448 2c.298.17.68.17 1.021 0l3.448-2c.297-.17.51-.51.51-.894v-4.043c0-.34-.17-.68-.51-.894l-3.448-2z"
      class="prefix__st0" />
  </g>
  <g>
    <circle cx="21" cy="19" r="3.661" fill="#fff" stroke="#596AEC" stroke-width=".677" />
    <path fill="#596AEC"
      d="M21.993 17.4a.115.115 0 00-.11.08l-.757 2.34a.029.029 0 01-.054 0l-.758-2.34a.115.115 0 00-.11-.08h-1.29a.115.115 0 00-.108.154l.158.447c.017.046.06.077.109.077h.61c.012 0 .023.008.027.019l.994 2.813c.016.046.06.077.108.077h.574c.048 0 .092-.03.108-.077l1.185-3.356a.115.115 0 00-.108-.154h-.578z" />
  </g>
</svg>