<svg xmlns="http://www.w3.org/2000/svg" width="73" height="73">
  <g data-name="Group 5247">
    <g data-name="Group 5246">
      <g data-name="Group 4662">
        <g data-name="Group 68">
          <g data-name="Group 64">
            <circle cx="36.5" cy="36.5" r="36.5" fill="#fff" data-name="Ellipse 58" />
            <path fill="#0d124d"
              d="M36.499 2.281A34.219 34.219 0 112.281 36.499 34.258 34.258 0 0136.499 2.281m0-2.281a36.5 36.5 0 1036.5 36.5A36.5 36.5 0 0036.499 0z"
              data-name="Path 27" />
          </g>
        </g>
      </g>
    </g>
    <g style="mix-blend-mode:'darken';isolation:'isolate'" fill="#0d124d">
      <path
        d="M28.576 16.827c-.591-.091-.616-.1-.338-.144a9.234 9.234 0 012.659.235 11.488 11.488 0 015.833 3.88l.522.578.747-.119a15.856 15.856 0 019.031 1.127 11.7 11.7 0 012.046 1.184 3.137 3.137 0 01.189.789 4.891 4.891 0 01-.3 3.066.8.8 0 00-.084.887.863.863 0 00.772.485c.666 0 1.382-1.071 1.714-2.559l.132-.591.261.294a11.392 11.392 0 012.752 5.381l.05.408-.241-.371a4.594 4.594 0 00-1.365-1.425c-.962-.632-1.978-.848-4.671-.989a19.1 19.1 0 01-5.173-.776c-2.322-.752-3.492-1.755-6.251-5.351a26.263 26.263 0 00-2.735-3.193 9.8 9.8 0 00-5.55-2.796z"
        data-name="Path 10541" />
      <path
        d="M49.622 20.394a6.47 6.47 0 01.5-2.421 2.594 2.594 0 01.242-.464 1.6 1.6 0 01-.113.419 5.47 5.47 0 00-.1 2.478c.187 1.264.293 1.446 1.637 2.811.63.64 1.363 1.448 1.629 1.794l.483.63-.483-.45a20.577 20.577 0 00-2.253-1.78c-.2-.1-.231-.1-.355.022s-.139.283-.154 1.087a6.05 6.05 0 01-.611 2.861c-.224.435-.26.342-.057-.149a3.894 3.894 0 00.166-1.741c0-2.437-.294-3.023-2-4.027a18.712 18.712 0 00-1.584-.815 6.008 6.008 0 01-.774-.376 16.585 16.585 0 012.383.691c1 .381 1.161.43 1.282.385.083-.03.123-.265.162-.955z"
        data-name="Path 10542" />
      <path
        d="M29.723 24.563a9.884 9.884 0 01-1.781-6.04l.05-.582.273.05a6.88 6.88 0 011.811.67c1.136.686 1.628 1.589 2.129 3.908.147.679.339 1.448.427 1.708a11.525 11.525 0 001.119 2.033c.315.458.106.674-.591.612a5.674 5.674 0 01-3.437-2.359z"
        data-name="Path 10543" />
      <path
        d="M48.167 36.783c-5.606-2.245-7.581-4.193-7.581-7.479a5.27 5.27 0 01.037-.879 4.253 4.253 0 01.482.355c1.137.903 2.407 1.293 5.935 1.803a24.678 24.678 0 014.318.9c3.422 1.128 5.539 3.417 6.044 6.535a10.716 10.716 0 01-.177 3.5 6.711 6.711 0 01-.913 2.031c-.042.014-.083-.147-.094-.366a4.506 4.506 0 00-1.652-3.164c-1.137-.97-2.664-1.743-6.399-3.236z"
        data-name="Path 10544" />
      <path
        d="M44.231 37.714a9.845 9.845 0 00-.271-1.179l-.143-.424.266.3a4.742 4.742 0 01.9 1.634 3.53 3.53 0 01.208 1.559 3.472 3.472 0 01-.2 1.51 4.771 4.771 0 01-1.183 1.871 6.76 6.76 0 01-4.241 1.848c-.33.041-1.293.111-2.139.155a16.754 16.754 0 00-4.8.778 1.018 1.018 0 01-.36.085 6.627 6.627 0 011.517-.9 14.69 14.69 0 014.227-1.109c1.1-.183 2.24-.4 2.529-.492a4.812 4.812 0 003.69-5.636z"
        data-name="Path 10545" />
      <path
        d="M46.801 42.251a6.421 6.421 0 01-.508-4.562c.044-.153.114-.278.156-.278a1.514 1.514 0 01.391.21c.343.23 1.032.617 2.866 1.611a14.182 14.182 0 014.481 3.3 7.151 7.151 0 011.49 3.39 11.471 11.471 0 01-.141 3.336 8.288 8.288 0 01-4.086 5.386 5.255 5.255 0 01-.6.294 2.181 2.181 0 01.242-.612 5.473 5.473 0 00.245-4.356 18.48 18.48 0 00-2.273-4.048 27.271 27.271 0 01-2.263-3.671z"
        data-name="Path 10546" />
      <path
        d="M25.741 50.838a15.22 15.22 0 017.027-3.367 11.028 11.028 0 013.65.14 6.262 6.262 0 013.56 2.267 8.14 8.14 0 011.29 3.814c.121.766.252 1.534.292 1.708a3.777 3.777 0 001.233 2.213 4.275 4.275 0 003.891.1 1.941 1.941 0 01.489-.151 4.439 4.439 0 01-1.228.817 4.194 4.194 0 01-2.035.491 4.073 4.073 0 01-3.449-2.1 16.66 16.66 0 01-.931-1.846c-1-2.267-1.494-2.957-2.655-3.713a3.441 3.441 0 00-3.294-.3 2.114 2.114 0 00-.725 3.3 2.863 2.863 0 001.609.836 1.714 1.714 0 001.944-1.711 1.333 1.333 0 00-.927-1.368c-.906-.406-1.88.069-1.875.915a.758.758 0 00.524.751c.233.1.239.113.048.074a1.031 1.031 0 01-.358-1.828 2.049 2.049 0 013.031.64 2.779 2.779 0 01.058 1.909 2.655 2.655 0 01-3.21 1.519 4.464 4.464 0 01-2.458-1.658c-1.974-2.016-2.735-2.407-5.574-2.847l-.544-.085z"
        data-name="Path 10547" />
      <path
        d="M16.495 14.73a106.43 106.43 0 0011.617 11.905c.416.571.259 1.085-.453 1.488a4.341 4.341 0 01-1.619.451.842.842 0 01-.62-.177c-.267-.252-.418-.208-1.792-2.631-1.902-2.943-3.502-5.381-3.545-5.422-.1-.094-.1-.091 3.352 6.045a2.176 2.176 0 01.111 1.934c0 .371-.1.565-.562 1.075-.767.85-1.109 1.805-1.357 3.782-.277 2.216-1.057 3.782-3.219 6.461a12.791 12.791 0 00-1.791 2.482 4.567 4.567 0 00-.558 2.25 6.956 6.956 0 00.367 2.766 9.873 9.873 0 001.348 2.652 6.139 6.139 0 011.042 2.062c0 .234.045.235 1.066.006a11.087 11.087 0 005.544-2.694 2.538 2.538 0 00.855-2.142 2.075 2.075 0 00-.2-1.17 5.156 5.156 0 00-1.983-1.915c-1.524-1.032-2.172-1.867-2.356-3.015-.148-.942.024-1.606.868-3.364a10.135 10.135 0 001.237-4.43c.095-1.185.226-1.653.568-2.028a2.139 2.139 0 011.563-.644 5.331 5.331 0 003.114-1.258 2.681 2.681 0 00.97-2.047l.032-.659-.366-.424c-1.324-1.534-14.12-12.546-14.202-12.546-.017 0 .419.543.969 1.207zm3.065 30.846a1.162 1.162 0 00-.361-1.536c-.473-.313-1.209-.165-1.209.242 0 .124.069.215.225.295.263.134.282.285.075.594s-.192.588.048.774a.825.825 0 001.222-.369z"
        data-name="Path 10548" />
      <path
        d="M31.005 30.803a2.533 2.533 0 00-1.539 1.668 2.361 2.361 0 00.132 1.5c.3.4.591.5 1.379.5 1.541-.009 2.881-.666 3.037-1.488a2.189 2.189 0 00-1.271-2.016 3.033 3.033 0 00-1.738-.164zm1.8 1.4a.619.619 0 00-.269-.941c-.77-.467-1.934-.081-1.934.642 0 .36.607.752 1.164.752a1.507 1.507 0 001.04-.452z"
        data-name="Path 10549" />
    </g>
  </g>
</svg>