<svg
  xmlns="http://www.w3.org/2000/svg"
  width="73"
  height="73"
  viewbox="0 0 73 73"
>
  <g
    id="Group_5247"
    data-name="Group 5247"
    transform="translate(-821.03 -260.802)"
  >
    <g id="Group_5246" data-name="Group 5246" transform="translate(102.38)">
      <g
        id="Group_4662"
        data-name="Group 4662"
        transform="translate(718.65 260.802)"
      >
        <g id="Group_68" data-name="Group 68" transform="translate(0)">
          <g id="Group_64" data-name="Group 64">
            <circle
              id="Ellipse_58"
              data-name="Ellipse 58"
              cx="36.5"
              cy="36.5"
              r="36.5"
              fill="#fff"
            />
            <path
              id="Path_27"
              data-name="Path 27"
              d="M104.362,221.656a34.219,34.219,0,1,1-34.218,34.218,34.258,34.258,0,0,1,34.218-34.218m0-2.281a36.5,36.5,0,1,0,36.5,36.5,36.5,36.5,0,0,0-36.5-36.5Z"
              transform="translate(-67.863 -219.375)"
              fill="#0d124d"
            />
          </g>
        </g>
      </g>
    </g>
    <g
      id="logo"
      transform="translate(836.556 273.825)"
      style="mix-blend-mode: 'darken'; isolation: 'isolate';"
    >
      <path
        id="Path_10541"
        data-name="Path 10541"
        d="M4.5,1.668c-.591-.091-.616-.1-.338-.144a9.234,9.234,0,0,1,2.659.235,11.488,11.488,0,0,1,5.833,3.88l.522.578.747-.119a15.856,15.856,0,0,1,9.031,1.127A11.7,11.7,0,0,1,25,8.409a3.137,3.137,0,0,1,.189.789,4.891,4.891,0,0,1-.3,3.066.8.8,0,0,0-.084.887.863.863,0,0,0,.772.485c.666,0,1.382-1.071,1.714-2.559l.132-.591.261.294a11.392,11.392,0,0,1,2.752,5.381l.05.408-.241-.371a4.594,4.594,0,0,0-1.365-1.425c-.962-.632-1.978-.848-4.671-.989a19.1,19.1,0,0,1-5.173-.776c-2.322-.752-3.492-1.755-6.251-5.351a26.263,26.263,0,0,0-2.735-3.193A9.8,9.8,0,0,0,4.5,1.668Z"
        transform="translate(8.55 2.136)"
        fill="#0d124d"
      />
      <path
        id="Path_10542"
        data-name="Path 10542"
        d="M13.458,4.654a6.47,6.47,0,0,1,.5-2.421,2.594,2.594,0,0,1,.242-.464,1.6,1.6,0,0,1-.113.419,5.47,5.47,0,0,0-.1,2.478c.187,1.264.293,1.446,1.637,2.811.63.64,1.363,1.448,1.629,1.794l.483.63-.483-.45A20.577,20.577,0,0,0,15,7.671c-.2-.1-.231-.1-.355.022s-.139.283-.154,1.087a6.05,6.05,0,0,1-.611,2.861c-.224.435-.26.342-.057-.149a3.894,3.894,0,0,0,.166-1.741c0-2.437-.294-3.023-2-4.027-.432-.254-1.145-.621-1.584-.815a6.008,6.008,0,0,1-.774-.376,16.585,16.585,0,0,1,2.383.691c1,.381,1.161.43,1.282.385C13.379,5.579,13.419,5.344,13.458,4.654Z"
        transform="translate(20.638 2.717)"
        fill="#0d124d"
      />
      <path
        id="Path_10543"
        data-name="Path 10543"
        d="M5.747,8.528a9.884,9.884,0,0,1-1.781-6.04l.05-.582.273.05a6.88,6.88,0,0,1,1.811.67c1.136.686,1.628,1.589,2.129,3.908.147.679.339,1.448.427,1.708a11.525,11.525,0,0,0,1.119,2.033c.315.458.106.674-.591.612A5.674,5.674,0,0,1,5.747,8.528Z"
        transform="translate(8.45 3.012)"
        fill="#0d124d"
      />
      <path
        id="Path_10544"
        data-name="Path 10544"
        d="M15.555,13.6C9.949,11.355,7.974,9.407,7.974,6.121a5.27,5.27,0,0,1,.037-.879,4.253,4.253,0,0,1,.482.355C9.63,6.5,10.9,6.89,14.428,7.4a24.678,24.678,0,0,1,4.318.9c3.422,1.128,5.539,3.417,6.044,6.535a10.716,10.716,0,0,1-.177,3.5,6.711,6.711,0,0,1-.913,2.031c-.042.014-.083-.147-.094-.366a4.506,4.506,0,0,0-1.652-3.164C20.817,15.866,19.29,15.093,15.555,13.6Z"
        transform="translate(17.086 10.16)"
        fill="#0d124d"
      />
      <path
        id="Path_10545"
        data-name="Path 10545"
        d="M17.287,9.29a9.845,9.845,0,0,0-.271-1.179l-.143-.424.266.3a4.742,4.742,0,0,1,.9,1.634,3.53,3.53,0,0,1,.208,1.559,3.472,3.472,0,0,1-.2,1.51,4.771,4.771,0,0,1-1.183,1.871,6.76,6.76,0,0,1-4.241,1.848c-.33.041-1.293.111-2.139.155a16.754,16.754,0,0,0-4.8.778,1.018,1.018,0,0,1-.36.085,6.627,6.627,0,0,1,1.517-.9,14.69,14.69,0,0,1,4.227-1.109c1.1-.183,2.24-.4,2.529-.492A4.812,4.812,0,0,0,17.287,9.29Z"
        transform="translate(11.418 15.401)"
        fill="#0d124d"
      />
      <path
        id="Path_10546"
        data-name="Path 10546"
        d="M10.445,12.941a6.421,6.421,0,0,1-.508-4.562c.044-.153.114-.278.156-.278a1.514,1.514,0,0,1,.391.21c.343.23,1.032.617,2.866,1.611a14.182,14.182,0,0,1,4.481,3.3,7.151,7.151,0,0,1,1.49,3.39,11.471,11.471,0,0,1-.141,3.336,8.288,8.288,0,0,1-4.086,5.386,5.255,5.255,0,0,1-.6.294,2.181,2.181,0,0,1,.242-.612,5.473,5.473,0,0,0,.245-4.356,18.48,18.48,0,0,0-2.273-4.048A27.271,27.271,0,0,1,10.445,12.941Z"
        transform="translate(20.83 16.287)"
        fill="#0d124d"
      />
      <path
        id="Path_10547"
        data-name="Path 10547"
        d="M3.673,14.731A15.22,15.22,0,0,1,10.7,11.364a11.028,11.028,0,0,1,3.65.14,6.262,6.262,0,0,1,3.56,2.267A8.14,8.14,0,0,1,19.2,17.585c.121.766.252,1.534.292,1.708a3.777,3.777,0,0,0,1.233,2.213,4.275,4.275,0,0,0,3.891.1,1.941,1.941,0,0,1,.489-.151,4.439,4.439,0,0,1-1.228.817,4.194,4.194,0,0,1-2.035.491,4.073,4.073,0,0,1-3.449-2.1,16.66,16.66,0,0,1-.931-1.846c-1-2.267-1.494-2.957-2.655-3.713a3.441,3.441,0,0,0-3.294-.3,2.114,2.114,0,0,0-.725,3.3,2.863,2.863,0,0,0,1.609.836,1.714,1.714,0,0,0,1.944-1.711,1.333,1.333,0,0,0-.927-1.368c-.906-.406-1.88.069-1.875.915a.758.758,0,0,0,.524.751c.233.1.239.113.048.074a1.031,1.031,0,0,1-.358-1.828,2.049,2.049,0,0,1,3.031.64,2.779,2.779,0,0,1,.058,1.909,2.655,2.655,0,0,1-3.21,1.519,4.464,4.464,0,0,1-2.458-1.658C7.2,16.167,6.439,15.776,3.6,15.336l-.544-.085Z"
        transform="translate(6.542 23.084)"
        fill="#0d124d"
      />
      <path
        id="Path_10548"
        data-name="Path 10548"
        d="M.969,1.707A106.43,106.43,0,0,0,12.586,13.612c.416.571.259,1.085-.453,1.488a4.341,4.341,0,0,1-1.619.451.842.842,0,0,1-.62-.177c-.267-.252-.418-.208-1.792-2.631C6.2,9.8,4.6,7.362,4.557,7.321c-.1-.094-.1-.091,3.352,6.045A2.176,2.176,0,0,1,8.02,15.3c0,.371-.1.565-.562,1.075-.767.85-1.109,1.805-1.357,3.782-.277,2.216-1.057,3.782-3.219,6.461A12.791,12.791,0,0,0,1.091,29.1,4.567,4.567,0,0,0,.533,31.35,6.956,6.956,0,0,0,.9,34.116a9.873,9.873,0,0,0,1.348,2.652A6.139,6.139,0,0,1,3.29,38.83c0,.234.045.235,1.066.006A11.087,11.087,0,0,0,9.9,36.142,2.538,2.538,0,0,0,10.755,34a2.075,2.075,0,0,0-.2-1.17,5.156,5.156,0,0,0-1.983-1.915C7.048,29.883,6.4,29.048,6.216,27.9c-.148-.942.024-1.606.868-3.364a10.135,10.135,0,0,0,1.237-4.43c.095-1.185.226-1.653.568-2.028a2.139,2.139,0,0,1,1.563-.644,5.331,5.331,0,0,0,3.114-1.258,2.681,2.681,0,0,0,.97-2.047l.032-.659-.366-.424C12.878,11.512.082.5,0,.5-.017.5.419,1.043.969,1.707ZM4.034,32.553a1.162,1.162,0,0,0-.361-1.536c-.473-.313-1.209-.165-1.209.242,0,.124.069.215.225.295.263.134.282.285.075.594s-.192.588.048.774A.825.825,0,0,0,4.034,32.553Z"
        transform="translate(0 0)"
        fill="#0d124d"
        fillRule="evenodd"
      />
      <path
        id="Path_10549"
        data-name="Path 10549"
        d="M6.017,6.041A2.533,2.533,0,0,0,4.478,7.709a2.361,2.361,0,0,0,.132,1.5c.3.4.591.5,1.379.5C7.53,9.7,8.87,9.043,9.026,8.221A2.189,2.189,0,0,0,7.755,6.205,3.033,3.033,0,0,0,6.017,6.041Zm1.8,1.4A.619.619,0,0,0,7.548,6.5c-.77-.467-1.934-.081-1.934.642,0,.36.607.752,1.164.752A1.507,1.507,0,0,0,7.818,7.442Z"
        transform="translate(9.462 11.739)"
        fill="#0d124d"
        fillRule="evenodd"
      />
    </g>
  </g>
</svg>