<svg width="25" height="24" viewBox="0 0 25 24" fill="none" xmlns="http://www.w3.org/2000/svg">
<path d="M12 24C18.6274 24 24 18.6274 24 12C24 5.37258 18.6274 0 12 0C5.37258 0 0 5.37258 0 12C0 18.6274 5.37258 24 12 24Z" fill="#FF007A"/>
<path d="M9.19594 4.32506C8.98219 4.29206 8.97319 4.28756 9.07369 4.27256C9.26644 4.24256 9.72244 4.28381 10.0367 4.35806C10.7694 4.53281 11.4362 4.97906 12.1487 5.77181L12.3377 5.98181L12.6077 5.93906C13.7477 5.75531 14.9079 5.90156 15.8777 6.34931C16.1447 6.47231 16.5654 6.71756 16.6179 6.78131C16.6352 6.80081 16.6659 6.93056 16.6862 7.06856C16.7582 7.54631 16.7222 7.91231 16.5767 8.18606C16.4972 8.33456 16.4927 8.38106 16.5459 8.50856C16.5712 8.56122 16.6108 8.60573 16.6601 8.63702C16.7094 8.66832 16.7665 8.68513 16.8249 8.68556C17.0664 8.68556 17.3259 8.29556 17.4459 7.75331L17.4939 7.53806L17.5884 7.64531C18.1074 8.23331 18.5147 9.03506 18.5844 9.60506L18.6032 9.75431L18.5154 9.61931C18.3654 9.38681 18.2154 9.22781 18.0219 9.09956C17.6739 8.86931 17.3057 8.79131 16.3307 8.73956C15.4502 8.69306 14.9514 8.61806 14.4579 8.45681C13.6172 8.18306 13.1934 7.81781 12.1944 6.50756C11.7512 5.92556 11.4767 5.60381 11.2044 5.34506C10.5842 4.75556 9.97519 4.44656 9.19594 4.32506V4.32506Z" fill="white"/>
<path d="M16.817 5.62474C16.8395 5.23474 16.892 4.97749 16.9985 4.74274C17.0405 4.64974 17.0803 4.57324 17.0863 4.57324C17.0796 4.62589 17.0657 4.67737 17.045 4.72624C16.9678 4.95424 16.955 5.26624 17.0083 5.62849C17.0758 6.08899 17.1148 6.15499 17.6008 6.65224C17.8295 6.88549 18.095 7.17949 18.191 7.30624L18.3658 7.53574L18.191 7.37149C17.9773 7.17124 17.4853 6.77899 17.3765 6.72349C17.3038 6.68599 17.2925 6.68674 17.2475 6.73099C17.2063 6.77299 17.1973 6.83449 17.192 7.12774C17.183 7.58374 17.1208 7.87774 16.97 8.17024C16.889 8.32774 16.8763 8.29474 16.9498 8.11549C17.0045 7.98199 17.0098 7.92349 17.0098 7.48174C17.0098 6.59374 16.904 6.38074 16.2853 6.01474C16.0991 5.90671 15.9079 5.8076 15.7123 5.71774C15.6156 5.67898 15.5219 5.63336 15.4318 5.58124C15.449 5.56399 16.052 5.73949 16.2943 5.83324C16.6558 5.97199 16.715 5.98999 16.7593 5.97274C16.7885 5.96149 16.8028 5.87599 16.817 5.62474V5.62474ZM9.61177 7.14349C9.17752 6.54574 8.90902 5.62849 8.96677 4.94299L8.98477 4.73074L9.08377 4.74874C9.26977 4.78249 9.59002 4.90174 9.74002 4.99324C10.151 5.24299 10.3295 5.57224 10.5103 6.41674C10.5635 6.66424 10.6333 6.94399 10.6655 7.03924C10.7165 7.19149 10.9115 7.54774 11.0705 7.77949C11.1845 7.94599 11.108 8.02474 10.856 8.00224C10.4705 7.96699 9.94852 7.60699 9.61177 7.14349ZM16.2905 11.5947C14.2603 10.7772 13.5455 10.0677 13.5455 8.87074C13.5455 8.69449 13.5515 8.55049 13.5583 8.55049C13.5658 8.55049 13.6445 8.60824 13.733 8.67949C14.1448 9.00949 14.606 9.15049 15.8818 9.33649C16.6325 9.44674 17.0555 9.53524 17.4455 9.66424C18.6845 10.0752 19.451 10.9092 19.634 12.0447C19.6865 12.3747 19.6558 12.9935 19.5695 13.3197C19.502 13.5777 19.2943 14.042 19.2395 14.06C19.2245 14.0645 19.2095 14.0067 19.205 13.9265C19.184 13.5005 18.9688 13.085 18.6065 12.7737C18.1948 12.4205 17.642 12.1385 16.2898 11.5947H16.2905ZM14.8655 11.9337C14.8415 11.7889 14.8087 11.6456 14.7673 11.5047L14.7148 11.3502L14.8115 11.4582C14.9443 11.6082 15.05 11.7987 15.1385 12.0537C15.2068 12.248 15.2143 12.3057 15.2135 12.6215C15.2135 12.932 15.2053 12.9965 15.1423 13.172C15.0547 13.4293 14.908 13.6626 14.714 13.853C14.3428 14.231 13.8665 14.4395 13.178 14.5265C13.058 14.5415 12.71 14.567 12.4033 14.5827C11.6308 14.6232 11.123 14.7057 10.6663 14.8662C10.6251 14.8847 10.5808 14.8954 10.5358 14.8977C10.5178 14.879 10.8283 14.6937 11.0855 14.57C11.4478 14.3952 11.8078 14.3 12.6155 14.1657C13.0145 14.099 13.427 14.0187 13.5313 13.9865C14.5198 13.6835 15.0275 12.902 14.8648 11.9337H14.8655Z" fill="white"/>
<path d="M15.7958 13.5875C15.5258 13.0077 15.4643 12.4475 15.612 11.9255C15.6278 11.87 15.6533 11.8242 15.6683 11.8242C15.7191 11.8426 15.7668 11.8684 15.81 11.9007C15.9345 11.9847 16.1835 12.1257 16.8473 12.4872C17.676 12.9395 18.1485 13.2897 18.4703 13.6887C18.7515 14.039 18.9255 14.438 19.0095 14.924C19.0568 15.1992 19.029 15.8615 18.9585 16.139C18.7358 17.0135 18.2175 17.7005 17.4795 18.101C17.4099 18.1413 17.3377 18.1771 17.2635 18.2082C17.253 18.2082 17.292 18.1085 17.3513 17.9855C17.5988 17.4665 17.628 16.961 17.4398 16.3985C17.325 16.0542 17.0903 15.6335 16.617 14.924C16.0665 14.099 15.9315 13.8785 15.7958 13.5875V13.5875ZM8.17054 16.7157C8.92429 16.0797 9.86104 15.6282 10.7153 15.4895C11.0828 15.4295 11.6963 15.4535 12.0368 15.5405C12.5828 15.68 13.0718 15.9935 13.326 16.3662C13.5735 16.7307 13.6808 17.0487 13.791 17.7552C13.836 18.0342 13.8833 18.314 13.8975 18.3777C13.98 18.7437 14.1428 19.037 14.3438 19.184C14.6625 19.4172 15.2123 19.4315 15.7523 19.2215C15.8087 19.1956 15.8682 19.1769 15.9293 19.166C15.9488 19.1855 15.6773 19.3677 15.4853 19.4637C15.2587 19.585 15.005 19.6464 14.748 19.6422C14.253 19.6422 13.842 19.391 13.4993 18.8772C13.4318 18.776 13.2803 18.4737 13.1618 18.2045C12.8003 17.3795 12.6218 17.1275 12.2018 16.8522C11.835 16.6122 11.3633 16.5695 11.0085 16.7435C10.542 16.9722 10.4123 17.5685 10.746 17.9457C10.8788 18.0957 11.1263 18.2255 11.3288 18.2502C11.4171 18.2619 11.5069 18.2545 11.5922 18.2285C11.6774 18.2025 11.7561 18.1585 11.8228 18.0995C11.8896 18.0405 11.9429 17.9678 11.9792 17.8865C12.0154 17.8051 12.0338 17.7168 12.033 17.6277C12.033 17.3787 11.937 17.2377 11.697 17.129C11.3693 16.9812 11.0168 17.1537 11.0183 17.462C11.019 17.5932 11.076 17.6757 11.208 17.7357C11.2928 17.7732 11.2943 17.777 11.2253 17.7627C10.9245 17.6997 10.854 17.3375 11.0963 17.0967C11.3865 16.8072 11.9873 16.9347 12.1935 17.3292C12.2805 17.495 12.2903 17.8257 12.2145 18.0252C12.0458 18.4715 11.5523 18.7055 11.052 18.578C10.7115 18.491 10.5728 18.3972 10.1625 17.9742C9.44929 17.2392 9.17254 17.0967 8.14354 16.9362L7.94629 16.9055L8.17129 16.7157H8.17054Z" fill="white"/>
<path fill-rule="evenodd" clip-rule="evenodd" d="M4.64746 2.51265L4.71946 2.6004C7.50046 6.0054 8.93746 7.7724 9.02896 7.8984C9.17896 8.1069 9.12271 8.29365 8.86471 8.44065C8.72146 8.5224 8.42596 8.6049 8.27896 8.6049C8.11171 8.6049 7.92346 8.52465 7.78621 8.3949C7.68946 8.30265 7.29871 7.71915 6.39646 6.3189C5.97395 5.65709 5.54594 4.99882 5.11246 4.34415C5.07571 4.30965 5.07646 4.3104 6.32596 6.54615C7.11046 7.95015 7.37596 8.4459 7.37596 8.51265C7.37596 8.64765 7.33846 8.71815 7.17196 8.90415C6.89446 9.2139 6.77071 9.5619 6.68071 10.2819C6.58021 11.0896 6.29821 11.6596 5.51521 12.6354C5.05771 13.2069 4.98271 13.3119 4.86646 13.5421C4.72096 13.8316 4.68121 13.9944 4.66471 14.3604C4.64746 14.7474 4.68121 14.9979 4.79971 15.3676C4.90321 15.6916 5.01121 15.9061 5.28721 16.3336C5.52571 16.7034 5.66296 16.9779 5.66296 17.0851C5.66296 17.1706 5.67946 17.1706 6.04921 17.0874C6.93346 16.8879 7.65121 16.5361 8.05546 16.1056C8.30521 15.8394 8.36371 15.6924 8.36596 15.3271C8.36671 15.0886 8.35846 15.0384 8.29396 14.9011C8.18896 14.6776 7.99771 14.4916 7.57621 14.2036C7.02346 13.8256 6.78796 13.5211 6.72271 13.1034C6.66871 12.7606 6.73096 12.5184 7.03696 11.8779C7.35271 11.2149 7.43146 10.9329 7.48471 10.2646C7.51846 9.83265 7.56571 9.6624 7.69021 9.5259C7.81921 9.3834 7.93621 9.33465 8.25646 9.29115C8.77846 9.2199 9.11071 9.0849 9.38371 8.83365C9.62071 8.61465 9.71971 8.4039 9.73471 8.0874L9.74671 7.8474L9.61396 7.6929C9.42346 7.4709 7.84771 5.7324 4.88596 2.4759L4.80646 2.38965L4.64746 2.5134V2.51265ZM5.93296 14.7991C5.98529 14.7065 6.00091 14.5976 5.97674 14.494C5.95257 14.3903 5.89037 14.2996 5.80246 14.2396C5.63146 14.1256 5.36521 14.1796 5.36521 14.3281C5.36521 14.3731 5.38996 14.4061 5.44621 14.4354C5.54146 14.4841 5.54821 14.5396 5.47396 14.6514C5.39821 14.7654 5.40421 14.8659 5.49121 14.9341C5.63071 15.0436 5.82871 14.9829 5.93371 14.7991H5.93296ZM10.076 9.41715C9.83071 9.49215 9.59296 9.7524 9.51871 10.0246C9.47371 10.1904 9.49921 10.4821 9.56671 10.5721C9.67546 10.7176 9.78121 10.7559 10.0662 10.7536C10.6242 10.7499 11.1087 10.5106 11.1657 10.2114C11.2122 9.96615 10.9985 9.6264 10.7052 9.4764C10.5537 9.3999 10.232 9.36915 10.076 9.41715V9.41715ZM10.7285 9.92715C10.8147 9.8049 10.7765 9.67215 10.631 9.58365C10.352 9.4134 9.93046 9.55365 9.93046 9.81765C9.93046 9.94815 10.1502 10.0914 10.3512 10.0914C10.4862 10.0914 10.6692 10.0111 10.7285 9.92715Z" fill="white"/>
<circle cx="20.0039" cy="20" r="3.66146" fill="white" stroke="#596AEC" stroke-width="0.677083"/>
<path d="M20.997 18.4004C20.9471 18.4004 20.9029 18.4325 20.8876 18.48L20.1302 20.8192C20.1216 20.8457 20.0841 20.8457 20.0755 20.8192L19.3177 18.48C19.3023 18.4325 19.2581 18.4004 19.2083 18.4004H17.9188C17.8395 18.4004 17.784 18.4788 17.8104 18.5537L17.9682 19.001C17.9845 19.047 18.0279 19.0778 18.0767 19.0778H18.6869C18.6991 19.0778 18.71 19.0855 18.714 19.0969L19.7077 21.9104C19.724 21.9564 19.7674 21.9871 19.8162 21.9871H20.3896C20.4383 21.9871 20.4818 21.9564 20.498 21.9104L21.6835 18.5537C21.7099 18.4789 21.6544 18.4004 21.575 18.4004H20.997Z" fill="#596AEC"/>
</svg>
