<svg
  xmlns="http://www.w3.org/2000/svg"
  width="80"
  height="87.556"
  viewbox="0 0 80 87.556"
>
  <g
    id="Group_4683"
    data-name="Group 4683"
    transform="translate(-1006 -435.556)"
  >
    <g id="Group_4665" data-name="Group 4665" transform="translate(1006 436)">
      <circle
        id="Ellipse_56"
        data-name="Ellipse 56"
        cx="40"
        cy="40"
        r="40"
        transform="translate(0 -0.445)"
        fill="#0d124d"
      />
      <circle
        id="Ellipse_57"
        data-name="Ellipse 57"
        cx="29.744"
        cy="29.744"
        r="29.744"
        transform="translate(10.131 10.131)"
        fill="#fff"
      />
      <g
        id="Group_63"
        data-name="Group 63"
        transform="translate(18.021 18.745)"
      >
        <path
          id="Path_24"
          data-name="Path 24"
          d="M49.378,265.71a18.584,18.584,0,0,1,0-35.5V226.83a21.827,21.827,0,0,0,0,42.259Z"
          transform="translate(-33.024 -226.83)"
          fill="#0d124d"
        />
        <path
          id="Path_25"
          data-name="Path 25"
          d="M43.9,226.83v3.379a18.585,18.585,0,0,1,0,35.5v3.379a21.827,21.827,0,0,0,0-42.259Z"
          transform="translate(-16.549 -226.83)"
          fill="#0d124d"
        />
      </g>
      <path
        id="Path_26"
        data-name="Path 26"
        d="M54.23,248.21c0-1.707-.7-5.771-7.211-6.615-4.5-.586-4.5-2.524-4.5-3.161s.7-3.045,4.139-3.045A5.228,5.228,0,0,1,51.3,237.8l2.761-1.443a8.225,8.225,0,0,0-5.891-3.96v-2.907H45.05v2.922a6.453,6.453,0,0,0-5.645,6.019c0,1.984.935,5.434,7.211,6.248,2.985.39,4.5,1.577,4.5,3.528,0,.671-1.028,3.042-4.3,3.042s-5.537-3.254-5.557-3.281l-2.587,1.735a11.5,11.5,0,0,0,6.376,4.471v2.975h3.115v-2.889A6.776,6.776,0,0,0,54.23,248.21Z"
        transform="translate(-6.447 -204.052)"
        fill="#0d124d"
      />
    </g>
  </g>
</svg>
