<svg width="25" height="24" viewBox="0 0 25 24" fill="none" xmlns="http://www.w3.org/2000/svg">
<path d="M12 24C18.6274 24 24 18.6274 24 12C24 5.37258 18.6274 0 12 0C5.37258 0 0 5.37258 0 12C0 18.6274 5.37258 24 12 24Z" fill="#26A17B"/>
<path fill-rule="evenodd" clip-rule="evenodd" d="M13.4411 13.0373V13.0358C13.3586 13.0418 12.9334 13.0673 11.9846 13.0673C11.2271 13.0673 10.6939 13.0448 10.5064 13.0358V13.038C7.59036 12.9098 5.41386 12.402 5.41386 11.7945C5.41386 11.1878 7.59036 10.68 10.5064 10.5495V12.5325C10.6969 12.546 11.2429 12.5783 11.9974 12.5783C12.9026 12.5783 13.3564 12.5408 13.4411 12.5333V10.551C16.3511 10.6808 18.5224 11.1885 18.5224 11.7945C18.5224 12.402 16.3511 12.9083 13.4411 13.0373V13.0373ZM13.4411 10.3448V8.57026H17.5016V5.86426H6.44586V8.57026H10.5064V10.344C7.20636 10.4955 4.72461 11.1495 4.72461 11.9325C4.72461 12.7155 7.20636 13.3688 10.5064 13.521V19.2075H13.4411V13.5195C16.7359 13.368 19.2116 12.7148 19.2116 11.9325C19.2116 11.1503 16.7359 10.497 13.4411 10.3448" fill="white"/>
<circle cx="21" cy="19" r="3.66146" fill="white" stroke="#596AEC" stroke-width="0.677083"/>
<path d="M21.9931 17.4004C21.9432 17.4004 21.899 17.4325 21.8837 17.48L21.1263 19.8192C21.1177 19.8457 21.0802 19.8457 21.0716 19.8192L20.3137 17.48C20.2984 17.4325 20.2542 17.4004 20.2043 17.4004H18.9149C18.8356 17.4004 18.78 17.4788 18.8065 17.5537L18.9643 18.001C18.9806 18.047 19.024 18.0778 19.0728 18.0778H19.683C19.6952 18.0778 19.7061 18.0855 19.7101 18.0969L20.7038 20.9104C20.7201 20.9564 20.7635 20.9871 20.8123 20.9871H21.3857C21.4344 20.9871 21.4779 20.9564 21.4941 20.9104L22.6795 17.5537C22.706 17.4789 22.6504 17.4004 22.5711 17.4004H21.9931Z" fill="#596AEC"/>
</svg>
