<svg xmlns="http://www.w3.org/2000/svg" width="73" height="73">
  <g data-name="Group 5248">
    <g data-name="Group 5246">
      <g data-name="Group 4662">
        <g data-name="Group 68">
          <g data-name="Group 64" transform="translate(.001)">
            <circle cx="36.5" cy="36.5" r="36.5" fill="#fff" data-name="Ellipse 58" />
            <path fill="#0d124d"
              d="M36.499 2.281A34.219 34.219 0 112.281 36.499 34.258 34.258 0 0136.499 2.281m0-2.281a36.5 36.5 0 1036.5 36.5A36.5 36.5 0 0036.499 0z"
              data-name="Path 27" />
          </g>
        </g>
      </g>
    </g>
    <path fill="#101147"
      d="M21.244 18.765l-8.778 18.44a.357.357 0 00.077.417L36.251 60.34a.362.362 0 00.5 0L60.46 37.623a.357.357 0 00.077-.417l-8.779-18.439a.355.355 0 00-.324-.207H21.57a.355.355 0 00-.326.205z"
      data-name="Path 10550" />
    <path fill="#fff"
      d="M39.547 39.098c-.17.013-1.05.065-3.011.065-1.56 0-2.668-.047-3.057-.065-6.03-.265-10.53-1.315-10.53-2.572s4.5-2.3 10.53-2.574v4.1c.394.028 1.523.1 3.084.1 1.872 0 2.81-.078 2.979-.094v-4.1c6.017.268 10.507 1.318 10.507 2.572s-4.489 2.3-10.507 2.57zm0-5.567v-3.669h8.4v-5.6H25.082v5.6h8.4v3.668c-6.824.313-11.956 1.665-11.956 3.285s5.132 2.97 11.956 3.285v11.758h6.068V40.095c6.808-.313 11.932-1.664 11.932-3.282s-5.119-2.969-11.932-3.284zm0 0z"
      data-name="Path 10551" />
  </g>
</svg>