<svg
  xmlns="http://www.w3.org/2000/svg"
  width="73"
  height="73"
  viewbox="0 0 73 73"
>
  <g
    id="Group_5248"
    data-name="Group 5248"
    transform="translate(-712.847 -213.802)"
  >
    <g
      id="Group_5246"
      data-name="Group 5246"
      transform="translate(-5.802 -47)"
    >
      <g
        id="Group_4662"
        data-name="Group 4662"
        transform="translate(718.65 260.802)"
      >
        <g id="Group_68" data-name="Group 68" transform="translate(0)">
          <g id="Group_64" data-name="Group 64">
            <circle
              id="Ellipse_58"
              data-name="Ellipse 58"
              cx="36.5"
              cy="36.5"
              r="36.5"
              fill="#fff"
            />
            <path
              id="Path_27"
              data-name="Path 27"
              d="M104.362,221.656a34.219,34.219,0,1,1-34.218,34.218,34.258,34.258,0,0,1,34.218-34.218m0-2.281a36.5,36.5,0,1,0,36.5,36.5,36.5,36.5,0,0,0-36.5-36.5Z"
              transform="translate(-67.863 -219.375)"
              fill="#0d124d"
            />
          </g>
        </g>
      </g>
    </g>
    <g id="tether-usdt-logo" transform="translate(725.271 232.362)">
      <path
        id="Path_10550"
        data-name="Path 10550"
        d="M8.82.205.042,18.645a.357.357,0,0,0,.077.417L23.827,41.78a.362.362,0,0,0,.5,0L48.036,19.063a.357.357,0,0,0,.077-.417L39.334.207A.355.355,0,0,0,39.01,0H9.146A.355.355,0,0,0,8.82.205Z"
        transform="translate(0)"
        fill="#101147"
        fillRule="evenodd"
      />
      <path
        id="Path_10551"
        data-name="Path 10551"
        d="M82.135,55.062h0c-.17.013-1.05.065-3.011.065-1.56,0-2.668-.047-3.057-.065h0c-6.03-.265-10.53-1.315-10.53-2.572s4.5-2.3,10.53-2.574v4.1c.394.028,1.523.1,3.084.1,1.872,0,2.81-.078,2.979-.094v-4.1c6.017.268,10.507,1.318,10.507,2.572s-4.489,2.3-10.507,2.57h0Zm0-5.567V45.826h8.4v-5.6H67.67v5.6h8.4v3.668c-6.824.313-11.956,1.665-11.956,3.285s5.132,2.97,11.956,3.285V67.822h6.068V56.059c6.808-.313,11.932-1.664,11.932-3.282s-5.119-2.969-11.932-3.284h0Zm0,0Z"
        transform="translate(-55.012 -34.524)"
        fill="#fff"
        fillRule="evenodd"
      />
    </g>
  </g>
</svg>