<svg xmlns="http://www.w3.org/2000/svg" width="80" height="80">
  <g data-name="Group 4683">
    <g data-name="Group 4665" transform="translate(0 .444)">
      <circle cx="40" cy="40" r="40" fill="#0d124d" data-name="Ellipse 56" transform="translate(0 -.445)" />
      <circle cx="29.744" cy="29.744" r="29.744" fill="#fff" data-name="Ellipse 57"
        transform="translate(10.131 10.131)" />
      <g fill="#0d124d" data-name="Group 63">
        <path d="M34.375 57.625a18.584 18.584 0 010-35.5v-3.38a21.827 21.827 0 000 42.259z" data-name="Path 24" />
        <path d="M45.372 18.745v3.379a18.585 18.585 0 010 35.5v3.379a21.827 21.827 0 000-42.259z" data-name="Path 25" />
      </g>
      <path fill="#0d124d"
        d="M47.783 44.158c0-1.707-.7-5.771-7.211-6.615-4.5-.586-4.5-2.524-4.5-3.161s.7-3.045 4.139-3.045a5.228 5.228 0 014.642 2.411l2.761-1.443a8.225 8.225 0 00-5.891-3.96v-2.907h-3.12v2.922a6.453 6.453 0 00-5.645 6.019c0 1.984.935 5.434 7.211 6.248 2.985.39 4.5 1.577 4.5 3.528 0 .671-1.028 3.042-4.3 3.042s-5.537-3.254-5.557-3.281l-2.587 1.735a11.5 11.5 0 006.376 4.471v2.975h3.115v-2.889a6.776 6.776 0 006.067-6.05z"
        data-name="Path 26" />
    </g>
  </g>
</svg>