<svg
  xmlns="http://www.w3.org/2000/svg"
  width="81"
  height="81"
  viewbox="0 0 81 81"
>
  <g
    id="Group_4684"
    data-name="Group 4684"
    transform="translate(-638 -435.717)"
  >
    <g
      id="Group_4656"
      data-name="Group 4656"
      transform="translate(638 435.717)"
    >
      <g id="Group_68" data-name="Group 68" transform="translate(0)">
        <g id="Group_64" data-name="Group 64">
          <circle
            id="Ellipse_58"
            data-name="Ellipse 58"
            cx="40.292"
            cy="40.292"
            r="40.292"
            fill="#fff"
          />
          <path
            id="Path_27"
            data-name="Path 27"
            d="M108.154,221.893a37.774,37.774,0,1,1-37.773,37.773,37.817,37.817,0,0,1,37.773-37.773m0-2.518a40.292,40.292,0,1,0,40.293,40.291,40.291,40.291,0,0,0-40.293-40.291Z"
            transform="translate(-67.863 -219.375)"
            fill="#0d124d"
          />
        </g>
        <g
          id="Group_67"
          data-name="Group 67"
          transform="translate(5.642 5.643)"
          opacity="0.65"
        >
          <g id="Group_65" data-name="Group 65" transform="translate(11.961)">
            <path
              id="Path_28"
              data-name="Path 28"
              d="M120.628,230.456a34.653,34.653,0,0,0-45.837-.394l1.829,1.829a32.117,32.117,0,0,1,42.178.394Z"
              transform="translate(-74.791 -221.596)"
              fill="#0d124d"
            />
            <path
              id="Path_29"
              data-name="Path 29"
              d="M94.98,226.123l-1.829,1.829a32.114,32.114,0,0,1,.4,42.178l1.829,1.829A34.651,34.651,0,0,0,94.98,226.123Z"
              transform="translate(-46.504 -214.621)"
              fill="#0d124d"
            />
          </g>
          <g
            id="Group_66"
            data-name="Group 66"
            transform="translate(0 11.06)"
          >
            <path
              id="Path_30"
              data-name="Path 30"
              d="M80.774,270.856a32.115,32.115,0,0,1,.407-43.083l-1.824-1.824a34.652,34.652,0,0,0-.412,46.736Z"
              transform="translate(-70.083 -225.949)"
              fill="#0d124d"
            />
            <path
              id="Path_31"
              data-name="Path 31"
              d="M119.521,244.5a32.109,32.109,0,0,1-43.08.409l-1.829,1.827a34.647,34.647,0,0,0,46.736-.412Z"
              transform="translate(-63.108 -197.363)"
              fill="#0d124d"
            />
          </g>
        </g>
      </g>
      <path
        id="Path_32"
        data-name="Path 32"
        d="M108.466,254.3c.193-4.3-1.5-7.094-5.079-7.863-.2-.043-.4-.076-.6-.1a6.019,6.019,0,0,0,3.25-6.58l0,0c-.506-4.606-4.5-6.088-9.525-6.456l-.084-6.387-3.89.048.084,6.225c-1.019.018-2.06.046-3.1.084L89.434,227l-3.875.051.046,6.38c-.844.028-1.669.053-2.48.058l.005-.018-5.363.071.056,4.149s2.874-.089,2.823-.038a2.007,2.007,0,0,1,2.261,1.677l.089,7.3.135,10.191a1.375,1.375,0,0,1-1.435,1.306c.051.043-2.823.036-2.823.036l-.683,4.66,5.066-.066c.943-.013,1.867-.01,2.777-.015l.084,6.466,3.875-.053-.1-6.392q1.555.011,3.107-.013l.081,6.362,3.9-.053L96.9,262.61C103.428,262.15,107.981,260.443,108.466,254.3Zm-18.7-8.72-.1-7.764c2.2-.023,9.08-.813,9.144,3.77l-.005-.005C98.86,245.976,91.957,245.557,89.764,245.582Zm.155,12.475-.112-8.562c2.637-.028,10.889-.907,10.956,4.139C100.829,258.459,92.556,258.019,89.919,258.057Z"
        transform="translate(-52.603 -207.768)"
        fill="#0d124d"
      />
    </g>
  </g>
</svg>