<svg xmlns="http://www.w3.org/2000/svg" width="81" height="81">
  <g data-name="Group 4684">
    <g data-name="Group 4656">
      <g data-name="Group 68">
        <g data-name="Group 64">
          <circle cx="40.292" cy="40.292" r="40.292" fill="#fff" data-name="Ellipse 58" />
          <path fill="#0d124d"
            d="M40.291 2.518A37.774 37.774 0 112.518 40.291 37.817 37.817 0 0140.291 2.518m0-2.518a40.292 40.292 0 1040.293 40.291A40.291 40.291 0 0040.291 0z"
            data-name="Path 27" />
        </g>
        <g fill="#0d124d" data-name="Group 67" opacity=".65">
          <g data-name="Group 65">
            <path d="M63.44 14.503a34.653 34.653 0 00-45.837-.394l1.829 1.829a32.117 32.117 0 0142.178.394z"
              data-name="Path 28" />
            <path d="M66.079 17.145l-1.829 1.829a32.114 32.114 0 01.4 42.178l1.829 1.829a34.651 34.651 0 00-.4-45.836z"
              data-name="Path 29" />
          </g>
          <g data-name="Group 66">
            <path d="M16.333 61.61a32.115 32.115 0 01.407-43.083l-1.824-1.824a34.652 34.652 0 00-.412 46.736z"
              data-name="Path 30" />
            <path d="M62.055 63.84a32.109 32.109 0 01-43.08.409l-1.829 1.827a34.647 34.647 0 0046.736-.412z"
              data-name="Path 31" />
          </g>
        </g>
      </g>
      <path fill="#0d124d"
        d="M55.863 46.532c.193-4.3-1.5-7.094-5.079-7.863-.2-.043-.4-.076-.6-.1a6.019 6.019 0 003.25-6.58c-.506-4.606-4.5-6.088-9.525-6.456l-.084-6.387-3.89.048.084 6.225c-1.019.018-2.06.046-3.1.084l-.088-6.271-3.875.051.046 6.38c-.844.028-1.669.053-2.48.058l.005-.018-5.363.071.056 4.149s2.874-.089 2.823-.038a2.007 2.007 0 012.261 1.677l.089 7.3.135 10.191a1.375 1.375 0 01-1.435 1.306c.051.043-2.823.036-2.823.036l-.683 4.66 5.066-.066c.943-.013 1.867-.01 2.777-.015l.084 6.466 3.875-.053-.1-6.392q1.555.011 3.107-.013l.081 6.362 3.9-.053-.08-6.449c6.528-.46 11.081-2.167 11.566-8.31zm-18.7-8.72l-.1-7.764c2.2-.023 9.08-.813 9.144 3.77l-.005-.005c.055 4.395-6.848 3.976-9.041 4.001zm.155 12.475l-.112-8.562c2.637-.028 10.889-.907 10.956 4.139.064 4.827-8.209 4.387-10.846 4.425z"
        data-name="Path 32" />
    </g>
  </g>
</svg>