<svg xmlns="http://www.w3.org/2000/svg" id="prefix__Слой_1" x="0" y="0" version="1.1" viewBox="16 16 104 104"
  xml:space="preserve">
  <style>
    .prefix__st1 {
      fill: #fff
    }
  </style>
  <circle cx="60" cy="60" r="42" class="prefix__st1" />
  <path
    d="M60 104c-24.3 0-44-19.7-44-44s19.7-44 44-44 44 19.7 44 44-19.7 44-44 44zm0-84c-22.1 0-40 17.9-40 40s17.9 40 40 40 40-17.9 40-40-17.9-40-40-40z" />
  <circle cx="60" cy="60" r="32" class="prefix__st1" />
  <path
    d="M60 94c-18.7 0-34-15.3-34-34s15.3-34 34-34 34 15.3 34 34-15.3 34-34 34zm0-64c-16.5 0-30 13.5-30 30s13.5 30 30 30 30-13.5 30-30-13.5-30-30-30z" />
  <g>
    <path
      d="M51.6 70h-9.1V52.1h8.8v3.3h-5.4v4h5v3.3h-5v4.1h5.7V70zM65.8 55.4h-4.3V70H58V55.4h-4.3v-3.3h12.1v3.3zM81 70h-3.4v-7.3h-6.3V70h-3.4V52.1h3.4v7.1h6.3v-7.1H81V70z" />
  </g>
</svg>